%TF.GenerationSoftware,KiCad,Pcbnew,5.1.8*%
%TF.CreationDate,2021-01-17T13:40:54+01:00*%
%TF.ProjectId,sm4,736d342e-6b69-4636-9164-5f7063625858,rev?*%
%TF.SameCoordinates,Original*%
%TF.FileFunction,Soldermask,Bot*%
%TF.FilePolarity,Negative*%
%FSLAX46Y46*%
G04 Gerber Fmt 4.6, Leading zero omitted, Abs format (unit mm)*
G04 Created by KiCad (PCBNEW 5.1.8) date 2021-01-17 13:40:54*
%MOMM*%
%LPD*%
G01*
G04 APERTURE LIST*
%ADD10C,0.900000*%
%ADD11O,1.700000X1.700000*%
%ADD12R,1.700000X1.700000*%
%ADD13O,1.700000X1.850000*%
%ADD14O,0.900000X1.700000*%
%ADD15O,0.900000X2.400000*%
%ADD16C,0.700000*%
%ADD17C,3.000000*%
%ADD18R,3.000000X3.000000*%
%ADD19O,1.850000X1.700000*%
%ADD20C,6.400000*%
G04 APERTURE END LIST*
D10*
%TO.C,SW2*%
X54100000Y-53070000D03*
X57100000Y-53070000D03*
%TD*%
D11*
%TO.C,SW1*%
X74640000Y-58200000D03*
D12*
X72100000Y-58200000D03*
%TD*%
D13*
%TO.C,J8*%
X63500000Y-52300000D03*
X66000000Y-52300000D03*
X68500000Y-52300000D03*
X71000000Y-52300000D03*
G36*
G01*
X74350000Y-51625000D02*
X74350000Y-52975000D01*
G75*
G02*
X74100000Y-53225000I-250000J0D01*
G01*
X72900000Y-53225000D01*
G75*
G02*
X72650000Y-52975000I0J250000D01*
G01*
X72650000Y-51625000D01*
G75*
G02*
X72900000Y-51375000I250000J0D01*
G01*
X74100000Y-51375000D01*
G75*
G02*
X74350000Y-51625000I0J-250000D01*
G01*
G37*
%TD*%
D14*
%TO.C,J7*%
X88700000Y-51740000D03*
X80050000Y-51740000D03*
D15*
X88700000Y-55120000D03*
X80050000Y-55120000D03*
D16*
X84800000Y-54750000D03*
X87350000Y-54750000D03*
X86500000Y-54750000D03*
X85650000Y-54750000D03*
X81400000Y-54750000D03*
X83100000Y-54750000D03*
X83950000Y-54750000D03*
X82250000Y-54750000D03*
X87350000Y-56100000D03*
X86500000Y-56100000D03*
X85650000Y-56100000D03*
X84800000Y-56100000D03*
X83950000Y-56100000D03*
X83100000Y-56100000D03*
X82250000Y-56100000D03*
X81400000Y-56100000D03*
%TD*%
D17*
%TO.C,J6*%
X44000000Y-89120000D03*
D18*
X44000000Y-94200000D03*
%TD*%
D19*
%TO.C,J5*%
X47100000Y-82500000D03*
X47100000Y-80000000D03*
X47100000Y-77500000D03*
G36*
G01*
X46425000Y-74150000D02*
X47775000Y-74150000D01*
G75*
G02*
X48025000Y-74400000I0J-250000D01*
G01*
X48025000Y-75600000D01*
G75*
G02*
X47775000Y-75850000I-250000J0D01*
G01*
X46425000Y-75850000D01*
G75*
G02*
X46175000Y-75600000I0J250000D01*
G01*
X46175000Y-74400000D01*
G75*
G02*
X46425000Y-74150000I250000J0D01*
G01*
G37*
%TD*%
D11*
%TO.C,J4*%
X85120000Y-100900000D03*
X82580000Y-100900000D03*
X80040000Y-100900000D03*
D12*
X77500000Y-100900000D03*
%TD*%
D19*
%TO.C,J3*%
X47100000Y-68500000D03*
X47100000Y-66000000D03*
X47100000Y-63500000D03*
G36*
G01*
X46425000Y-60150000D02*
X47775000Y-60150000D01*
G75*
G02*
X48025000Y-60400000I0J-250000D01*
G01*
X48025000Y-61600000D01*
G75*
G02*
X47775000Y-61850000I-250000J0D01*
G01*
X46425000Y-61850000D01*
G75*
G02*
X46175000Y-61600000I0J250000D01*
G01*
X46175000Y-60400000D01*
G75*
G02*
X46425000Y-60150000I250000J0D01*
G01*
G37*
%TD*%
D11*
%TO.C,J2*%
X51700000Y-66040000D03*
D12*
X51700000Y-63500000D03*
%TD*%
D11*
%TO.C,J1*%
X62520000Y-100900000D03*
X59980000Y-100900000D03*
X57440000Y-100900000D03*
D12*
X54900000Y-100900000D03*
%TD*%
D20*
%TO.C,H4*%
X43500000Y-53500000D03*
%TD*%
%TO.C,H3*%
X43500000Y-102500000D03*
%TD*%
%TO.C,H2*%
X101500000Y-102500000D03*
%TD*%
%TO.C,H1*%
X101500000Y-53500000D03*
%TD*%
M02*
