%TF.GenerationSoftware,KiCad,Pcbnew,5.1.8*%
%TF.CreationDate,2021-01-17T13:40:54+01:00*%
%TF.ProjectId,sm4,736d342e-6b69-4636-9164-5f7063625858,rev?*%
%TF.SameCoordinates,Original*%
%TF.FileFunction,Copper,L4,Bot*%
%TF.FilePolarity,Positive*%
%FSLAX46Y46*%
G04 Gerber Fmt 4.6, Leading zero omitted, Abs format (unit mm)*
G04 Created by KiCad (PCBNEW 5.1.8) date 2021-01-17 13:40:54*
%MOMM*%
%LPD*%
G01*
G04 APERTURE LIST*
%TA.AperFunction,SMDPad,CuDef*%
%ADD10R,5.000000X5.000000*%
%TD*%
%TA.AperFunction,ComponentPad*%
%ADD11C,0.500000*%
%TD*%
%TA.AperFunction,ComponentPad*%
%ADD12O,1.700000X1.700000*%
%TD*%
%TA.AperFunction,ComponentPad*%
%ADD13R,1.700000X1.700000*%
%TD*%
%TA.AperFunction,ComponentPad*%
%ADD14O,1.700000X1.850000*%
%TD*%
%TA.AperFunction,ComponentPad*%
%ADD15O,0.900000X1.700000*%
%TD*%
%TA.AperFunction,ComponentPad*%
%ADD16O,0.900000X2.400000*%
%TD*%
%TA.AperFunction,ComponentPad*%
%ADD17C,0.700000*%
%TD*%
%TA.AperFunction,ComponentPad*%
%ADD18C,3.000000*%
%TD*%
%TA.AperFunction,ComponentPad*%
%ADD19R,3.000000X3.000000*%
%TD*%
%TA.AperFunction,ComponentPad*%
%ADD20O,1.850000X1.700000*%
%TD*%
%TA.AperFunction,ComponentPad*%
%ADD21C,6.400000*%
%TD*%
%TA.AperFunction,ViaPad*%
%ADD22C,0.600000*%
%TD*%
%TA.AperFunction,ViaPad*%
%ADD23C,0.800000*%
%TD*%
%TA.AperFunction,Conductor*%
%ADD24C,1.000000*%
%TD*%
%TA.AperFunction,Conductor*%
%ADD25C,0.300000*%
%TD*%
%TA.AperFunction,Conductor*%
%ADD26C,0.250000*%
%TD*%
%TA.AperFunction,Conductor*%
%ADD27C,0.254000*%
%TD*%
%TA.AperFunction,Conductor*%
%ADD28C,0.150000*%
%TD*%
G04 APERTURE END LIST*
D10*
%TO.P,U4,49*%
%TO.N,GND*%
X81200000Y-88400000D03*
D11*
X78950000Y-90650000D03*
X78950000Y-89525000D03*
X78950000Y-88400000D03*
X78950000Y-87275000D03*
X78950000Y-86150000D03*
X80075000Y-90650000D03*
X80075000Y-89525000D03*
X80075000Y-88400000D03*
X80075000Y-87275000D03*
X80075000Y-86150000D03*
X81200000Y-90650000D03*
X81200000Y-89525000D03*
X81200000Y-88400000D03*
X81200000Y-87275000D03*
X81200000Y-86150000D03*
X82325000Y-90650000D03*
X82325000Y-89525000D03*
X82325000Y-88400000D03*
X82325000Y-87275000D03*
X82325000Y-86150000D03*
X83450000Y-90650000D03*
X83450000Y-89525000D03*
X83450000Y-88400000D03*
X83450000Y-87275000D03*
X83450000Y-86150000D03*
%TD*%
D10*
%TO.P,U2,49*%
%TO.N,GND*%
X59600000Y-88500000D03*
D11*
X57350000Y-90750000D03*
X57350000Y-89625000D03*
X57350000Y-88500000D03*
X57350000Y-87375000D03*
X57350000Y-86250000D03*
X58475000Y-90750000D03*
X58475000Y-89625000D03*
X58475000Y-88500000D03*
X58475000Y-87375000D03*
X58475000Y-86250000D03*
X59600000Y-90750000D03*
X59600000Y-89625000D03*
X59600000Y-88500000D03*
X59600000Y-87375000D03*
X59600000Y-86250000D03*
X60725000Y-90750000D03*
X60725000Y-89625000D03*
X60725000Y-88500000D03*
X60725000Y-87375000D03*
X60725000Y-86250000D03*
X61850000Y-90750000D03*
X61850000Y-89625000D03*
X61850000Y-88500000D03*
X61850000Y-87375000D03*
X61850000Y-86250000D03*
%TD*%
D12*
%TO.P,SW1,2*%
%TO.N,GND*%
X74640000Y-58200000D03*
D13*
%TO.P,SW1,1*%
%TO.N,NRST*%
X72100000Y-58200000D03*
%TD*%
D14*
%TO.P,J8,5*%
%TO.N,+3V3*%
X63500000Y-52300000D03*
%TO.P,J8,4*%
%TO.N,SWCLK*%
X66000000Y-52300000D03*
%TO.P,J8,3*%
%TO.N,GND*%
X68500000Y-52300000D03*
%TO.P,J8,2*%
%TO.N,SWDIO*%
X71000000Y-52300000D03*
%TO.P,J8,1*%
%TO.N,NRST*%
%TA.AperFunction,ComponentPad*%
G36*
G01*
X74350000Y-51625000D02*
X74350000Y-52975000D01*
G75*
G02*
X74100000Y-53225000I-250000J0D01*
G01*
X72900000Y-53225000D01*
G75*
G02*
X72650000Y-52975000I0J250000D01*
G01*
X72650000Y-51625000D01*
G75*
G02*
X72900000Y-51375000I250000J0D01*
G01*
X74100000Y-51375000D01*
G75*
G02*
X74350000Y-51625000I0J-250000D01*
G01*
G37*
%TD.AperFunction*%
%TD*%
D15*
%TO.P,J7,S1*%
%TO.N,GND*%
X88700000Y-51740000D03*
X80050000Y-51740000D03*
D16*
X88700000Y-55120000D03*
X80050000Y-55120000D03*
D17*
%TO.P,J7,B6*%
%TO.N,USB_CONN_D+*%
X84800000Y-54750000D03*
%TO.P,J7,B1*%
%TO.N,GND*%
X87350000Y-54750000D03*
%TO.P,J7,B4*%
%TO.N,Net-(F2-Pad2)*%
X86500000Y-54750000D03*
%TO.P,J7,B5*%
%TO.N,Net-(J7-PadB5)*%
X85650000Y-54750000D03*
%TO.P,J7,B12*%
%TO.N,GND*%
X81400000Y-54750000D03*
%TO.P,J7,B8*%
%TO.N,N/C*%
X83100000Y-54750000D03*
%TO.P,J7,B7*%
%TO.N,USB_CONN_D-*%
X83950000Y-54750000D03*
%TO.P,J7,B9*%
%TO.N,Net-(F2-Pad2)*%
X82250000Y-54750000D03*
%TO.P,J7,A12*%
%TO.N,GND*%
X87350000Y-56100000D03*
%TO.P,J7,A9*%
%TO.N,Net-(F2-Pad2)*%
X86500000Y-56100000D03*
%TO.P,J7,A8*%
%TO.N,N/C*%
X85650000Y-56100000D03*
%TO.P,J7,A7*%
%TO.N,USB_CONN_D-*%
X84800000Y-56100000D03*
%TO.P,J7,A6*%
%TO.N,USB_CONN_D+*%
X83950000Y-56100000D03*
%TO.P,J7,A5*%
%TO.N,Net-(J7-PadA5)*%
X83100000Y-56100000D03*
%TO.P,J7,A4*%
%TO.N,Net-(F2-Pad2)*%
X82250000Y-56100000D03*
%TO.P,J7,A1*%
%TO.N,GND*%
X81400000Y-56100000D03*
%TD*%
D18*
%TO.P,J6,2*%
%TO.N,VS1*%
X44000000Y-89120000D03*
D19*
%TO.P,J6,1*%
%TO.N,GND*%
X44000000Y-94200000D03*
%TD*%
D20*
%TO.P,J5,4*%
%TO.N,VDC*%
X47100000Y-82500000D03*
%TO.P,J5,3*%
%TO.N,SDA*%
X47100000Y-80000000D03*
%TO.P,J5,2*%
%TO.N,SCL*%
X47100000Y-77500000D03*
%TO.P,J5,1*%
%TO.N,GND*%
%TA.AperFunction,ComponentPad*%
G36*
G01*
X46425000Y-74150000D02*
X47775000Y-74150000D01*
G75*
G02*
X48025000Y-74400000I0J-250000D01*
G01*
X48025000Y-75600000D01*
G75*
G02*
X47775000Y-75850000I-250000J0D01*
G01*
X46425000Y-75850000D01*
G75*
G02*
X46175000Y-75600000I0J250000D01*
G01*
X46175000Y-74400000D01*
G75*
G02*
X46425000Y-74150000I250000J0D01*
G01*
G37*
%TD.AperFunction*%
%TD*%
D12*
%TO.P,J4,4*%
%TO.N,Net-(J4-Pad4)*%
X85120000Y-100900000D03*
%TO.P,J4,3*%
%TO.N,Net-(J4-Pad3)*%
X82580000Y-100900000D03*
%TO.P,J4,2*%
%TO.N,Net-(J4-Pad2)*%
X80040000Y-100900000D03*
D13*
%TO.P,J4,1*%
%TO.N,Net-(J4-Pad1)*%
X77500000Y-100900000D03*
%TD*%
D20*
%TO.P,J3,4*%
%TO.N,VDC*%
X47100000Y-68500000D03*
%TO.P,J3,3*%
%TO.N,Net-(J3-Pad3)*%
X47100000Y-66000000D03*
%TO.P,J3,2*%
%TO.N,Net-(J3-Pad2)*%
X47100000Y-63500000D03*
%TO.P,J3,1*%
%TO.N,GND*%
%TA.AperFunction,ComponentPad*%
G36*
G01*
X46425000Y-60150000D02*
X47775000Y-60150000D01*
G75*
G02*
X48025000Y-60400000I0J-250000D01*
G01*
X48025000Y-61600000D01*
G75*
G02*
X47775000Y-61850000I-250000J0D01*
G01*
X46425000Y-61850000D01*
G75*
G02*
X46175000Y-61600000I0J250000D01*
G01*
X46175000Y-60400000D01*
G75*
G02*
X46425000Y-60150000I250000J0D01*
G01*
G37*
%TD.AperFunction*%
%TD*%
D12*
%TO.P,J2,2*%
%TO.N,Net-(J2-Pad2)*%
X51700000Y-66040000D03*
D13*
%TO.P,J2,1*%
%TO.N,Net-(J2-Pad1)*%
X51700000Y-63500000D03*
%TD*%
D12*
%TO.P,J1,4*%
%TO.N,Net-(J1-Pad4)*%
X62520000Y-100900000D03*
%TO.P,J1,3*%
%TO.N,Net-(J1-Pad3)*%
X59980000Y-100900000D03*
%TO.P,J1,2*%
%TO.N,Net-(J1-Pad2)*%
X57440000Y-100900000D03*
D13*
%TO.P,J1,1*%
%TO.N,Net-(J1-Pad1)*%
X54900000Y-100900000D03*
%TD*%
D21*
%TO.P,H4,1*%
%TO.N,GND*%
X43500000Y-53500000D03*
%TD*%
%TO.P,H3,1*%
%TO.N,GND*%
X43500000Y-102500000D03*
%TD*%
%TO.P,H2,1*%
%TO.N,GND*%
X101500000Y-102500000D03*
%TD*%
%TO.P,H1,1*%
%TO.N,GND*%
X101500000Y-53500000D03*
%TD*%
D22*
%TO.N,*%
X45600000Y-65800000D03*
D23*
%TO.N,GND*%
X53400000Y-56200000D03*
X60200000Y-59800000D03*
X61800000Y-65200000D03*
X57600000Y-69400000D03*
X84300000Y-60344949D03*
X69600000Y-67800000D03*
X63400000Y-68800000D03*
X81800000Y-67200000D03*
X63400000Y-74800000D03*
X62200000Y-76500000D03*
X64200000Y-56000000D03*
X66200000Y-56000000D03*
X68187347Y-56012653D03*
X91500000Y-68400000D03*
X89400000Y-68300000D03*
X90400000Y-72900000D03*
X89400000Y-73800000D03*
D22*
X67400000Y-80000000D03*
X68500000Y-84800000D03*
X76100000Y-82400000D03*
X77500000Y-80500000D03*
X50500000Y-87800000D03*
X69200000Y-87300000D03*
X51300000Y-92400000D03*
X53100000Y-92400000D03*
X61500000Y-98000000D03*
X83000000Y-97800000D03*
X74900000Y-92200000D03*
X73000000Y-92200000D03*
X90700000Y-87400000D03*
X71700000Y-87500000D03*
X56700000Y-71500000D03*
X59650002Y-73800000D03*
X63000000Y-72300000D03*
X96100000Y-83200000D03*
X94700000Y-83200000D03*
X68800000Y-79000000D03*
D23*
X74100000Y-103700000D03*
X74100000Y-101200000D03*
X74200000Y-98700000D03*
X74300000Y-96500000D03*
X64400000Y-97300000D03*
X97500000Y-85900000D03*
X97500000Y-88500000D03*
X97500000Y-91000000D03*
X97500000Y-93600000D03*
X97500000Y-96200000D03*
X68376699Y-89400000D03*
X59300000Y-98200000D03*
X90800000Y-89100000D03*
X80700000Y-98000000D03*
X91100000Y-57400000D03*
X83000000Y-68300000D03*
X93500000Y-68100000D03*
X50500000Y-103400000D03*
D22*
X49900000Y-102500000D03*
X48500000Y-101300000D03*
X48300000Y-100000000D03*
X48200000Y-98800000D03*
X46700000Y-98800000D03*
X44200000Y-98000000D03*
X41800000Y-98100000D03*
X53300000Y-94300000D03*
X55700000Y-96200000D03*
X57200000Y-97200000D03*
X54000000Y-95800000D03*
X54500000Y-93700000D03*
X53200000Y-98100000D03*
X51300000Y-96100000D03*
X51700000Y-99000000D03*
X46900000Y-97400000D03*
X47100000Y-94000000D03*
X48500000Y-91500000D03*
X42200000Y-91300000D03*
X41600000Y-89000000D03*
X42200000Y-87300000D03*
X43200000Y-85900000D03*
X46400000Y-85500000D03*
X49800000Y-85300000D03*
X51400000Y-84800000D03*
X52300000Y-84000000D03*
X55100000Y-83100000D03*
X50100000Y-83000000D03*
X43900000Y-83000000D03*
X41900000Y-81600000D03*
X41400000Y-83300000D03*
X43100000Y-81500000D03*
X42100000Y-79900000D03*
X41700000Y-77500000D03*
X41500000Y-75400000D03*
X41700000Y-74500000D03*
X42100000Y-73000000D03*
X45000000Y-75300000D03*
X45300000Y-77700000D03*
X46000000Y-72400000D03*
X47600000Y-71000000D03*
X49300000Y-70200000D03*
X49900000Y-74200000D03*
X50600000Y-75600000D03*
X51900000Y-73600000D03*
X53700000Y-71400000D03*
X52400000Y-70000000D03*
X50900000Y-71700000D03*
X58700000Y-78900000D03*
X60100000Y-79300000D03*
X60300000Y-77900000D03*
X58900000Y-77300000D03*
X58600000Y-76000000D03*
X60000000Y-76100000D03*
X61600000Y-75700000D03*
X55000000Y-75100000D03*
X41700000Y-69300000D03*
X43700000Y-69200000D03*
X44300000Y-67200000D03*
X43500000Y-64700000D03*
X42400000Y-67500000D03*
X44200000Y-60800000D03*
X43500000Y-62700000D03*
X41800000Y-63200000D03*
X42100000Y-60700000D03*
X43500000Y-60000000D03*
X42000000Y-57700000D03*
X45400000Y-57300000D03*
X48200000Y-54900000D03*
X47400000Y-56600000D03*
X49600000Y-57200000D03*
X51500000Y-58000000D03*
X53800000Y-58600000D03*
X55900000Y-58900000D03*
X52300000Y-60000000D03*
X50700000Y-60100000D03*
X50200000Y-58300000D03*
X50200000Y-53900000D03*
X48900000Y-52000000D03*
X59800000Y-57100000D03*
X60000000Y-57800000D03*
X60100000Y-63100000D03*
X60600000Y-66300000D03*
X69000000Y-73600000D03*
X71900000Y-74700000D03*
X75100000Y-75000000D03*
X75600000Y-71400000D03*
X70300000Y-72600000D03*
X72700000Y-67900000D03*
X81000000Y-60100000D03*
X80300000Y-62600000D03*
X77200000Y-62100000D03*
X76400000Y-61100000D03*
X78800000Y-60600000D03*
X79000000Y-59100000D03*
X77700000Y-57500000D03*
X78700000Y-65500000D03*
X80300000Y-64700000D03*
X81400000Y-65400000D03*
X82700000Y-65600000D03*
X86100000Y-65800000D03*
X85700000Y-67900000D03*
X86300000Y-67200000D03*
X85400000Y-66200000D03*
X84000000Y-71600000D03*
X82400000Y-71800000D03*
X81400000Y-71100000D03*
X84300000Y-73600000D03*
X83000000Y-75700000D03*
X82700000Y-73800000D03*
X83700000Y-72900000D03*
X85700000Y-72300000D03*
X86200000Y-71000000D03*
X85000000Y-72200000D03*
X85900000Y-76300000D03*
X83900000Y-77800000D03*
X85400000Y-79200000D03*
X88200000Y-78800000D03*
X89600000Y-77700000D03*
X88700000Y-76400000D03*
X87800000Y-75400000D03*
X91800000Y-76300000D03*
X89400000Y-79000000D03*
X93100000Y-79000000D03*
X93700000Y-79000000D03*
X92300000Y-78200000D03*
X94100000Y-77700000D03*
X90300000Y-83200000D03*
X90000000Y-84100000D03*
X91200000Y-84700000D03*
X91800000Y-83600000D03*
X92000000Y-82900000D03*
X90000000Y-84500000D03*
X65600000Y-101900000D03*
X66700000Y-101700000D03*
X65300000Y-101100000D03*
X67100000Y-100500000D03*
X66700000Y-95700000D03*
X67500000Y-96200000D03*
X66300000Y-96900000D03*
X66000000Y-93000000D03*
X70700000Y-93900000D03*
X70300000Y-92500000D03*
X75100000Y-93200000D03*
X75300000Y-94300000D03*
X77400000Y-93300000D03*
X78300000Y-97500000D03*
X79100000Y-98400000D03*
X76100000Y-98300000D03*
X74500000Y-100000000D03*
X84900000Y-96300000D03*
X84400000Y-95200000D03*
X85800000Y-95800000D03*
X88500000Y-85600000D03*
X88500000Y-82500000D03*
X89600000Y-94200000D03*
X90500000Y-96700000D03*
X89100000Y-98300000D03*
X88600000Y-100900000D03*
X87900000Y-99500000D03*
X90700000Y-98100000D03*
X91800000Y-95800000D03*
X91000000Y-93400000D03*
X89200000Y-95800000D03*
X88600000Y-93300000D03*
X90800000Y-103800000D03*
X93100000Y-103000000D03*
X95200000Y-103400000D03*
X95800000Y-100800000D03*
X93900000Y-100000000D03*
X92500000Y-101400000D03*
X96600000Y-99200000D03*
X99500000Y-99100000D03*
X98900000Y-97800000D03*
X98500000Y-96100000D03*
X100000000Y-96500000D03*
X101700000Y-97400000D03*
X102800000Y-96500000D03*
X102000000Y-94800000D03*
X100000000Y-94200000D03*
X99400000Y-92700000D03*
X100500000Y-92300000D03*
X102000000Y-92500000D03*
X102200000Y-90700000D03*
X101300000Y-90000000D03*
X99500000Y-90000000D03*
X99500000Y-88100000D03*
X100200000Y-87900000D03*
X101800000Y-87900000D03*
X102600000Y-85700000D03*
X102600000Y-85300000D03*
X100000000Y-86000000D03*
X98700000Y-85700000D03*
X99500000Y-84100000D03*
X102400000Y-81700000D03*
X99900000Y-82500000D03*
X97700000Y-82200000D03*
X102000000Y-83500000D03*
X100300000Y-81500000D03*
X97600000Y-79700000D03*
X101300000Y-79100000D03*
X103000000Y-78200000D03*
X103100000Y-75900000D03*
X101800000Y-77400000D03*
X98300000Y-77900000D03*
X96100000Y-77000000D03*
X94200000Y-75200000D03*
X93200000Y-74700000D03*
X92500000Y-73700000D03*
X98300000Y-72400000D03*
X98400000Y-67900000D03*
X95500000Y-55100000D03*
X95200000Y-56500000D03*
X96000000Y-58200000D03*
X99300000Y-59000000D03*
X101000000Y-59200000D03*
X102900000Y-63900000D03*
X101100000Y-62100000D03*
X102400000Y-60300000D03*
X102700000Y-59400000D03*
X96700000Y-59500000D03*
X94400000Y-59200000D03*
X92400000Y-55600000D03*
X90800000Y-54900000D03*
X91600000Y-54100000D03*
X93100000Y-53300000D03*
X93100000Y-51800000D03*
X95400000Y-51800000D03*
X96800000Y-53100000D03*
X97900000Y-56100000D03*
X94000000Y-57600000D03*
D23*
%TO.N,VS1*%
X67300000Y-92300000D03*
X71700000Y-88900000D03*
X50650000Y-89821143D03*
X68800000Y-98500000D03*
X93300000Y-97800000D03*
%TO.N,+3V3*%
X57800000Y-56200000D03*
X60200000Y-61200000D03*
X59200000Y-67600000D03*
X67400000Y-66400000D03*
X65200000Y-68000000D03*
X79400000Y-67200000D03*
X61400000Y-78900000D03*
X62600000Y-56500000D03*
X91500000Y-71900000D03*
X92400000Y-71000000D03*
D22*
X76084223Y-76484061D03*
X77500000Y-77700000D03*
X69100000Y-80500000D03*
X55400000Y-94900000D03*
X57441920Y-82826915D03*
X68500000Y-81400000D03*
X63500000Y-84300000D03*
X77000000Y-94500000D03*
X78325000Y-93700000D03*
X79000000Y-82900000D03*
X54200000Y-76600000D03*
X55100000Y-76600000D03*
X84900000Y-84200000D03*
X58600000Y-56800000D03*
%TO.N,NRST*%
X75900000Y-68200000D03*
X76994260Y-64710375D03*
%TO.N,+5V*%
X86600000Y-64200000D03*
X65600000Y-63600000D03*
%TO.N,VBAT*%
X82800000Y-81300000D03*
X79200000Y-81300000D03*
D23*
%TO.N,VDC*%
X93200000Y-70000000D03*
D22*
%TO.N,Net-(J4-Pad4)*%
X86900000Y-86700000D03*
%TO.N,Net-(J4-Pad3)*%
X86800000Y-88300000D03*
%TO.N,Net-(J4-Pad2)*%
X75400000Y-88600000D03*
%TO.N,Net-(J4-Pad1)*%
X75500000Y-86600000D03*
%TO.N,SDA*%
X74900000Y-80000000D03*
X52900000Y-81400000D03*
%TO.N,SCL*%
X74300000Y-79375000D03*
X56400000Y-80200000D03*
D23*
%TO.N,Net-(J7-PadB5)*%
X85800000Y-53200000D03*
D22*
%TO.N,ERR1*%
X58100000Y-94900000D03*
X72600020Y-82314759D03*
%TO.N,ERR2*%
X76500000Y-84800000D03*
X78400000Y-95300000D03*
%TO.N,REF2*%
X70575000Y-83600000D03*
X70399999Y-85900000D03*
%TO.N,REF1*%
X65600000Y-85700000D03*
X59400000Y-94100000D03*
%TO.N,EN1*%
X69295261Y-85824990D03*
X58599997Y-94100000D03*
%TD*%
D24*
%TO.N,VS1*%
X44000000Y-89120000D02*
X47720000Y-89120000D01*
X49948857Y-89120000D02*
X50650000Y-89821143D01*
X47720000Y-89120000D02*
X49948857Y-89120000D01*
X68300000Y-92300000D02*
X67300000Y-92300000D01*
X71700000Y-88900000D02*
X68300000Y-92300000D01*
X68800000Y-92800000D02*
X68300000Y-92300000D01*
X67100000Y-103700000D02*
X68800000Y-102000000D01*
X54739998Y-103700000D02*
X67100000Y-103700000D01*
X49948857Y-98908859D02*
X54739998Y-103700000D01*
X49948857Y-89120000D02*
X49948857Y-98908859D01*
X68800000Y-98500000D02*
X68800000Y-92800000D01*
X68800000Y-102000000D02*
X68800000Y-98500000D01*
X69250001Y-102450001D02*
X75250001Y-102450001D01*
X68800000Y-102000000D02*
X69250001Y-102450001D01*
X75250001Y-102450001D02*
X76200000Y-103400000D01*
X87700000Y-103400000D02*
X93300000Y-97800000D01*
X76200000Y-103400000D02*
X87700000Y-103400000D01*
D25*
%TO.N,NRST*%
X75900000Y-68200000D02*
X77300000Y-66800000D01*
X77300000Y-65016115D02*
X76994260Y-64710375D01*
X77300000Y-66800000D02*
X77300000Y-65016115D01*
%TO.N,+5V*%
X86000000Y-63600000D02*
X65600000Y-63600000D01*
X86600000Y-64200000D02*
X86000000Y-63600000D01*
D26*
%TO.N,VBAT*%
X82800000Y-81300000D02*
X79200000Y-81300000D01*
D24*
%TO.N,VDC*%
X47100000Y-68500000D02*
X46300000Y-68500000D01*
X46300000Y-68500000D02*
X43400000Y-71400000D01*
X43400000Y-78800000D02*
X47100000Y-82500000D01*
X43400000Y-71400000D02*
X43400000Y-78800000D01*
X84600001Y-69900001D02*
X84600003Y-69899999D01*
X62299999Y-69328001D02*
X62871999Y-69900001D01*
X62871999Y-69900001D02*
X84600001Y-69900001D01*
X47100000Y-68500000D02*
X47300001Y-68299999D01*
X47300001Y-68299999D02*
X58128001Y-68299999D01*
X58128001Y-68299999D02*
X59156003Y-69328001D01*
X59156003Y-69328001D02*
X62299999Y-69328001D01*
X84600003Y-69899999D02*
X92700001Y-69899999D01*
X93099999Y-69899999D02*
X93200000Y-70000000D01*
X92700001Y-69899999D02*
X93099999Y-69899999D01*
D25*
%TO.N,Net-(J4-Pad4)*%
X87450001Y-98569999D02*
X85120000Y-100900000D01*
X87450001Y-87250001D02*
X87450001Y-98569999D01*
X86900000Y-86700000D02*
X87450001Y-87250001D01*
%TO.N,Net-(J4-Pad3)*%
X82580000Y-100900000D02*
X86800000Y-96680000D01*
X86800000Y-96680000D02*
X86800000Y-88300000D01*
%TO.N,Net-(J4-Pad2)*%
X75400000Y-88600000D02*
X74000000Y-90000000D01*
X74000000Y-94860000D02*
X80040000Y-100900000D01*
X74000000Y-90000000D02*
X74000000Y-94860000D01*
%TO.N,Net-(J4-Pad1)*%
X72349999Y-95749999D02*
X77500000Y-100900000D01*
X72349999Y-89750001D02*
X72349999Y-95749999D01*
X75500000Y-86600000D02*
X72349999Y-89750001D01*
D26*
%TO.N,SDA*%
X49125001Y-82025001D02*
X47100000Y-80000000D01*
X73989777Y-80000000D02*
X71964776Y-82025001D01*
X74900000Y-80000000D02*
X73989777Y-80000000D01*
X52900000Y-81400000D02*
X52900000Y-82000000D01*
X52874999Y-82025001D02*
X49125001Y-82025001D01*
X52900000Y-82000000D02*
X52874999Y-82025001D01*
X71964776Y-82025001D02*
X52874999Y-82025001D01*
%TO.N,SCL*%
X68450003Y-79874999D02*
X67700001Y-80625001D01*
X73375737Y-79874999D02*
X68450003Y-79874999D01*
X73875736Y-79375000D02*
X73375737Y-79874999D01*
X74300000Y-79375000D02*
X73875736Y-79375000D01*
X56400000Y-80200000D02*
X56400000Y-80500000D01*
X56274999Y-80625001D02*
X50225001Y-80625001D01*
X56400000Y-80500000D02*
X56274999Y-80625001D01*
X67700001Y-80625001D02*
X56274999Y-80625001D01*
X50225001Y-80625001D02*
X47100000Y-77500000D01*
%TO.N,USB_CONN_D+*%
X83950000Y-55605026D02*
X83950000Y-56100000D01*
X84130027Y-55424999D02*
X83950000Y-55605026D01*
X84775001Y-55424999D02*
X84130027Y-55424999D01*
X84800000Y-55400000D02*
X84775001Y-55424999D01*
X84800000Y-54750000D02*
X84800000Y-55400000D01*
%TO.N,Net-(J7-PadB5)*%
X85800000Y-54600000D02*
X85650000Y-54750000D01*
X85800000Y-53200000D02*
X85800000Y-54600000D01*
%TO.N,ERR1*%
X67831660Y-87925001D02*
X60581650Y-95175011D01*
X69500001Y-87925001D02*
X67831660Y-87925001D01*
X72600020Y-84824982D02*
X69500001Y-87925001D01*
X58375011Y-95175011D02*
X58100000Y-94900000D01*
X60581650Y-95175011D02*
X58375011Y-95175011D01*
X72600020Y-82314759D02*
X72600020Y-84824982D01*
D25*
%TO.N,ERR2*%
X76349999Y-94812001D02*
X76837998Y-95300000D01*
X76349999Y-92987003D02*
X76349999Y-94812001D01*
X76500000Y-92837002D02*
X76349999Y-92987003D01*
X76500000Y-84800000D02*
X76500000Y-92837002D01*
X76837998Y-95300000D02*
X78400000Y-95300000D01*
%TO.N,REF2*%
X70575000Y-83600000D02*
X70600000Y-83625000D01*
X70575000Y-85724999D02*
X70399999Y-85900000D01*
X70575000Y-83600000D02*
X70575000Y-85724999D01*
D26*
%TO.N,REF1*%
X65600000Y-85700000D02*
X63500000Y-85700000D01*
X63500000Y-85700000D02*
X62600000Y-86600000D01*
X62600000Y-91085002D02*
X62285002Y-91400000D01*
X62600000Y-86600000D02*
X62600000Y-91085002D01*
X62100000Y-91400000D02*
X59400000Y-94100000D01*
X62285002Y-91400000D02*
X62100000Y-91400000D01*
%TO.N,EN1*%
X58599997Y-94224999D02*
X58599997Y-94100000D01*
X59099999Y-94725001D02*
X58599997Y-94224999D01*
X60395250Y-94725001D02*
X59099999Y-94725001D01*
X69295261Y-85824990D02*
X60395250Y-94725001D01*
%TD*%
D27*
%TO.N,GND*%
X79096191Y-50807455D02*
X79010624Y-51003767D01*
X78965000Y-51213000D01*
X78965000Y-51613000D01*
X79923000Y-51613000D01*
X79923000Y-51593000D01*
X80177000Y-51593000D01*
X80177000Y-51613000D01*
X81135000Y-51613000D01*
X81135000Y-51213000D01*
X81089376Y-51003767D01*
X81003809Y-50807455D01*
X80901320Y-50660000D01*
X87848680Y-50660000D01*
X87746191Y-50807455D01*
X87660624Y-51003767D01*
X87615000Y-51213000D01*
X87615000Y-51613000D01*
X88573000Y-51613000D01*
X88573000Y-51593000D01*
X88827000Y-51593000D01*
X88827000Y-51613000D01*
X89785000Y-51613000D01*
X89785000Y-51213000D01*
X89739376Y-51003767D01*
X89653809Y-50807455D01*
X89551320Y-50660000D01*
X99081057Y-50660000D01*
X98978724Y-50799119D01*
X101500000Y-53320395D01*
X101514143Y-53306253D01*
X101693748Y-53485858D01*
X101679605Y-53500000D01*
X104200881Y-56021276D01*
X104338644Y-55919940D01*
X104339930Y-100081005D01*
X104200881Y-99978724D01*
X101679605Y-102500000D01*
X101693748Y-102514143D01*
X101514143Y-102693748D01*
X101500000Y-102679605D01*
X98978724Y-105200881D01*
X99081056Y-105339999D01*
X45918943Y-105340001D01*
X46021276Y-105200881D01*
X43500000Y-102679605D01*
X43485858Y-102693748D01*
X43306253Y-102514143D01*
X43320395Y-102500000D01*
X43679605Y-102500000D01*
X46200881Y-105021276D01*
X46690548Y-104661088D01*
X47050849Y-103997118D01*
X47274694Y-103275615D01*
X47353480Y-102524305D01*
X47284178Y-101772062D01*
X47069452Y-101047792D01*
X46717555Y-100379330D01*
X46690548Y-100338912D01*
X46200881Y-99978724D01*
X43679605Y-102500000D01*
X43320395Y-102500000D01*
X40799119Y-99978724D01*
X40660000Y-100081057D01*
X40660000Y-99799119D01*
X40978724Y-99799119D01*
X43500000Y-102320395D01*
X46021276Y-99799119D01*
X45661088Y-99309452D01*
X44997118Y-98949151D01*
X44275615Y-98725306D01*
X43524305Y-98646520D01*
X42772062Y-98715822D01*
X42047792Y-98930548D01*
X41379330Y-99282445D01*
X41338912Y-99309452D01*
X40978724Y-99799119D01*
X40660000Y-99799119D01*
X40660000Y-95700000D01*
X41861928Y-95700000D01*
X41874188Y-95824482D01*
X41910498Y-95944180D01*
X41969463Y-96054494D01*
X42048815Y-96151185D01*
X42145506Y-96230537D01*
X42255820Y-96289502D01*
X42375518Y-96325812D01*
X42500000Y-96338072D01*
X43714250Y-96335000D01*
X43873000Y-96176250D01*
X43873000Y-94327000D01*
X44127000Y-94327000D01*
X44127000Y-96176250D01*
X44285750Y-96335000D01*
X45500000Y-96338072D01*
X45624482Y-96325812D01*
X45744180Y-96289502D01*
X45854494Y-96230537D01*
X45951185Y-96151185D01*
X46030537Y-96054494D01*
X46089502Y-95944180D01*
X46125812Y-95824482D01*
X46138072Y-95700000D01*
X46135000Y-94485750D01*
X45976250Y-94327000D01*
X44127000Y-94327000D01*
X43873000Y-94327000D01*
X42023750Y-94327000D01*
X41865000Y-94485750D01*
X41861928Y-95700000D01*
X40660000Y-95700000D01*
X40660000Y-92700000D01*
X41861928Y-92700000D01*
X41865000Y-93914250D01*
X42023750Y-94073000D01*
X43873000Y-94073000D01*
X43873000Y-92223750D01*
X44127000Y-92223750D01*
X44127000Y-94073000D01*
X45976250Y-94073000D01*
X46135000Y-93914250D01*
X46138072Y-92700000D01*
X46125812Y-92575518D01*
X46089502Y-92455820D01*
X46030537Y-92345506D01*
X45951185Y-92248815D01*
X45854494Y-92169463D01*
X45744180Y-92110498D01*
X45624482Y-92074188D01*
X45500000Y-92061928D01*
X44285750Y-92065000D01*
X44127000Y-92223750D01*
X43873000Y-92223750D01*
X43714250Y-92065000D01*
X42500000Y-92061928D01*
X42375518Y-92074188D01*
X42255820Y-92110498D01*
X42145506Y-92169463D01*
X42048815Y-92248815D01*
X41969463Y-92345506D01*
X41910498Y-92455820D01*
X41874188Y-92575518D01*
X41861928Y-92700000D01*
X40660000Y-92700000D01*
X40660000Y-88909721D01*
X41865000Y-88909721D01*
X41865000Y-89330279D01*
X41947047Y-89742756D01*
X42107988Y-90131302D01*
X42341637Y-90480983D01*
X42639017Y-90778363D01*
X42988698Y-91012012D01*
X43377244Y-91172953D01*
X43789721Y-91255000D01*
X44210279Y-91255000D01*
X44622756Y-91172953D01*
X45011302Y-91012012D01*
X45360983Y-90778363D01*
X45658363Y-90480983D01*
X45809360Y-90255000D01*
X48813857Y-90255000D01*
X48813858Y-98853098D01*
X48808366Y-98908859D01*
X48830280Y-99131357D01*
X48895181Y-99345305D01*
X48937345Y-99424188D01*
X49000574Y-99542482D01*
X49142409Y-99715308D01*
X49185717Y-99750850D01*
X53898011Y-104463146D01*
X53933549Y-104506449D01*
X53976852Y-104541987D01*
X53976854Y-104541989D01*
X54106375Y-104648284D01*
X54303551Y-104753676D01*
X54517499Y-104818577D01*
X54739998Y-104840491D01*
X54795750Y-104835000D01*
X67044249Y-104835000D01*
X67100000Y-104840491D01*
X67155751Y-104835000D01*
X67155752Y-104835000D01*
X67322499Y-104818577D01*
X67536447Y-104753676D01*
X67733623Y-104648284D01*
X67906449Y-104506449D01*
X67941996Y-104463135D01*
X68880996Y-103524136D01*
X69027502Y-103568578D01*
X69250001Y-103590492D01*
X69305753Y-103585001D01*
X74779870Y-103585001D01*
X75358008Y-104163140D01*
X75393551Y-104206449D01*
X75566377Y-104348284D01*
X75763553Y-104453676D01*
X75977501Y-104518577D01*
X76144248Y-104535000D01*
X76144257Y-104535000D01*
X76199999Y-104540490D01*
X76255741Y-104535000D01*
X87644249Y-104535000D01*
X87700000Y-104540491D01*
X87755751Y-104535000D01*
X87755752Y-104535000D01*
X87922499Y-104518577D01*
X88136447Y-104453676D01*
X88333623Y-104348284D01*
X88506449Y-104206449D01*
X88541996Y-104163135D01*
X90229436Y-102475695D01*
X97646520Y-102475695D01*
X97715822Y-103227938D01*
X97930548Y-103952208D01*
X98282445Y-104620670D01*
X98309452Y-104661088D01*
X98799119Y-105021276D01*
X101320395Y-102500000D01*
X98799119Y-99978724D01*
X98309452Y-100338912D01*
X97949151Y-101002882D01*
X97725306Y-101724385D01*
X97646520Y-102475695D01*
X90229436Y-102475695D01*
X92906012Y-99799119D01*
X98978724Y-99799119D01*
X101500000Y-102320395D01*
X104021276Y-99799119D01*
X103661088Y-99309452D01*
X102997118Y-98949151D01*
X102275615Y-98725306D01*
X101524305Y-98646520D01*
X100772062Y-98715822D01*
X100047792Y-98930548D01*
X99379330Y-99282445D01*
X99338912Y-99309452D01*
X98978724Y-99799119D01*
X92906012Y-99799119D01*
X94141988Y-98563144D01*
X94248283Y-98433623D01*
X94353676Y-98236447D01*
X94418577Y-98022499D01*
X94440491Y-97800000D01*
X94418577Y-97577502D01*
X94353676Y-97363554D01*
X94248283Y-97166378D01*
X94106448Y-96993552D01*
X93933622Y-96851717D01*
X93736446Y-96746324D01*
X93522498Y-96681423D01*
X93300000Y-96659509D01*
X93077501Y-96681423D01*
X92863553Y-96746324D01*
X92666377Y-96851717D01*
X92536856Y-96958012D01*
X87229869Y-102265000D01*
X85705090Y-102265000D01*
X85823411Y-102215990D01*
X86066632Y-102053475D01*
X86273475Y-101846632D01*
X86435990Y-101603411D01*
X86547932Y-101333158D01*
X86605000Y-101046260D01*
X86605000Y-100753740D01*
X86567075Y-100563082D01*
X87977817Y-99152341D01*
X88007765Y-99127763D01*
X88105863Y-99008232D01*
X88178755Y-98871859D01*
X88223642Y-98723886D01*
X88235001Y-98608560D01*
X88235001Y-98608553D01*
X88238798Y-98570000D01*
X88235001Y-98531447D01*
X88235001Y-87288557D01*
X88238798Y-87250001D01*
X88235001Y-87211441D01*
X88235001Y-87211440D01*
X88227965Y-87140001D01*
X88223643Y-87096114D01*
X88178755Y-86948141D01*
X88171639Y-86934827D01*
X88105863Y-86811768D01*
X88007765Y-86692237D01*
X87977812Y-86667655D01*
X87814374Y-86504217D01*
X87799068Y-86427271D01*
X87728586Y-86257111D01*
X87626262Y-86103972D01*
X87496028Y-85973738D01*
X87342889Y-85871414D01*
X87172729Y-85800932D01*
X86992089Y-85765000D01*
X86807911Y-85765000D01*
X86627271Y-85800932D01*
X86457111Y-85871414D01*
X86303972Y-85973738D01*
X86173738Y-86103972D01*
X86071414Y-86257111D01*
X86000932Y-86427271D01*
X85965000Y-86607911D01*
X85965000Y-86792089D01*
X86000932Y-86972729D01*
X86071414Y-87142889D01*
X86173738Y-87296028D01*
X86303972Y-87426262D01*
X86366023Y-87467723D01*
X86357111Y-87471414D01*
X86203972Y-87573738D01*
X86073738Y-87703972D01*
X85971414Y-87857111D01*
X85900932Y-88027271D01*
X85865000Y-88207911D01*
X85865000Y-88392089D01*
X85900932Y-88572729D01*
X85971414Y-88742889D01*
X86015001Y-88808122D01*
X86015000Y-96354842D01*
X82916918Y-99452925D01*
X82726260Y-99415000D01*
X82433740Y-99415000D01*
X82146842Y-99472068D01*
X81876589Y-99584010D01*
X81633368Y-99746525D01*
X81426525Y-99953368D01*
X81310000Y-100127760D01*
X81193475Y-99953368D01*
X80986632Y-99746525D01*
X80743411Y-99584010D01*
X80473158Y-99472068D01*
X80186260Y-99415000D01*
X79893740Y-99415000D01*
X79703082Y-99452924D01*
X74785000Y-94534843D01*
X74785000Y-90325157D01*
X75595784Y-89514373D01*
X75672729Y-89499068D01*
X75715001Y-89481559D01*
X75715001Y-92523348D01*
X75694137Y-92548771D01*
X75621245Y-92685144D01*
X75576358Y-92833117D01*
X75564999Y-92948443D01*
X75564999Y-92948450D01*
X75561202Y-92987003D01*
X75564999Y-93025556D01*
X75565000Y-94773439D01*
X75561202Y-94812001D01*
X75576358Y-94965887D01*
X75621245Y-95113860D01*
X75621246Y-95113861D01*
X75694138Y-95250234D01*
X75725789Y-95288800D01*
X75767654Y-95339813D01*
X75767658Y-95339817D01*
X75792236Y-95369765D01*
X75822185Y-95394344D01*
X76255647Y-95827805D01*
X76280234Y-95857764D01*
X76399765Y-95955862D01*
X76527504Y-96024139D01*
X76536138Y-96028754D01*
X76684111Y-96073642D01*
X76759024Y-96081020D01*
X76799437Y-96085000D01*
X76799442Y-96085000D01*
X76837998Y-96088797D01*
X76876554Y-96085000D01*
X77891880Y-96085000D01*
X77957111Y-96128586D01*
X78127271Y-96199068D01*
X78307911Y-96235000D01*
X78492089Y-96235000D01*
X78672729Y-96199068D01*
X78842889Y-96128586D01*
X78996028Y-96026262D01*
X79126262Y-95896028D01*
X79228586Y-95742889D01*
X79299068Y-95572729D01*
X79335000Y-95392089D01*
X79335000Y-95207911D01*
X79299068Y-95027271D01*
X79228586Y-94857111D01*
X79126262Y-94703972D01*
X78996028Y-94573738D01*
X78848171Y-94474943D01*
X78921028Y-94426262D01*
X79051262Y-94296028D01*
X79153586Y-94142889D01*
X79224068Y-93972729D01*
X79260000Y-93792089D01*
X79260000Y-93607911D01*
X79224068Y-93427271D01*
X79153586Y-93257111D01*
X79051262Y-93103972D01*
X78921028Y-92973738D01*
X78767889Y-92871414D01*
X78597729Y-92800932D01*
X78417089Y-92765000D01*
X78232911Y-92765000D01*
X78052271Y-92800932D01*
X77882111Y-92871414D01*
X77728972Y-92973738D01*
X77598738Y-93103972D01*
X77496414Y-93257111D01*
X77425932Y-93427271D01*
X77390000Y-93607911D01*
X77390000Y-93649507D01*
X77272729Y-93600932D01*
X77134999Y-93573535D01*
X77134999Y-93300656D01*
X77155862Y-93275235D01*
X77228754Y-93138862D01*
X77273641Y-92990889D01*
X77285000Y-92875563D01*
X77285000Y-92875556D01*
X77288797Y-92837003D01*
X77285000Y-92798450D01*
X77285000Y-85900000D01*
X78061928Y-85900000D01*
X78065000Y-88114250D01*
X78097856Y-88147106D01*
X78064887Y-88313998D01*
X78065116Y-88488328D01*
X78098039Y-88652711D01*
X78065000Y-88685750D01*
X78061928Y-90900000D01*
X78074188Y-91024482D01*
X78110498Y-91144180D01*
X78169463Y-91254494D01*
X78248815Y-91351185D01*
X78345506Y-91430537D01*
X78455820Y-91489502D01*
X78575518Y-91525812D01*
X78700000Y-91538072D01*
X80914250Y-91535000D01*
X80947106Y-91502144D01*
X81113998Y-91535113D01*
X81288328Y-91534884D01*
X81452711Y-91501961D01*
X81485750Y-91535000D01*
X83700000Y-91538072D01*
X83824482Y-91525812D01*
X83944180Y-91489502D01*
X84054494Y-91430537D01*
X84151185Y-91351185D01*
X84230537Y-91254494D01*
X84289502Y-91144180D01*
X84325812Y-91024482D01*
X84338072Y-90900000D01*
X84335000Y-88685750D01*
X84302144Y-88652894D01*
X84335113Y-88486002D01*
X84334884Y-88311672D01*
X84301961Y-88147289D01*
X84335000Y-88114250D01*
X84338072Y-85900000D01*
X84325812Y-85775518D01*
X84289502Y-85655820D01*
X84230537Y-85545506D01*
X84151185Y-85448815D01*
X84054494Y-85369463D01*
X83944180Y-85310498D01*
X83824482Y-85274188D01*
X83700000Y-85261928D01*
X81485750Y-85265000D01*
X81452894Y-85297856D01*
X81286002Y-85264887D01*
X81111672Y-85265116D01*
X80947289Y-85298039D01*
X80914250Y-85265000D01*
X78700000Y-85261928D01*
X78575518Y-85274188D01*
X78455820Y-85310498D01*
X78345506Y-85369463D01*
X78248815Y-85448815D01*
X78169463Y-85545506D01*
X78110498Y-85655820D01*
X78074188Y-85775518D01*
X78061928Y-85900000D01*
X77285000Y-85900000D01*
X77285000Y-85308120D01*
X77328586Y-85242889D01*
X77399068Y-85072729D01*
X77435000Y-84892089D01*
X77435000Y-84707911D01*
X77399068Y-84527271D01*
X77328586Y-84357111D01*
X77226262Y-84203972D01*
X77130201Y-84107911D01*
X83965000Y-84107911D01*
X83965000Y-84292089D01*
X84000932Y-84472729D01*
X84071414Y-84642889D01*
X84173738Y-84796028D01*
X84303972Y-84926262D01*
X84457111Y-85028586D01*
X84627271Y-85099068D01*
X84807911Y-85135000D01*
X84992089Y-85135000D01*
X85172729Y-85099068D01*
X85342889Y-85028586D01*
X85496028Y-84926262D01*
X85626262Y-84796028D01*
X85728586Y-84642889D01*
X85799068Y-84472729D01*
X85835000Y-84292089D01*
X85835000Y-84107911D01*
X85799068Y-83927271D01*
X85728586Y-83757111D01*
X85626262Y-83603972D01*
X85496028Y-83473738D01*
X85342889Y-83371414D01*
X85172729Y-83300932D01*
X84992089Y-83265000D01*
X84807911Y-83265000D01*
X84627271Y-83300932D01*
X84457111Y-83371414D01*
X84303972Y-83473738D01*
X84173738Y-83603972D01*
X84071414Y-83757111D01*
X84000932Y-83927271D01*
X83965000Y-84107911D01*
X77130201Y-84107911D01*
X77096028Y-84073738D01*
X76942889Y-83971414D01*
X76772729Y-83900932D01*
X76592089Y-83865000D01*
X76407911Y-83865000D01*
X76227271Y-83900932D01*
X76057111Y-83971414D01*
X75903972Y-84073738D01*
X75773738Y-84203972D01*
X75671414Y-84357111D01*
X75600932Y-84527271D01*
X75565000Y-84707911D01*
X75565000Y-84892089D01*
X75600932Y-85072729D01*
X75671414Y-85242889D01*
X75715000Y-85308120D01*
X75715000Y-85689449D01*
X75592089Y-85665000D01*
X75407911Y-85665000D01*
X75227271Y-85700932D01*
X75057111Y-85771414D01*
X74903972Y-85873738D01*
X74773738Y-86003972D01*
X74671414Y-86157111D01*
X74600932Y-86327271D01*
X74585627Y-86404216D01*
X72674471Y-88315372D01*
X72648283Y-88266378D01*
X72506448Y-88093552D01*
X72333622Y-87951717D01*
X72136446Y-87846325D01*
X71922498Y-87781423D01*
X71699999Y-87759509D01*
X71477500Y-87781423D01*
X71263553Y-87846325D01*
X71066377Y-87951717D01*
X70936856Y-88058012D01*
X67829869Y-91165000D01*
X67244248Y-91165000D01*
X67077501Y-91181423D01*
X66863553Y-91246324D01*
X66666377Y-91351716D01*
X66493551Y-91493551D01*
X66351716Y-91666377D01*
X66246324Y-91863553D01*
X66181423Y-92077501D01*
X66159509Y-92300000D01*
X66181423Y-92522499D01*
X66246324Y-92736447D01*
X66351716Y-92933623D01*
X66493551Y-93106449D01*
X66666377Y-93248284D01*
X66863553Y-93353676D01*
X67077501Y-93418577D01*
X67244248Y-93435000D01*
X67665001Y-93435000D01*
X67665000Y-98555751D01*
X67665001Y-98555761D01*
X67665000Y-101529868D01*
X66629869Y-102565000D01*
X55210131Y-102565000D01*
X55033203Y-102388072D01*
X55750000Y-102388072D01*
X55874482Y-102375812D01*
X55994180Y-102339502D01*
X56104494Y-102280537D01*
X56201185Y-102201185D01*
X56280537Y-102104494D01*
X56339502Y-101994180D01*
X56361513Y-101921620D01*
X56493368Y-102053475D01*
X56736589Y-102215990D01*
X57006842Y-102327932D01*
X57293740Y-102385000D01*
X57586260Y-102385000D01*
X57873158Y-102327932D01*
X58143411Y-102215990D01*
X58386632Y-102053475D01*
X58593475Y-101846632D01*
X58710000Y-101672240D01*
X58826525Y-101846632D01*
X59033368Y-102053475D01*
X59276589Y-102215990D01*
X59546842Y-102327932D01*
X59833740Y-102385000D01*
X60126260Y-102385000D01*
X60413158Y-102327932D01*
X60683411Y-102215990D01*
X60926632Y-102053475D01*
X61133475Y-101846632D01*
X61250000Y-101672240D01*
X61366525Y-101846632D01*
X61573368Y-102053475D01*
X61816589Y-102215990D01*
X62086842Y-102327932D01*
X62373740Y-102385000D01*
X62666260Y-102385000D01*
X62953158Y-102327932D01*
X63223411Y-102215990D01*
X63466632Y-102053475D01*
X63673475Y-101846632D01*
X63835990Y-101603411D01*
X63947932Y-101333158D01*
X64005000Y-101046260D01*
X64005000Y-100753740D01*
X63947932Y-100466842D01*
X63835990Y-100196589D01*
X63673475Y-99953368D01*
X63466632Y-99746525D01*
X63223411Y-99584010D01*
X62953158Y-99472068D01*
X62666260Y-99415000D01*
X62373740Y-99415000D01*
X62086842Y-99472068D01*
X61816589Y-99584010D01*
X61573368Y-99746525D01*
X61366525Y-99953368D01*
X61250000Y-100127760D01*
X61133475Y-99953368D01*
X60926632Y-99746525D01*
X60683411Y-99584010D01*
X60413158Y-99472068D01*
X60126260Y-99415000D01*
X59833740Y-99415000D01*
X59546842Y-99472068D01*
X59276589Y-99584010D01*
X59033368Y-99746525D01*
X58826525Y-99953368D01*
X58710000Y-100127760D01*
X58593475Y-99953368D01*
X58386632Y-99746525D01*
X58143411Y-99584010D01*
X57873158Y-99472068D01*
X57586260Y-99415000D01*
X57293740Y-99415000D01*
X57006842Y-99472068D01*
X56736589Y-99584010D01*
X56493368Y-99746525D01*
X56361513Y-99878380D01*
X56339502Y-99805820D01*
X56280537Y-99695506D01*
X56201185Y-99598815D01*
X56104494Y-99519463D01*
X55994180Y-99460498D01*
X55874482Y-99424188D01*
X55750000Y-99411928D01*
X54050000Y-99411928D01*
X53925518Y-99424188D01*
X53805820Y-99460498D01*
X53695506Y-99519463D01*
X53598815Y-99598815D01*
X53519463Y-99695506D01*
X53460498Y-99805820D01*
X53424188Y-99925518D01*
X53411928Y-100050000D01*
X53411928Y-100766798D01*
X51083857Y-98438728D01*
X51083857Y-94807911D01*
X54465000Y-94807911D01*
X54465000Y-94992089D01*
X54500932Y-95172729D01*
X54571414Y-95342889D01*
X54673738Y-95496028D01*
X54803972Y-95626262D01*
X54957111Y-95728586D01*
X55127271Y-95799068D01*
X55307911Y-95835000D01*
X55492089Y-95835000D01*
X55672729Y-95799068D01*
X55842889Y-95728586D01*
X55996028Y-95626262D01*
X56126262Y-95496028D01*
X56228586Y-95342889D01*
X56299068Y-95172729D01*
X56335000Y-94992089D01*
X56335000Y-94807911D01*
X56299068Y-94627271D01*
X56228586Y-94457111D01*
X56126262Y-94303972D01*
X55996028Y-94173738D01*
X55842889Y-94071414D01*
X55672729Y-94000932D01*
X55492089Y-93965000D01*
X55307911Y-93965000D01*
X55127271Y-94000932D01*
X54957111Y-94071414D01*
X54803972Y-94173738D01*
X54673738Y-94303972D01*
X54571414Y-94457111D01*
X54500932Y-94627271D01*
X54465000Y-94807911D01*
X51083857Y-94807911D01*
X51083857Y-90875604D01*
X51086446Y-90874819D01*
X51283622Y-90769426D01*
X51456448Y-90627591D01*
X51598283Y-90454765D01*
X51703676Y-90257589D01*
X51768577Y-90043641D01*
X51790491Y-89821143D01*
X51768577Y-89598644D01*
X51703676Y-89384696D01*
X51598283Y-89187520D01*
X51491988Y-89058000D01*
X50790853Y-88356865D01*
X50755306Y-88313551D01*
X50582480Y-88171716D01*
X50385304Y-88066324D01*
X50171356Y-88001423D01*
X50004609Y-87985000D01*
X50004608Y-87985000D01*
X49948857Y-87979509D01*
X49893105Y-87985000D01*
X45809360Y-87985000D01*
X45658363Y-87759017D01*
X45360983Y-87461637D01*
X45011302Y-87227988D01*
X44622756Y-87067047D01*
X44210279Y-86985000D01*
X43789721Y-86985000D01*
X43377244Y-87067047D01*
X42988698Y-87227988D01*
X42639017Y-87461637D01*
X42341637Y-87759017D01*
X42107988Y-88108698D01*
X41947047Y-88497244D01*
X41865000Y-88909721D01*
X40660000Y-88909721D01*
X40660000Y-71400000D01*
X42259509Y-71400000D01*
X42265000Y-71455752D01*
X42265001Y-78744239D01*
X42259509Y-78800000D01*
X42281423Y-79022498D01*
X42346324Y-79236446D01*
X42366257Y-79273738D01*
X42451717Y-79433623D01*
X42593552Y-79606449D01*
X42636860Y-79641991D01*
X45536961Y-82542093D01*
X45561487Y-82791111D01*
X45646401Y-83071034D01*
X45784294Y-83329014D01*
X45969866Y-83555134D01*
X46195986Y-83740706D01*
X46453966Y-83878599D01*
X46733889Y-83963513D01*
X46952050Y-83985000D01*
X47247950Y-83985000D01*
X47466111Y-83963513D01*
X47746034Y-83878599D01*
X48004014Y-83740706D01*
X48230134Y-83555134D01*
X48415706Y-83329014D01*
X48553599Y-83071034D01*
X48638513Y-82791111D01*
X48655115Y-82622545D01*
X48700724Y-82659975D01*
X48832754Y-82730547D01*
X48976015Y-82774004D01*
X49087668Y-82785001D01*
X49087678Y-82785001D01*
X49125001Y-82788677D01*
X49162324Y-82785001D01*
X52837677Y-82785001D01*
X52874999Y-82788677D01*
X52912321Y-82785001D01*
X56506920Y-82785001D01*
X56506920Y-82919004D01*
X56542852Y-83099644D01*
X56613334Y-83269804D01*
X56715658Y-83422943D01*
X56845892Y-83553177D01*
X56999031Y-83655501D01*
X57169191Y-83725983D01*
X57349831Y-83761915D01*
X57534009Y-83761915D01*
X57714649Y-83725983D01*
X57884809Y-83655501D01*
X58037948Y-83553177D01*
X58168182Y-83422943D01*
X58270506Y-83269804D01*
X58340988Y-83099644D01*
X58376920Y-82919004D01*
X58376920Y-82785001D01*
X70111777Y-82785001D01*
X69978972Y-82873738D01*
X69848738Y-83003972D01*
X69746414Y-83157111D01*
X69675932Y-83327271D01*
X69640000Y-83507911D01*
X69640000Y-83692089D01*
X69675932Y-83872729D01*
X69746414Y-84042889D01*
X69790000Y-84108121D01*
X69790001Y-85031049D01*
X69738150Y-84996404D01*
X69567990Y-84925922D01*
X69387350Y-84889990D01*
X69203172Y-84889990D01*
X69022532Y-84925922D01*
X68852372Y-84996404D01*
X68699233Y-85098728D01*
X68568999Y-85228962D01*
X68466675Y-85382101D01*
X68396193Y-85552261D01*
X68372108Y-85673341D01*
X63360000Y-90685450D01*
X63360000Y-86914801D01*
X63814802Y-86460000D01*
X65054465Y-86460000D01*
X65157111Y-86528586D01*
X65327271Y-86599068D01*
X65507911Y-86635000D01*
X65692089Y-86635000D01*
X65872729Y-86599068D01*
X66042889Y-86528586D01*
X66196028Y-86426262D01*
X66326262Y-86296028D01*
X66428586Y-86142889D01*
X66499068Y-85972729D01*
X66535000Y-85792089D01*
X66535000Y-85607911D01*
X66499068Y-85427271D01*
X66428586Y-85257111D01*
X66326262Y-85103972D01*
X66196028Y-84973738D01*
X66042889Y-84871414D01*
X65872729Y-84800932D01*
X65692089Y-84765000D01*
X65507911Y-84765000D01*
X65327271Y-84800932D01*
X65157111Y-84871414D01*
X65054465Y-84940000D01*
X64182290Y-84940000D01*
X64226262Y-84896028D01*
X64328586Y-84742889D01*
X64399068Y-84572729D01*
X64435000Y-84392089D01*
X64435000Y-84207911D01*
X64399068Y-84027271D01*
X64328586Y-83857111D01*
X64226262Y-83703972D01*
X64096028Y-83573738D01*
X63942889Y-83471414D01*
X63772729Y-83400932D01*
X63592089Y-83365000D01*
X63407911Y-83365000D01*
X63227271Y-83400932D01*
X63057111Y-83471414D01*
X62903972Y-83573738D01*
X62773738Y-83703972D01*
X62671414Y-83857111D01*
X62600932Y-84027271D01*
X62565000Y-84207911D01*
X62565000Y-84392089D01*
X62600932Y-84572729D01*
X62671414Y-84742889D01*
X62773738Y-84896028D01*
X62903972Y-85026262D01*
X63024680Y-85106917D01*
X62959999Y-85159999D01*
X62936201Y-85188997D01*
X62562543Y-85562655D01*
X62551185Y-85548815D01*
X62454494Y-85469463D01*
X62344180Y-85410498D01*
X62224482Y-85374188D01*
X62100000Y-85361928D01*
X59885750Y-85365000D01*
X59852894Y-85397856D01*
X59686002Y-85364887D01*
X59511672Y-85365116D01*
X59347289Y-85398039D01*
X59314250Y-85365000D01*
X57100000Y-85361928D01*
X56975518Y-85374188D01*
X56855820Y-85410498D01*
X56745506Y-85469463D01*
X56648815Y-85548815D01*
X56569463Y-85645506D01*
X56510498Y-85755820D01*
X56474188Y-85875518D01*
X56461928Y-86000000D01*
X56465000Y-88214250D01*
X56497856Y-88247106D01*
X56464887Y-88413998D01*
X56465116Y-88588328D01*
X56498039Y-88752711D01*
X56465000Y-88785750D01*
X56461928Y-91000000D01*
X56474188Y-91124482D01*
X56510498Y-91244180D01*
X56569463Y-91354494D01*
X56648815Y-91451185D01*
X56745506Y-91530537D01*
X56855820Y-91589502D01*
X56975518Y-91625812D01*
X57100000Y-91638072D01*
X59314250Y-91635000D01*
X59347106Y-91602144D01*
X59513998Y-91635113D01*
X59688328Y-91634884D01*
X59852711Y-91601961D01*
X59885750Y-91635000D01*
X60788945Y-91636253D01*
X59248352Y-93176847D01*
X59127271Y-93200932D01*
X58999998Y-93253650D01*
X58872726Y-93200932D01*
X58692086Y-93165000D01*
X58507908Y-93165000D01*
X58327268Y-93200932D01*
X58157108Y-93271414D01*
X58003969Y-93373738D01*
X57873735Y-93503972D01*
X57771411Y-93657111D01*
X57700929Y-93827271D01*
X57664997Y-94007911D01*
X57664997Y-94068148D01*
X57657111Y-94071414D01*
X57503972Y-94173738D01*
X57373738Y-94303972D01*
X57271414Y-94457111D01*
X57200932Y-94627271D01*
X57165000Y-94807911D01*
X57165000Y-94992089D01*
X57200932Y-95172729D01*
X57271414Y-95342889D01*
X57373738Y-95496028D01*
X57503972Y-95626262D01*
X57657111Y-95728586D01*
X57827271Y-95799068D01*
X57991384Y-95831712D01*
X58082764Y-95880557D01*
X58226025Y-95924014D01*
X58337678Y-95935011D01*
X58337687Y-95935011D01*
X58375010Y-95938687D01*
X58412333Y-95935011D01*
X60544328Y-95935011D01*
X60581650Y-95938687D01*
X60618972Y-95935011D01*
X60618983Y-95935011D01*
X60730636Y-95924014D01*
X60873897Y-95880557D01*
X61005926Y-95809985D01*
X61121651Y-95715012D01*
X61145454Y-95686008D01*
X68146463Y-88685001D01*
X69462679Y-88685001D01*
X69500001Y-88688677D01*
X69537323Y-88685001D01*
X69537334Y-88685001D01*
X69648987Y-88674004D01*
X69792248Y-88630547D01*
X69924277Y-88559975D01*
X70040002Y-88465002D01*
X70063805Y-88435998D01*
X73111023Y-85388781D01*
X73140021Y-85364983D01*
X73184736Y-85310498D01*
X73234994Y-85249259D01*
X73305566Y-85117229D01*
X73318076Y-85075988D01*
X73349023Y-84973968D01*
X73360020Y-84862315D01*
X73360020Y-84862305D01*
X73363696Y-84824982D01*
X73360020Y-84787659D01*
X73360020Y-82860294D01*
X73395021Y-82807911D01*
X78065000Y-82807911D01*
X78065000Y-82992089D01*
X78100932Y-83172729D01*
X78171414Y-83342889D01*
X78273738Y-83496028D01*
X78403972Y-83626262D01*
X78557111Y-83728586D01*
X78727271Y-83799068D01*
X78907911Y-83835000D01*
X79092089Y-83835000D01*
X79272729Y-83799068D01*
X79442889Y-83728586D01*
X79596028Y-83626262D01*
X79726262Y-83496028D01*
X79828586Y-83342889D01*
X79899068Y-83172729D01*
X79935000Y-82992089D01*
X79935000Y-82807911D01*
X79899068Y-82627271D01*
X79828586Y-82457111D01*
X79726262Y-82303972D01*
X79596028Y-82173738D01*
X79572246Y-82157847D01*
X79642889Y-82128586D01*
X79745535Y-82060000D01*
X82254465Y-82060000D01*
X82357111Y-82128586D01*
X82527271Y-82199068D01*
X82707911Y-82235000D01*
X82892089Y-82235000D01*
X83072729Y-82199068D01*
X83242889Y-82128586D01*
X83396028Y-82026262D01*
X83526262Y-81896028D01*
X83628586Y-81742889D01*
X83699068Y-81572729D01*
X83735000Y-81392089D01*
X83735000Y-81207911D01*
X83699068Y-81027271D01*
X83628586Y-80857111D01*
X83526262Y-80703972D01*
X83396028Y-80573738D01*
X83242889Y-80471414D01*
X83072729Y-80400932D01*
X82892089Y-80365000D01*
X82707911Y-80365000D01*
X82527271Y-80400932D01*
X82357111Y-80471414D01*
X82254465Y-80540000D01*
X79745535Y-80540000D01*
X79642889Y-80471414D01*
X79472729Y-80400932D01*
X79292089Y-80365000D01*
X79107911Y-80365000D01*
X78927271Y-80400932D01*
X78757111Y-80471414D01*
X78603972Y-80573738D01*
X78473738Y-80703972D01*
X78371414Y-80857111D01*
X78300932Y-81027271D01*
X78265000Y-81207911D01*
X78265000Y-81392089D01*
X78300932Y-81572729D01*
X78371414Y-81742889D01*
X78473738Y-81896028D01*
X78603972Y-82026262D01*
X78627754Y-82042153D01*
X78557111Y-82071414D01*
X78403972Y-82173738D01*
X78273738Y-82303972D01*
X78171414Y-82457111D01*
X78100932Y-82627271D01*
X78065000Y-82807911D01*
X73395021Y-82807911D01*
X73428606Y-82757648D01*
X73499088Y-82587488D01*
X73535020Y-82406848D01*
X73535020Y-82222670D01*
X73499088Y-82042030D01*
X73428606Y-81871870D01*
X73334119Y-81730460D01*
X74304579Y-80760000D01*
X74354465Y-80760000D01*
X74457111Y-80828586D01*
X74627271Y-80899068D01*
X74807911Y-80935000D01*
X74992089Y-80935000D01*
X75172729Y-80899068D01*
X75342889Y-80828586D01*
X75496028Y-80726262D01*
X75626262Y-80596028D01*
X75728586Y-80442889D01*
X75799068Y-80272729D01*
X75835000Y-80092089D01*
X75835000Y-79907911D01*
X75799068Y-79727271D01*
X75728586Y-79557111D01*
X75626262Y-79403972D01*
X75496028Y-79273738D01*
X75342889Y-79171414D01*
X75201143Y-79112701D01*
X75199068Y-79102271D01*
X75128586Y-78932111D01*
X75026262Y-78778972D01*
X74896028Y-78648738D01*
X74742889Y-78546414D01*
X74572729Y-78475932D01*
X74392089Y-78440000D01*
X74207911Y-78440000D01*
X74027271Y-78475932D01*
X73857111Y-78546414D01*
X73739952Y-78624697D01*
X73726750Y-78625997D01*
X73583489Y-78669454D01*
X73451460Y-78740026D01*
X73335735Y-78834999D01*
X73311932Y-78864003D01*
X73060936Y-79114999D01*
X68487325Y-79114999D01*
X68450002Y-79111323D01*
X68412680Y-79114999D01*
X68412670Y-79114999D01*
X68301017Y-79125996D01*
X68157756Y-79169453D01*
X68025726Y-79240025D01*
X67942086Y-79308667D01*
X67910002Y-79334998D01*
X67886204Y-79363997D01*
X67385200Y-79865001D01*
X61774867Y-79865001D01*
X61890256Y-79817205D01*
X62059774Y-79703937D01*
X62203937Y-79559774D01*
X62317205Y-79390256D01*
X62395226Y-79201898D01*
X62435000Y-79001939D01*
X62435000Y-78798061D01*
X62395226Y-78598102D01*
X62317205Y-78409744D01*
X62203937Y-78240226D01*
X62059774Y-78096063D01*
X61890256Y-77982795D01*
X61701898Y-77904774D01*
X61501939Y-77865000D01*
X61298061Y-77865000D01*
X61098102Y-77904774D01*
X60909744Y-77982795D01*
X60740226Y-78096063D01*
X60596063Y-78240226D01*
X60482795Y-78409744D01*
X60404774Y-78598102D01*
X60365000Y-78798061D01*
X60365000Y-79001939D01*
X60404774Y-79201898D01*
X60482795Y-79390256D01*
X60596063Y-79559774D01*
X60740226Y-79703937D01*
X60909744Y-79817205D01*
X61025133Y-79865001D01*
X57273275Y-79865001D01*
X57228586Y-79757111D01*
X57126262Y-79603972D01*
X56996028Y-79473738D01*
X56842889Y-79371414D01*
X56672729Y-79300932D01*
X56492089Y-79265000D01*
X56307911Y-79265000D01*
X56127271Y-79300932D01*
X55957111Y-79371414D01*
X55803972Y-79473738D01*
X55673738Y-79603972D01*
X55571414Y-79757111D01*
X55526725Y-79865001D01*
X50539803Y-79865001D01*
X48598341Y-77923540D01*
X48638513Y-77791111D01*
X48667185Y-77500000D01*
X48638513Y-77208889D01*
X48553599Y-76928966D01*
X48415706Y-76670986D01*
X48281874Y-76507911D01*
X53265000Y-76507911D01*
X53265000Y-76692089D01*
X53300932Y-76872729D01*
X53371414Y-77042889D01*
X53473738Y-77196028D01*
X53603972Y-77326262D01*
X53757111Y-77428586D01*
X53927271Y-77499068D01*
X54107911Y-77535000D01*
X54292089Y-77535000D01*
X54472729Y-77499068D01*
X54642889Y-77428586D01*
X54650000Y-77423835D01*
X54657111Y-77428586D01*
X54827271Y-77499068D01*
X55007911Y-77535000D01*
X55192089Y-77535000D01*
X55372729Y-77499068D01*
X55542889Y-77428586D01*
X55696028Y-77326262D01*
X55826262Y-77196028D01*
X55928586Y-77042889D01*
X55999068Y-76872729D01*
X56035000Y-76692089D01*
X56035000Y-76507911D01*
X56011938Y-76391972D01*
X75149223Y-76391972D01*
X75149223Y-76576150D01*
X75185155Y-76756790D01*
X75255637Y-76926950D01*
X75357961Y-77080089D01*
X75488195Y-77210323D01*
X75641334Y-77312647D01*
X75811494Y-77383129D01*
X75992134Y-77419061D01*
X76176312Y-77419061D01*
X76356952Y-77383129D01*
X76527112Y-77312647D01*
X76680251Y-77210323D01*
X76747834Y-77142740D01*
X76671414Y-77257111D01*
X76600932Y-77427271D01*
X76565000Y-77607911D01*
X76565000Y-77792089D01*
X76600932Y-77972729D01*
X76671414Y-78142889D01*
X76773738Y-78296028D01*
X76903972Y-78426262D01*
X77057111Y-78528586D01*
X77227271Y-78599068D01*
X77407911Y-78635000D01*
X77592089Y-78635000D01*
X77772729Y-78599068D01*
X77942889Y-78528586D01*
X78096028Y-78426262D01*
X78226262Y-78296028D01*
X78328586Y-78142889D01*
X78399068Y-77972729D01*
X78435000Y-77792089D01*
X78435000Y-77607911D01*
X78399068Y-77427271D01*
X78328586Y-77257111D01*
X78226262Y-77103972D01*
X78096028Y-76973738D01*
X77942889Y-76871414D01*
X77772729Y-76800932D01*
X77592089Y-76765000D01*
X77407911Y-76765000D01*
X77227271Y-76800932D01*
X77057111Y-76871414D01*
X76903972Y-76973738D01*
X76836389Y-77041321D01*
X76912809Y-76926950D01*
X76983291Y-76756790D01*
X77019223Y-76576150D01*
X77019223Y-76391972D01*
X76983291Y-76211332D01*
X76912809Y-76041172D01*
X76810485Y-75888033D01*
X76680251Y-75757799D01*
X76527112Y-75655475D01*
X76356952Y-75584993D01*
X76176312Y-75549061D01*
X75992134Y-75549061D01*
X75811494Y-75584993D01*
X75641334Y-75655475D01*
X75488195Y-75757799D01*
X75357961Y-75888033D01*
X75255637Y-76041172D01*
X75185155Y-76211332D01*
X75149223Y-76391972D01*
X56011938Y-76391972D01*
X55999068Y-76327271D01*
X55928586Y-76157111D01*
X55826262Y-76003972D01*
X55696028Y-75873738D01*
X55542889Y-75771414D01*
X55372729Y-75700932D01*
X55192089Y-75665000D01*
X55007911Y-75665000D01*
X54827271Y-75700932D01*
X54657111Y-75771414D01*
X54650000Y-75776165D01*
X54642889Y-75771414D01*
X54472729Y-75700932D01*
X54292089Y-75665000D01*
X54107911Y-75665000D01*
X53927271Y-75700932D01*
X53757111Y-75771414D01*
X53603972Y-75873738D01*
X53473738Y-76003972D01*
X53371414Y-76157111D01*
X53300932Y-76327271D01*
X53265000Y-76507911D01*
X48281874Y-76507911D01*
X48234392Y-76450055D01*
X48269180Y-76439502D01*
X48379494Y-76380537D01*
X48476185Y-76301185D01*
X48555537Y-76204494D01*
X48614502Y-76094180D01*
X48650812Y-75974482D01*
X48663072Y-75850000D01*
X48660000Y-75285750D01*
X48501250Y-75127000D01*
X47227000Y-75127000D01*
X47227000Y-75147000D01*
X46973000Y-75147000D01*
X46973000Y-75127000D01*
X45698750Y-75127000D01*
X45540000Y-75285750D01*
X45536928Y-75850000D01*
X45549188Y-75974482D01*
X45585498Y-76094180D01*
X45644463Y-76204494D01*
X45723815Y-76301185D01*
X45820506Y-76380537D01*
X45930820Y-76439502D01*
X45965608Y-76450055D01*
X45784294Y-76670986D01*
X45646401Y-76928966D01*
X45561487Y-77208889D01*
X45532815Y-77500000D01*
X45561487Y-77791111D01*
X45646401Y-78071034D01*
X45784294Y-78329014D01*
X45969866Y-78555134D01*
X46195986Y-78740706D01*
X46213374Y-78750000D01*
X46195986Y-78759294D01*
X45969866Y-78944866D01*
X45784294Y-79170986D01*
X45646401Y-79428966D01*
X45643537Y-79438406D01*
X44535000Y-78329869D01*
X44535000Y-74150000D01*
X45536928Y-74150000D01*
X45540000Y-74714250D01*
X45698750Y-74873000D01*
X46973000Y-74873000D01*
X46973000Y-73673750D01*
X47227000Y-73673750D01*
X47227000Y-74873000D01*
X48501250Y-74873000D01*
X48660000Y-74714250D01*
X48663072Y-74150000D01*
X48650812Y-74025518D01*
X48614502Y-73905820D01*
X48555537Y-73795506D01*
X48476185Y-73698815D01*
X48379494Y-73619463D01*
X48269180Y-73560498D01*
X48149482Y-73524188D01*
X48025000Y-73511928D01*
X47385750Y-73515000D01*
X47227000Y-73673750D01*
X46973000Y-73673750D01*
X46814250Y-73515000D01*
X46175000Y-73511928D01*
X46050518Y-73524188D01*
X45930820Y-73560498D01*
X45820506Y-73619463D01*
X45723815Y-73698815D01*
X45644463Y-73795506D01*
X45585498Y-73905820D01*
X45549188Y-74025518D01*
X45536928Y-74150000D01*
X44535000Y-74150000D01*
X44535000Y-71870131D01*
X46509643Y-69895489D01*
X46733889Y-69963513D01*
X46952050Y-69985000D01*
X47247950Y-69985000D01*
X47466111Y-69963513D01*
X47746034Y-69878599D01*
X48004014Y-69740706D01*
X48230134Y-69555134D01*
X48328726Y-69434999D01*
X57657870Y-69434999D01*
X58314011Y-70091141D01*
X58349554Y-70134450D01*
X58522380Y-70276285D01*
X58719556Y-70381677D01*
X58933504Y-70446578D01*
X59100251Y-70463001D01*
X59100260Y-70463001D01*
X59156002Y-70468491D01*
X59211744Y-70463001D01*
X61829868Y-70463001D01*
X62030003Y-70663136D01*
X62065550Y-70706450D01*
X62238376Y-70848285D01*
X62435552Y-70953677D01*
X62599704Y-71003472D01*
X62649499Y-71018578D01*
X62871998Y-71040492D01*
X62927750Y-71035001D01*
X84544250Y-71035001D01*
X84600001Y-71040492D01*
X84655752Y-71035001D01*
X84655753Y-71035001D01*
X84655773Y-71034999D01*
X90931615Y-71034999D01*
X90840226Y-71096063D01*
X90696063Y-71240226D01*
X90582795Y-71409744D01*
X90504774Y-71598102D01*
X90465000Y-71798061D01*
X90465000Y-72001939D01*
X90504774Y-72201898D01*
X90582795Y-72390256D01*
X90696063Y-72559774D01*
X90840226Y-72703937D01*
X91009744Y-72817205D01*
X91198102Y-72895226D01*
X91398061Y-72935000D01*
X91601939Y-72935000D01*
X91801898Y-72895226D01*
X91990256Y-72817205D01*
X92159774Y-72703937D01*
X92303937Y-72559774D01*
X92417205Y-72390256D01*
X92495226Y-72201898D01*
X92529515Y-72029515D01*
X92701898Y-71995226D01*
X92890256Y-71917205D01*
X93059774Y-71803937D01*
X93203937Y-71659774D01*
X93317205Y-71490256D01*
X93395226Y-71301898D01*
X93432281Y-71115610D01*
X93636446Y-71053676D01*
X93833622Y-70948284D01*
X94006449Y-70806449D01*
X94148284Y-70633622D01*
X94253676Y-70436446D01*
X94318577Y-70222499D01*
X94340491Y-70000000D01*
X94318577Y-69777502D01*
X94253676Y-69563554D01*
X94148284Y-69366378D01*
X94041988Y-69236857D01*
X93941995Y-69136864D01*
X93906448Y-69093550D01*
X93733622Y-68951715D01*
X93536446Y-68846323D01*
X93322498Y-68781422D01*
X93155751Y-68764999D01*
X93155750Y-68764999D01*
X93099999Y-68759508D01*
X93044248Y-68764999D01*
X84655755Y-68764999D01*
X84600003Y-68759508D01*
X84544252Y-68764999D01*
X84544251Y-68764999D01*
X84544231Y-68765001D01*
X76646994Y-68765001D01*
X76728586Y-68642889D01*
X76799068Y-68472729D01*
X76814374Y-68395784D01*
X77827817Y-67382341D01*
X77857764Y-67357764D01*
X77891051Y-67317205D01*
X77906728Y-67298102D01*
X77955862Y-67238233D01*
X78028754Y-67101860D01*
X78029906Y-67098061D01*
X78365000Y-67098061D01*
X78365000Y-67301939D01*
X78404774Y-67501898D01*
X78482795Y-67690256D01*
X78596063Y-67859774D01*
X78740226Y-68003937D01*
X78909744Y-68117205D01*
X79098102Y-68195226D01*
X79298061Y-68235000D01*
X79501939Y-68235000D01*
X79701898Y-68195226D01*
X79890256Y-68117205D01*
X80059774Y-68003937D01*
X80203937Y-67859774D01*
X80317205Y-67690256D01*
X80395226Y-67501898D01*
X80435000Y-67301939D01*
X80435000Y-67098061D01*
X80395226Y-66898102D01*
X80317205Y-66709744D01*
X80203937Y-66540226D01*
X80059774Y-66396063D01*
X79890256Y-66282795D01*
X79701898Y-66204774D01*
X79501939Y-66165000D01*
X79298061Y-66165000D01*
X79098102Y-66204774D01*
X78909744Y-66282795D01*
X78740226Y-66396063D01*
X78596063Y-66540226D01*
X78482795Y-66709744D01*
X78404774Y-66898102D01*
X78365000Y-67098061D01*
X78029906Y-67098061D01*
X78058205Y-67004774D01*
X78073642Y-66953887D01*
X78081020Y-66878974D01*
X78085000Y-66838561D01*
X78085000Y-66838556D01*
X78088797Y-66800000D01*
X78085000Y-66761445D01*
X78085000Y-65054671D01*
X78088797Y-65016115D01*
X78085000Y-64977559D01*
X78085000Y-64977554D01*
X78081020Y-64937141D01*
X78073642Y-64862228D01*
X78028754Y-64714255D01*
X78023537Y-64704494D01*
X77955862Y-64577882D01*
X77910142Y-64522172D01*
X77893328Y-64437646D01*
X77871521Y-64385000D01*
X85674843Y-64385000D01*
X85685626Y-64395784D01*
X85700932Y-64472729D01*
X85771414Y-64642889D01*
X85873738Y-64796028D01*
X86003972Y-64926262D01*
X86157111Y-65028586D01*
X86327271Y-65099068D01*
X86507911Y-65135000D01*
X86692089Y-65135000D01*
X86872729Y-65099068D01*
X87042889Y-65028586D01*
X87196028Y-64926262D01*
X87326262Y-64796028D01*
X87428586Y-64642889D01*
X87499068Y-64472729D01*
X87535000Y-64292089D01*
X87535000Y-64107911D01*
X87499068Y-63927271D01*
X87428586Y-63757111D01*
X87326262Y-63603972D01*
X87196028Y-63473738D01*
X87042889Y-63371414D01*
X86872729Y-63300932D01*
X86795784Y-63285626D01*
X86582346Y-63072189D01*
X86557764Y-63042236D01*
X86438233Y-62944138D01*
X86301860Y-62871246D01*
X86153887Y-62826359D01*
X86038561Y-62815000D01*
X86038553Y-62815000D01*
X86000000Y-62811203D01*
X85961447Y-62815000D01*
X66108120Y-62815000D01*
X66042889Y-62771414D01*
X65872729Y-62700932D01*
X65692089Y-62665000D01*
X65507911Y-62665000D01*
X65327271Y-62700932D01*
X65157111Y-62771414D01*
X65003972Y-62873738D01*
X64873738Y-63003972D01*
X64771414Y-63157111D01*
X64700932Y-63327271D01*
X64665000Y-63507911D01*
X64665000Y-63692089D01*
X64700932Y-63872729D01*
X64771414Y-64042889D01*
X64873738Y-64196028D01*
X65003972Y-64326262D01*
X65157111Y-64428586D01*
X65327271Y-64499068D01*
X65507911Y-64535000D01*
X65692089Y-64535000D01*
X65872729Y-64499068D01*
X66042889Y-64428586D01*
X66108120Y-64385000D01*
X76116999Y-64385000D01*
X76095192Y-64437646D01*
X76059260Y-64618286D01*
X76059260Y-64802464D01*
X76095192Y-64983104D01*
X76165674Y-65153264D01*
X76267998Y-65306403D01*
X76398232Y-65436637D01*
X76515001Y-65514659D01*
X76515000Y-66474842D01*
X75704216Y-67285626D01*
X75627271Y-67300932D01*
X75457111Y-67371414D01*
X75303972Y-67473738D01*
X75173738Y-67603972D01*
X75071414Y-67757111D01*
X75000932Y-67927271D01*
X74965000Y-68107911D01*
X74965000Y-68292089D01*
X75000932Y-68472729D01*
X75071414Y-68642889D01*
X75153006Y-68765001D01*
X65898710Y-68765001D01*
X66003937Y-68659774D01*
X66117205Y-68490256D01*
X66195226Y-68301898D01*
X66235000Y-68101939D01*
X66235000Y-67898061D01*
X66195226Y-67698102D01*
X66117205Y-67509744D01*
X66003937Y-67340226D01*
X65859774Y-67196063D01*
X65690256Y-67082795D01*
X65501898Y-67004774D01*
X65301939Y-66965000D01*
X65098061Y-66965000D01*
X64898102Y-67004774D01*
X64709744Y-67082795D01*
X64540226Y-67196063D01*
X64396063Y-67340226D01*
X64282795Y-67509744D01*
X64204774Y-67698102D01*
X64165000Y-67898061D01*
X64165000Y-68101939D01*
X64204774Y-68301898D01*
X64282795Y-68490256D01*
X64396063Y-68659774D01*
X64501290Y-68765001D01*
X63342130Y-68765001D01*
X63141995Y-68564866D01*
X63106448Y-68521552D01*
X62933622Y-68379717D01*
X62736446Y-68274325D01*
X62522498Y-68209424D01*
X62355751Y-68193001D01*
X62355750Y-68193001D01*
X62299999Y-68187510D01*
X62244248Y-68193001D01*
X60048553Y-68193001D01*
X60117205Y-68090256D01*
X60195226Y-67901898D01*
X60235000Y-67701939D01*
X60235000Y-67498061D01*
X60195226Y-67298102D01*
X60117205Y-67109744D01*
X60003937Y-66940226D01*
X59859774Y-66796063D01*
X59690256Y-66682795D01*
X59501898Y-66604774D01*
X59301939Y-66565000D01*
X59098061Y-66565000D01*
X58898102Y-66604774D01*
X58709744Y-66682795D01*
X58540226Y-66796063D01*
X58396063Y-66940226D01*
X58282795Y-67109744D01*
X58256922Y-67172205D01*
X58183753Y-67164999D01*
X58183752Y-67164999D01*
X58128001Y-67159508D01*
X58072250Y-67164999D01*
X52675108Y-67164999D01*
X52853475Y-66986632D01*
X53015990Y-66743411D01*
X53127932Y-66473158D01*
X53162761Y-66298061D01*
X66365000Y-66298061D01*
X66365000Y-66501939D01*
X66404774Y-66701898D01*
X66482795Y-66890256D01*
X66596063Y-67059774D01*
X66740226Y-67203937D01*
X66909744Y-67317205D01*
X67098102Y-67395226D01*
X67298061Y-67435000D01*
X67501939Y-67435000D01*
X67701898Y-67395226D01*
X67890256Y-67317205D01*
X68059774Y-67203937D01*
X68203937Y-67059774D01*
X68317205Y-66890256D01*
X68395226Y-66701898D01*
X68435000Y-66501939D01*
X68435000Y-66298061D01*
X68395226Y-66098102D01*
X68317205Y-65909744D01*
X68203937Y-65740226D01*
X68059774Y-65596063D01*
X67890256Y-65482795D01*
X67701898Y-65404774D01*
X67501939Y-65365000D01*
X67298061Y-65365000D01*
X67098102Y-65404774D01*
X66909744Y-65482795D01*
X66740226Y-65596063D01*
X66596063Y-65740226D01*
X66482795Y-65909744D01*
X66404774Y-66098102D01*
X66365000Y-66298061D01*
X53162761Y-66298061D01*
X53185000Y-66186260D01*
X53185000Y-65893740D01*
X53127932Y-65606842D01*
X53015990Y-65336589D01*
X52853475Y-65093368D01*
X52721620Y-64961513D01*
X52794180Y-64939502D01*
X52904494Y-64880537D01*
X53001185Y-64801185D01*
X53080537Y-64704494D01*
X53139502Y-64594180D01*
X53175812Y-64474482D01*
X53188072Y-64350000D01*
X53188072Y-62650000D01*
X53175812Y-62525518D01*
X53139502Y-62405820D01*
X53080537Y-62295506D01*
X53001185Y-62198815D01*
X52904494Y-62119463D01*
X52794180Y-62060498D01*
X52674482Y-62024188D01*
X52550000Y-62011928D01*
X50850000Y-62011928D01*
X50725518Y-62024188D01*
X50605820Y-62060498D01*
X50495506Y-62119463D01*
X50398815Y-62198815D01*
X50319463Y-62295506D01*
X50260498Y-62405820D01*
X50224188Y-62525518D01*
X50211928Y-62650000D01*
X50211928Y-64350000D01*
X50224188Y-64474482D01*
X50260498Y-64594180D01*
X50319463Y-64704494D01*
X50398815Y-64801185D01*
X50495506Y-64880537D01*
X50605820Y-64939502D01*
X50678380Y-64961513D01*
X50546525Y-65093368D01*
X50384010Y-65336589D01*
X50272068Y-65606842D01*
X50215000Y-65893740D01*
X50215000Y-66186260D01*
X50272068Y-66473158D01*
X50384010Y-66743411D01*
X50546525Y-66986632D01*
X50724892Y-67164999D01*
X48096263Y-67164999D01*
X48230134Y-67055134D01*
X48415706Y-66829014D01*
X48553599Y-66571034D01*
X48638513Y-66291111D01*
X48667185Y-66000000D01*
X48638513Y-65708889D01*
X48553599Y-65428966D01*
X48415706Y-65170986D01*
X48230134Y-64944866D01*
X48004014Y-64759294D01*
X47986626Y-64750000D01*
X48004014Y-64740706D01*
X48230134Y-64555134D01*
X48415706Y-64329014D01*
X48553599Y-64071034D01*
X48638513Y-63791111D01*
X48667185Y-63500000D01*
X48638513Y-63208889D01*
X48553599Y-62928966D01*
X48415706Y-62670986D01*
X48234392Y-62450055D01*
X48269180Y-62439502D01*
X48379494Y-62380537D01*
X48476185Y-62301185D01*
X48555537Y-62204494D01*
X48614502Y-62094180D01*
X48650812Y-61974482D01*
X48663072Y-61850000D01*
X48660000Y-61285750D01*
X48501250Y-61127000D01*
X47227000Y-61127000D01*
X47227000Y-61147000D01*
X46973000Y-61147000D01*
X46973000Y-61127000D01*
X45698750Y-61127000D01*
X45540000Y-61285750D01*
X45536928Y-61850000D01*
X45549188Y-61974482D01*
X45585498Y-62094180D01*
X45644463Y-62204494D01*
X45723815Y-62301185D01*
X45820506Y-62380537D01*
X45930820Y-62439502D01*
X45965608Y-62450055D01*
X45784294Y-62670986D01*
X45646401Y-62928966D01*
X45561487Y-63208889D01*
X45532815Y-63500000D01*
X45561487Y-63791111D01*
X45646401Y-64071034D01*
X45784294Y-64329014D01*
X45969866Y-64555134D01*
X46195986Y-64740706D01*
X46213374Y-64750000D01*
X46195986Y-64759294D01*
X45972861Y-64942408D01*
X45872729Y-64900932D01*
X45692089Y-64865000D01*
X45507911Y-64865000D01*
X45327271Y-64900932D01*
X45157111Y-64971414D01*
X45003972Y-65073738D01*
X44873738Y-65203972D01*
X44771414Y-65357111D01*
X44700932Y-65527271D01*
X44665000Y-65707911D01*
X44665000Y-65892089D01*
X44700932Y-66072729D01*
X44771414Y-66242889D01*
X44873738Y-66396028D01*
X45003972Y-66526262D01*
X45157111Y-66628586D01*
X45327271Y-66699068D01*
X45507911Y-66735000D01*
X45692089Y-66735000D01*
X45730011Y-66727457D01*
X45784294Y-66829014D01*
X45969866Y-67055134D01*
X46195986Y-67240706D01*
X46213374Y-67250000D01*
X46195986Y-67259294D01*
X46029387Y-67396018D01*
X45863553Y-67446324D01*
X45666377Y-67551716D01*
X45493551Y-67693551D01*
X45458011Y-67736857D01*
X42636865Y-70558004D01*
X42593551Y-70593551D01*
X42451716Y-70766377D01*
X42371098Y-70917205D01*
X42346324Y-70963554D01*
X42281423Y-71177502D01*
X42259509Y-71400000D01*
X40660000Y-71400000D01*
X40660000Y-61098061D01*
X59165000Y-61098061D01*
X59165000Y-61301939D01*
X59204774Y-61501898D01*
X59282795Y-61690256D01*
X59396063Y-61859774D01*
X59540226Y-62003937D01*
X59709744Y-62117205D01*
X59898102Y-62195226D01*
X60098061Y-62235000D01*
X60301939Y-62235000D01*
X60501898Y-62195226D01*
X60690256Y-62117205D01*
X60859774Y-62003937D01*
X61003937Y-61859774D01*
X61117205Y-61690256D01*
X61195226Y-61501898D01*
X61235000Y-61301939D01*
X61235000Y-61098061D01*
X61195226Y-60898102D01*
X61117205Y-60709744D01*
X61003937Y-60540226D01*
X60859774Y-60396063D01*
X60690256Y-60282795D01*
X60501898Y-60204774D01*
X60301939Y-60165000D01*
X60098061Y-60165000D01*
X59898102Y-60204774D01*
X59709744Y-60282795D01*
X59540226Y-60396063D01*
X59396063Y-60540226D01*
X59282795Y-60709744D01*
X59204774Y-60898102D01*
X59165000Y-61098061D01*
X40660000Y-61098061D01*
X40660000Y-60150000D01*
X45536928Y-60150000D01*
X45540000Y-60714250D01*
X45698750Y-60873000D01*
X46973000Y-60873000D01*
X46973000Y-59673750D01*
X47227000Y-59673750D01*
X47227000Y-60873000D01*
X48501250Y-60873000D01*
X48660000Y-60714250D01*
X48663072Y-60150000D01*
X48650812Y-60025518D01*
X48614502Y-59905820D01*
X48555537Y-59795506D01*
X48476185Y-59698815D01*
X48379494Y-59619463D01*
X48269180Y-59560498D01*
X48149482Y-59524188D01*
X48025000Y-59511928D01*
X47385750Y-59515000D01*
X47227000Y-59673750D01*
X46973000Y-59673750D01*
X46814250Y-59515000D01*
X46175000Y-59511928D01*
X46050518Y-59524188D01*
X45930820Y-59560498D01*
X45820506Y-59619463D01*
X45723815Y-59698815D01*
X45644463Y-59795506D01*
X45585498Y-59905820D01*
X45549188Y-60025518D01*
X45536928Y-60150000D01*
X40660000Y-60150000D01*
X40660000Y-56200881D01*
X40978724Y-56200881D01*
X41338912Y-56690548D01*
X42002882Y-57050849D01*
X42724385Y-57274694D01*
X43475695Y-57353480D01*
X44227938Y-57284178D01*
X44952208Y-57069452D01*
X45620670Y-56717555D01*
X45661088Y-56690548D01*
X46021276Y-56200881D01*
X45918456Y-56098061D01*
X56765000Y-56098061D01*
X56765000Y-56301939D01*
X56804774Y-56501898D01*
X56882795Y-56690256D01*
X56996063Y-56859774D01*
X57140226Y-57003937D01*
X57309744Y-57117205D01*
X57498102Y-57195226D01*
X57698061Y-57235000D01*
X57768146Y-57235000D01*
X57771414Y-57242889D01*
X57873738Y-57396028D01*
X58003972Y-57526262D01*
X58157111Y-57628586D01*
X58327271Y-57699068D01*
X58507911Y-57735000D01*
X58692089Y-57735000D01*
X58872729Y-57699068D01*
X59042889Y-57628586D01*
X59196028Y-57526262D01*
X59326262Y-57396028D01*
X59428586Y-57242889D01*
X59499068Y-57072729D01*
X59535000Y-56892089D01*
X59535000Y-56707911D01*
X59499068Y-56527271D01*
X59445548Y-56398061D01*
X61565000Y-56398061D01*
X61565000Y-56601939D01*
X61604774Y-56801898D01*
X61682795Y-56990256D01*
X61796063Y-57159774D01*
X61940226Y-57303937D01*
X62109744Y-57417205D01*
X62298102Y-57495226D01*
X62498061Y-57535000D01*
X62701939Y-57535000D01*
X62901898Y-57495226D01*
X63090256Y-57417205D01*
X63190835Y-57350000D01*
X70611928Y-57350000D01*
X70611928Y-59050000D01*
X70624188Y-59174482D01*
X70660498Y-59294180D01*
X70719463Y-59404494D01*
X70798815Y-59501185D01*
X70895506Y-59580537D01*
X71005820Y-59639502D01*
X71125518Y-59675812D01*
X71250000Y-59688072D01*
X72950000Y-59688072D01*
X73074482Y-59675812D01*
X73194180Y-59639502D01*
X73304494Y-59580537D01*
X73401185Y-59501185D01*
X73480537Y-59404494D01*
X73539502Y-59294180D01*
X73563966Y-59213534D01*
X73639731Y-59297588D01*
X73873080Y-59471641D01*
X74135901Y-59596825D01*
X74283110Y-59641476D01*
X74513000Y-59520155D01*
X74513000Y-58327000D01*
X74767000Y-58327000D01*
X74767000Y-59520155D01*
X74996890Y-59641476D01*
X75144099Y-59596825D01*
X75406920Y-59471641D01*
X75640269Y-59297588D01*
X75835178Y-59081355D01*
X75984157Y-58831252D01*
X76081481Y-58556891D01*
X75960814Y-58327000D01*
X74767000Y-58327000D01*
X74513000Y-58327000D01*
X74493000Y-58327000D01*
X74493000Y-58073000D01*
X74513000Y-58073000D01*
X74513000Y-56879845D01*
X74767000Y-56879845D01*
X74767000Y-58073000D01*
X75960814Y-58073000D01*
X76081481Y-57843109D01*
X75984157Y-57568748D01*
X75835178Y-57318645D01*
X75640269Y-57102412D01*
X75406920Y-56928359D01*
X75144099Y-56803175D01*
X74996890Y-56758524D01*
X74767000Y-56879845D01*
X74513000Y-56879845D01*
X74283110Y-56758524D01*
X74135901Y-56803175D01*
X73873080Y-56928359D01*
X73639731Y-57102412D01*
X73563966Y-57186466D01*
X73539502Y-57105820D01*
X73480537Y-56995506D01*
X73401185Y-56898815D01*
X73304494Y-56819463D01*
X73194180Y-56760498D01*
X73074482Y-56724188D01*
X72950000Y-56711928D01*
X71250000Y-56711928D01*
X71125518Y-56724188D01*
X71005820Y-56760498D01*
X70895506Y-56819463D01*
X70798815Y-56898815D01*
X70719463Y-56995506D01*
X70660498Y-57105820D01*
X70624188Y-57225518D01*
X70611928Y-57350000D01*
X63190835Y-57350000D01*
X63259774Y-57303937D01*
X63403937Y-57159774D01*
X63517205Y-56990256D01*
X63595226Y-56801898D01*
X63635000Y-56601939D01*
X63635000Y-56398061D01*
X63595226Y-56198102D01*
X63517205Y-56009744D01*
X63403937Y-55840226D01*
X63259774Y-55696063D01*
X63090256Y-55582795D01*
X62901898Y-55504774D01*
X62701939Y-55465000D01*
X62498061Y-55465000D01*
X62298102Y-55504774D01*
X62109744Y-55582795D01*
X61940226Y-55696063D01*
X61796063Y-55840226D01*
X61682795Y-56009744D01*
X61604774Y-56198102D01*
X61565000Y-56398061D01*
X59445548Y-56398061D01*
X59428586Y-56357111D01*
X59326262Y-56203972D01*
X59196028Y-56073738D01*
X59042889Y-55971414D01*
X58872729Y-55900932D01*
X58789544Y-55884385D01*
X58717205Y-55709744D01*
X58603937Y-55540226D01*
X58459774Y-55396063D01*
X58290256Y-55282795D01*
X58203840Y-55247000D01*
X78965000Y-55247000D01*
X78965000Y-55997000D01*
X79010624Y-56206233D01*
X79096191Y-56402545D01*
X79218413Y-56578391D01*
X79372592Y-56727014D01*
X79552803Y-56842702D01*
X79755999Y-56914408D01*
X79923000Y-56787502D01*
X79923000Y-55247000D01*
X78965000Y-55247000D01*
X58203840Y-55247000D01*
X58101898Y-55204774D01*
X57901939Y-55165000D01*
X57698061Y-55165000D01*
X57498102Y-55204774D01*
X57309744Y-55282795D01*
X57140226Y-55396063D01*
X56996063Y-55540226D01*
X56882795Y-55709744D01*
X56804774Y-55898102D01*
X56765000Y-56098061D01*
X45918456Y-56098061D01*
X43500000Y-53679605D01*
X40978724Y-56200881D01*
X40660000Y-56200881D01*
X40660000Y-55918943D01*
X40799119Y-56021276D01*
X43320395Y-53500000D01*
X43679605Y-53500000D01*
X46200881Y-56021276D01*
X46690548Y-55661088D01*
X47050849Y-54997118D01*
X47274694Y-54275615D01*
X47278114Y-54243000D01*
X78965000Y-54243000D01*
X78965000Y-54993000D01*
X79923000Y-54993000D01*
X79923000Y-53452498D01*
X80177000Y-53452498D01*
X80177000Y-54993000D01*
X80443537Y-54993000D01*
X80450368Y-55028989D01*
X80523043Y-55208893D01*
X80531233Y-55224216D01*
X80729480Y-55240912D01*
X80723392Y-55247000D01*
X80177000Y-55247000D01*
X80177000Y-56787502D01*
X80344001Y-56914408D01*
X80547197Y-56842702D01*
X80727408Y-56727014D01*
X80881587Y-56578391D01*
X81003809Y-56402545D01*
X81070225Y-56250170D01*
X81220395Y-56100000D01*
X81206253Y-56085858D01*
X81265000Y-56027110D01*
X81265000Y-56197014D01*
X81301101Y-56378504D01*
X80909088Y-56770517D01*
X80925784Y-56968767D01*
X81104384Y-57044589D01*
X81294344Y-57084110D01*
X81488364Y-57085813D01*
X81678989Y-57049632D01*
X81825651Y-56990385D01*
X81962686Y-57047147D01*
X82152986Y-57085000D01*
X82347014Y-57085000D01*
X82537314Y-57047147D01*
X82675000Y-56990116D01*
X82812686Y-57047147D01*
X83002986Y-57085000D01*
X83197014Y-57085000D01*
X83387314Y-57047147D01*
X83525000Y-56990116D01*
X83662686Y-57047147D01*
X83852986Y-57085000D01*
X84047014Y-57085000D01*
X84237314Y-57047147D01*
X84375000Y-56990116D01*
X84512686Y-57047147D01*
X84702986Y-57085000D01*
X84897014Y-57085000D01*
X85087314Y-57047147D01*
X85225000Y-56990116D01*
X85362686Y-57047147D01*
X85552986Y-57085000D01*
X85747014Y-57085000D01*
X85937314Y-57047147D01*
X86075000Y-56990116D01*
X86212686Y-57047147D01*
X86402986Y-57085000D01*
X86597014Y-57085000D01*
X86787314Y-57047147D01*
X86925542Y-56989891D01*
X87054384Y-57044589D01*
X87244344Y-57084110D01*
X87438364Y-57085813D01*
X87628989Y-57049632D01*
X87808893Y-56976957D01*
X87824216Y-56968767D01*
X87840912Y-56770517D01*
X87448899Y-56378504D01*
X87485000Y-56197014D01*
X87485000Y-56027110D01*
X87543748Y-56085858D01*
X87529605Y-56100000D01*
X87679775Y-56250170D01*
X87746191Y-56402545D01*
X87868413Y-56578391D01*
X88022592Y-56727014D01*
X88202803Y-56842702D01*
X88405999Y-56914408D01*
X88573000Y-56787502D01*
X88573000Y-55247000D01*
X88827000Y-55247000D01*
X88827000Y-56787502D01*
X88994001Y-56914408D01*
X89197197Y-56842702D01*
X89377408Y-56727014D01*
X89531587Y-56578391D01*
X89653809Y-56402545D01*
X89739376Y-56206233D01*
X89740543Y-56200881D01*
X98978724Y-56200881D01*
X99338912Y-56690548D01*
X100002882Y-57050849D01*
X100724385Y-57274694D01*
X101475695Y-57353480D01*
X102227938Y-57284178D01*
X102952208Y-57069452D01*
X103620670Y-56717555D01*
X103661088Y-56690548D01*
X104021276Y-56200881D01*
X101500000Y-53679605D01*
X98978724Y-56200881D01*
X89740543Y-56200881D01*
X89785000Y-55997000D01*
X89785000Y-55247000D01*
X88827000Y-55247000D01*
X88573000Y-55247000D01*
X88026608Y-55247000D01*
X88020520Y-55240912D01*
X88218767Y-55224216D01*
X88294589Y-55045616D01*
X88305536Y-54993000D01*
X88573000Y-54993000D01*
X88573000Y-53452498D01*
X88827000Y-53452498D01*
X88827000Y-54993000D01*
X89785000Y-54993000D01*
X89785000Y-54243000D01*
X89739376Y-54033767D01*
X89653809Y-53837455D01*
X89531587Y-53661609D01*
X89377408Y-53512986D01*
X89319319Y-53475695D01*
X97646520Y-53475695D01*
X97715822Y-54227938D01*
X97930548Y-54952208D01*
X98282445Y-55620670D01*
X98309452Y-55661088D01*
X98799119Y-56021276D01*
X101320395Y-53500000D01*
X98799119Y-50978724D01*
X98309452Y-51338912D01*
X97949151Y-52002882D01*
X97725306Y-52724385D01*
X97646520Y-53475695D01*
X89319319Y-53475695D01*
X89197197Y-53397298D01*
X88994001Y-53325592D01*
X88827000Y-53452498D01*
X88573000Y-53452498D01*
X88405999Y-53325592D01*
X88202803Y-53397298D01*
X88022592Y-53512986D01*
X87868413Y-53661609D01*
X87746191Y-53837455D01*
X87742272Y-53846445D01*
X87645616Y-53805411D01*
X87455656Y-53765890D01*
X87261636Y-53764187D01*
X87071011Y-53800368D01*
X86924349Y-53859615D01*
X86787314Y-53802853D01*
X86659021Y-53777334D01*
X86717205Y-53690256D01*
X86795226Y-53501898D01*
X86835000Y-53301939D01*
X86835000Y-53098061D01*
X86795226Y-52898102D01*
X86717205Y-52709744D01*
X86603937Y-52540226D01*
X86459774Y-52396063D01*
X86290256Y-52282795D01*
X86101898Y-52204774D01*
X85901939Y-52165000D01*
X85698061Y-52165000D01*
X85498102Y-52204774D01*
X85309744Y-52282795D01*
X85140226Y-52396063D01*
X84996063Y-52540226D01*
X84882795Y-52709744D01*
X84804774Y-52898102D01*
X84765000Y-53098061D01*
X84765000Y-53301939D01*
X84804774Y-53501898D01*
X84882795Y-53690256D01*
X84938213Y-53773195D01*
X84897014Y-53765000D01*
X84702986Y-53765000D01*
X84512686Y-53802853D01*
X84375000Y-53859884D01*
X84237314Y-53802853D01*
X84047014Y-53765000D01*
X83852986Y-53765000D01*
X83662686Y-53802853D01*
X83525000Y-53859884D01*
X83387314Y-53802853D01*
X83197014Y-53765000D01*
X83002986Y-53765000D01*
X82812686Y-53802853D01*
X82675000Y-53859884D01*
X82537314Y-53802853D01*
X82347014Y-53765000D01*
X82152986Y-53765000D01*
X81962686Y-53802853D01*
X81824458Y-53860109D01*
X81695616Y-53805411D01*
X81505656Y-53765890D01*
X81311636Y-53764187D01*
X81121011Y-53800368D01*
X81007611Y-53846178D01*
X81003809Y-53837455D01*
X80881587Y-53661609D01*
X80727408Y-53512986D01*
X80547197Y-53397298D01*
X80344001Y-53325592D01*
X80177000Y-53452498D01*
X79923000Y-53452498D01*
X79755999Y-53325592D01*
X79552803Y-53397298D01*
X79372592Y-53512986D01*
X79218413Y-53661609D01*
X79096191Y-53837455D01*
X79010624Y-54033767D01*
X78965000Y-54243000D01*
X47278114Y-54243000D01*
X47353480Y-53524305D01*
X47301782Y-52963137D01*
X53015000Y-52963137D01*
X53015000Y-53176863D01*
X53056696Y-53386483D01*
X53138485Y-53583940D01*
X53257225Y-53761647D01*
X53408353Y-53912775D01*
X53586060Y-54031515D01*
X53783517Y-54113304D01*
X53993137Y-54155000D01*
X54206863Y-54155000D01*
X54416483Y-54113304D01*
X54613940Y-54031515D01*
X54791647Y-53912775D01*
X54942775Y-53761647D01*
X55061515Y-53583940D01*
X55143304Y-53386483D01*
X55185000Y-53176863D01*
X55185000Y-52963137D01*
X56015000Y-52963137D01*
X56015000Y-53176863D01*
X56056696Y-53386483D01*
X56138485Y-53583940D01*
X56257225Y-53761647D01*
X56408353Y-53912775D01*
X56586060Y-54031515D01*
X56783517Y-54113304D01*
X56993137Y-54155000D01*
X57206863Y-54155000D01*
X57416483Y-54113304D01*
X57613940Y-54031515D01*
X57791647Y-53912775D01*
X57942775Y-53761647D01*
X58061515Y-53583940D01*
X58143304Y-53386483D01*
X58185000Y-53176863D01*
X58185000Y-52963137D01*
X58143304Y-52753517D01*
X58061515Y-52556060D01*
X57942775Y-52378353D01*
X57791647Y-52227225D01*
X57679140Y-52152050D01*
X62015000Y-52152050D01*
X62015000Y-52447949D01*
X62036487Y-52666110D01*
X62121401Y-52946033D01*
X62259294Y-53204013D01*
X62444866Y-53430134D01*
X62670986Y-53615706D01*
X62928966Y-53753599D01*
X63208889Y-53838513D01*
X63500000Y-53867185D01*
X63791110Y-53838513D01*
X64071033Y-53753599D01*
X64329013Y-53615706D01*
X64555134Y-53430134D01*
X64740706Y-53204014D01*
X64750000Y-53186626D01*
X64759294Y-53204013D01*
X64944866Y-53430134D01*
X65170986Y-53615706D01*
X65428966Y-53753599D01*
X65708889Y-53838513D01*
X66000000Y-53867185D01*
X66291110Y-53838513D01*
X66571033Y-53753599D01*
X66829013Y-53615706D01*
X67055134Y-53430134D01*
X67240706Y-53204014D01*
X67254496Y-53178214D01*
X67262894Y-53194086D01*
X67446460Y-53419695D01*
X67670513Y-53605157D01*
X67926443Y-53743345D01*
X68143110Y-53816476D01*
X68373000Y-53695155D01*
X68373000Y-52427000D01*
X68353000Y-52427000D01*
X68353000Y-52173000D01*
X68373000Y-52173000D01*
X68373000Y-50904845D01*
X68627000Y-50904845D01*
X68627000Y-52173000D01*
X68647000Y-52173000D01*
X68647000Y-52427000D01*
X68627000Y-52427000D01*
X68627000Y-53695155D01*
X68856890Y-53816476D01*
X69073557Y-53743345D01*
X69329487Y-53605157D01*
X69553540Y-53419695D01*
X69737106Y-53194086D01*
X69745504Y-53178214D01*
X69759294Y-53204013D01*
X69944866Y-53430134D01*
X70170986Y-53615706D01*
X70428966Y-53753599D01*
X70708889Y-53838513D01*
X71000000Y-53867185D01*
X71291110Y-53838513D01*
X71571033Y-53753599D01*
X71829013Y-53615706D01*
X72055134Y-53430134D01*
X72107223Y-53366663D01*
X72161595Y-53468386D01*
X72272038Y-53602962D01*
X72406614Y-53713405D01*
X72560150Y-53795472D01*
X72726746Y-53846008D01*
X72900000Y-53863072D01*
X74100000Y-53863072D01*
X74273254Y-53846008D01*
X74439850Y-53795472D01*
X74593386Y-53713405D01*
X74727962Y-53602962D01*
X74838405Y-53468386D01*
X74920472Y-53314850D01*
X74971008Y-53148254D01*
X74988072Y-52975000D01*
X74988072Y-51867000D01*
X78965000Y-51867000D01*
X78965000Y-52267000D01*
X79010624Y-52476233D01*
X79096191Y-52672545D01*
X79218413Y-52848391D01*
X79372592Y-52997014D01*
X79552803Y-53112702D01*
X79755999Y-53184408D01*
X79923000Y-53057502D01*
X79923000Y-51867000D01*
X80177000Y-51867000D01*
X80177000Y-53057502D01*
X80344001Y-53184408D01*
X80547197Y-53112702D01*
X80727408Y-52997014D01*
X80881587Y-52848391D01*
X81003809Y-52672545D01*
X81089376Y-52476233D01*
X81135000Y-52267000D01*
X81135000Y-51867000D01*
X87615000Y-51867000D01*
X87615000Y-52267000D01*
X87660624Y-52476233D01*
X87746191Y-52672545D01*
X87868413Y-52848391D01*
X88022592Y-52997014D01*
X88202803Y-53112702D01*
X88405999Y-53184408D01*
X88573000Y-53057502D01*
X88573000Y-51867000D01*
X88827000Y-51867000D01*
X88827000Y-53057502D01*
X88994001Y-53184408D01*
X89197197Y-53112702D01*
X89377408Y-52997014D01*
X89531587Y-52848391D01*
X89653809Y-52672545D01*
X89739376Y-52476233D01*
X89785000Y-52267000D01*
X89785000Y-51867000D01*
X88827000Y-51867000D01*
X88573000Y-51867000D01*
X87615000Y-51867000D01*
X81135000Y-51867000D01*
X80177000Y-51867000D01*
X79923000Y-51867000D01*
X78965000Y-51867000D01*
X74988072Y-51867000D01*
X74988072Y-51625000D01*
X74971008Y-51451746D01*
X74920472Y-51285150D01*
X74838405Y-51131614D01*
X74727962Y-50997038D01*
X74593386Y-50886595D01*
X74439850Y-50804528D01*
X74273254Y-50753992D01*
X74100000Y-50736928D01*
X72900000Y-50736928D01*
X72726746Y-50753992D01*
X72560150Y-50804528D01*
X72406614Y-50886595D01*
X72272038Y-50997038D01*
X72161595Y-51131614D01*
X72107223Y-51233337D01*
X72055134Y-51169866D01*
X71829014Y-50984294D01*
X71571034Y-50846401D01*
X71291111Y-50761487D01*
X71000000Y-50732815D01*
X70708890Y-50761487D01*
X70428967Y-50846401D01*
X70170987Y-50984294D01*
X69944866Y-51169866D01*
X69759294Y-51395986D01*
X69745504Y-51421786D01*
X69737106Y-51405914D01*
X69553540Y-51180305D01*
X69329487Y-50994843D01*
X69073557Y-50856655D01*
X68856890Y-50783524D01*
X68627000Y-50904845D01*
X68373000Y-50904845D01*
X68143110Y-50783524D01*
X67926443Y-50856655D01*
X67670513Y-50994843D01*
X67446460Y-51180305D01*
X67262894Y-51405914D01*
X67254496Y-51421786D01*
X67240706Y-51395987D01*
X67055134Y-51169866D01*
X66829014Y-50984294D01*
X66571034Y-50846401D01*
X66291111Y-50761487D01*
X66000000Y-50732815D01*
X65708890Y-50761487D01*
X65428967Y-50846401D01*
X65170987Y-50984294D01*
X64944866Y-51169866D01*
X64759294Y-51395986D01*
X64750000Y-51413374D01*
X64740706Y-51395987D01*
X64555134Y-51169866D01*
X64329014Y-50984294D01*
X64071034Y-50846401D01*
X63791111Y-50761487D01*
X63500000Y-50732815D01*
X63208890Y-50761487D01*
X62928967Y-50846401D01*
X62670987Y-50984294D01*
X62444866Y-51169866D01*
X62259294Y-51395986D01*
X62121401Y-51653966D01*
X62036487Y-51933889D01*
X62015000Y-52152050D01*
X57679140Y-52152050D01*
X57613940Y-52108485D01*
X57416483Y-52026696D01*
X57206863Y-51985000D01*
X56993137Y-51985000D01*
X56783517Y-52026696D01*
X56586060Y-52108485D01*
X56408353Y-52227225D01*
X56257225Y-52378353D01*
X56138485Y-52556060D01*
X56056696Y-52753517D01*
X56015000Y-52963137D01*
X55185000Y-52963137D01*
X55143304Y-52753517D01*
X55061515Y-52556060D01*
X54942775Y-52378353D01*
X54791647Y-52227225D01*
X54613940Y-52108485D01*
X54416483Y-52026696D01*
X54206863Y-51985000D01*
X53993137Y-51985000D01*
X53783517Y-52026696D01*
X53586060Y-52108485D01*
X53408353Y-52227225D01*
X53257225Y-52378353D01*
X53138485Y-52556060D01*
X53056696Y-52753517D01*
X53015000Y-52963137D01*
X47301782Y-52963137D01*
X47284178Y-52772062D01*
X47069452Y-52047792D01*
X46717555Y-51379330D01*
X46690548Y-51338912D01*
X46200881Y-50978724D01*
X43679605Y-53500000D01*
X43320395Y-53500000D01*
X43306253Y-53485858D01*
X43485858Y-53306253D01*
X43500000Y-53320395D01*
X46021276Y-50799119D01*
X45918943Y-50660000D01*
X79198680Y-50660000D01*
X79096191Y-50807455D01*
%TA.AperFunction,Conductor*%
D28*
G36*
X79096191Y-50807455D02*
G01*
X79010624Y-51003767D01*
X78965000Y-51213000D01*
X78965000Y-51613000D01*
X79923000Y-51613000D01*
X79923000Y-51593000D01*
X80177000Y-51593000D01*
X80177000Y-51613000D01*
X81135000Y-51613000D01*
X81135000Y-51213000D01*
X81089376Y-51003767D01*
X81003809Y-50807455D01*
X80901320Y-50660000D01*
X87848680Y-50660000D01*
X87746191Y-50807455D01*
X87660624Y-51003767D01*
X87615000Y-51213000D01*
X87615000Y-51613000D01*
X88573000Y-51613000D01*
X88573000Y-51593000D01*
X88827000Y-51593000D01*
X88827000Y-51613000D01*
X89785000Y-51613000D01*
X89785000Y-51213000D01*
X89739376Y-51003767D01*
X89653809Y-50807455D01*
X89551320Y-50660000D01*
X99081057Y-50660000D01*
X98978724Y-50799119D01*
X101500000Y-53320395D01*
X101514143Y-53306253D01*
X101693748Y-53485858D01*
X101679605Y-53500000D01*
X104200881Y-56021276D01*
X104338644Y-55919940D01*
X104339930Y-100081005D01*
X104200881Y-99978724D01*
X101679605Y-102500000D01*
X101693748Y-102514143D01*
X101514143Y-102693748D01*
X101500000Y-102679605D01*
X98978724Y-105200881D01*
X99081056Y-105339999D01*
X45918943Y-105340001D01*
X46021276Y-105200881D01*
X43500000Y-102679605D01*
X43485858Y-102693748D01*
X43306253Y-102514143D01*
X43320395Y-102500000D01*
X43679605Y-102500000D01*
X46200881Y-105021276D01*
X46690548Y-104661088D01*
X47050849Y-103997118D01*
X47274694Y-103275615D01*
X47353480Y-102524305D01*
X47284178Y-101772062D01*
X47069452Y-101047792D01*
X46717555Y-100379330D01*
X46690548Y-100338912D01*
X46200881Y-99978724D01*
X43679605Y-102500000D01*
X43320395Y-102500000D01*
X40799119Y-99978724D01*
X40660000Y-100081057D01*
X40660000Y-99799119D01*
X40978724Y-99799119D01*
X43500000Y-102320395D01*
X46021276Y-99799119D01*
X45661088Y-99309452D01*
X44997118Y-98949151D01*
X44275615Y-98725306D01*
X43524305Y-98646520D01*
X42772062Y-98715822D01*
X42047792Y-98930548D01*
X41379330Y-99282445D01*
X41338912Y-99309452D01*
X40978724Y-99799119D01*
X40660000Y-99799119D01*
X40660000Y-95700000D01*
X41861928Y-95700000D01*
X41874188Y-95824482D01*
X41910498Y-95944180D01*
X41969463Y-96054494D01*
X42048815Y-96151185D01*
X42145506Y-96230537D01*
X42255820Y-96289502D01*
X42375518Y-96325812D01*
X42500000Y-96338072D01*
X43714250Y-96335000D01*
X43873000Y-96176250D01*
X43873000Y-94327000D01*
X44127000Y-94327000D01*
X44127000Y-96176250D01*
X44285750Y-96335000D01*
X45500000Y-96338072D01*
X45624482Y-96325812D01*
X45744180Y-96289502D01*
X45854494Y-96230537D01*
X45951185Y-96151185D01*
X46030537Y-96054494D01*
X46089502Y-95944180D01*
X46125812Y-95824482D01*
X46138072Y-95700000D01*
X46135000Y-94485750D01*
X45976250Y-94327000D01*
X44127000Y-94327000D01*
X43873000Y-94327000D01*
X42023750Y-94327000D01*
X41865000Y-94485750D01*
X41861928Y-95700000D01*
X40660000Y-95700000D01*
X40660000Y-92700000D01*
X41861928Y-92700000D01*
X41865000Y-93914250D01*
X42023750Y-94073000D01*
X43873000Y-94073000D01*
X43873000Y-92223750D01*
X44127000Y-92223750D01*
X44127000Y-94073000D01*
X45976250Y-94073000D01*
X46135000Y-93914250D01*
X46138072Y-92700000D01*
X46125812Y-92575518D01*
X46089502Y-92455820D01*
X46030537Y-92345506D01*
X45951185Y-92248815D01*
X45854494Y-92169463D01*
X45744180Y-92110498D01*
X45624482Y-92074188D01*
X45500000Y-92061928D01*
X44285750Y-92065000D01*
X44127000Y-92223750D01*
X43873000Y-92223750D01*
X43714250Y-92065000D01*
X42500000Y-92061928D01*
X42375518Y-92074188D01*
X42255820Y-92110498D01*
X42145506Y-92169463D01*
X42048815Y-92248815D01*
X41969463Y-92345506D01*
X41910498Y-92455820D01*
X41874188Y-92575518D01*
X41861928Y-92700000D01*
X40660000Y-92700000D01*
X40660000Y-88909721D01*
X41865000Y-88909721D01*
X41865000Y-89330279D01*
X41947047Y-89742756D01*
X42107988Y-90131302D01*
X42341637Y-90480983D01*
X42639017Y-90778363D01*
X42988698Y-91012012D01*
X43377244Y-91172953D01*
X43789721Y-91255000D01*
X44210279Y-91255000D01*
X44622756Y-91172953D01*
X45011302Y-91012012D01*
X45360983Y-90778363D01*
X45658363Y-90480983D01*
X45809360Y-90255000D01*
X48813857Y-90255000D01*
X48813858Y-98853098D01*
X48808366Y-98908859D01*
X48830280Y-99131357D01*
X48895181Y-99345305D01*
X48937345Y-99424188D01*
X49000574Y-99542482D01*
X49142409Y-99715308D01*
X49185717Y-99750850D01*
X53898011Y-104463146D01*
X53933549Y-104506449D01*
X53976852Y-104541987D01*
X53976854Y-104541989D01*
X54106375Y-104648284D01*
X54303551Y-104753676D01*
X54517499Y-104818577D01*
X54739998Y-104840491D01*
X54795750Y-104835000D01*
X67044249Y-104835000D01*
X67100000Y-104840491D01*
X67155751Y-104835000D01*
X67155752Y-104835000D01*
X67322499Y-104818577D01*
X67536447Y-104753676D01*
X67733623Y-104648284D01*
X67906449Y-104506449D01*
X67941996Y-104463135D01*
X68880996Y-103524136D01*
X69027502Y-103568578D01*
X69250001Y-103590492D01*
X69305753Y-103585001D01*
X74779870Y-103585001D01*
X75358008Y-104163140D01*
X75393551Y-104206449D01*
X75566377Y-104348284D01*
X75763553Y-104453676D01*
X75977501Y-104518577D01*
X76144248Y-104535000D01*
X76144257Y-104535000D01*
X76199999Y-104540490D01*
X76255741Y-104535000D01*
X87644249Y-104535000D01*
X87700000Y-104540491D01*
X87755751Y-104535000D01*
X87755752Y-104535000D01*
X87922499Y-104518577D01*
X88136447Y-104453676D01*
X88333623Y-104348284D01*
X88506449Y-104206449D01*
X88541996Y-104163135D01*
X90229436Y-102475695D01*
X97646520Y-102475695D01*
X97715822Y-103227938D01*
X97930548Y-103952208D01*
X98282445Y-104620670D01*
X98309452Y-104661088D01*
X98799119Y-105021276D01*
X101320395Y-102500000D01*
X98799119Y-99978724D01*
X98309452Y-100338912D01*
X97949151Y-101002882D01*
X97725306Y-101724385D01*
X97646520Y-102475695D01*
X90229436Y-102475695D01*
X92906012Y-99799119D01*
X98978724Y-99799119D01*
X101500000Y-102320395D01*
X104021276Y-99799119D01*
X103661088Y-99309452D01*
X102997118Y-98949151D01*
X102275615Y-98725306D01*
X101524305Y-98646520D01*
X100772062Y-98715822D01*
X100047792Y-98930548D01*
X99379330Y-99282445D01*
X99338912Y-99309452D01*
X98978724Y-99799119D01*
X92906012Y-99799119D01*
X94141988Y-98563144D01*
X94248283Y-98433623D01*
X94353676Y-98236447D01*
X94418577Y-98022499D01*
X94440491Y-97800000D01*
X94418577Y-97577502D01*
X94353676Y-97363554D01*
X94248283Y-97166378D01*
X94106448Y-96993552D01*
X93933622Y-96851717D01*
X93736446Y-96746324D01*
X93522498Y-96681423D01*
X93300000Y-96659509D01*
X93077501Y-96681423D01*
X92863553Y-96746324D01*
X92666377Y-96851717D01*
X92536856Y-96958012D01*
X87229869Y-102265000D01*
X85705090Y-102265000D01*
X85823411Y-102215990D01*
X86066632Y-102053475D01*
X86273475Y-101846632D01*
X86435990Y-101603411D01*
X86547932Y-101333158D01*
X86605000Y-101046260D01*
X86605000Y-100753740D01*
X86567075Y-100563082D01*
X87977817Y-99152341D01*
X88007765Y-99127763D01*
X88105863Y-99008232D01*
X88178755Y-98871859D01*
X88223642Y-98723886D01*
X88235001Y-98608560D01*
X88235001Y-98608553D01*
X88238798Y-98570000D01*
X88235001Y-98531447D01*
X88235001Y-87288557D01*
X88238798Y-87250001D01*
X88235001Y-87211441D01*
X88235001Y-87211440D01*
X88227965Y-87140001D01*
X88223643Y-87096114D01*
X88178755Y-86948141D01*
X88171639Y-86934827D01*
X88105863Y-86811768D01*
X88007765Y-86692237D01*
X87977812Y-86667655D01*
X87814374Y-86504217D01*
X87799068Y-86427271D01*
X87728586Y-86257111D01*
X87626262Y-86103972D01*
X87496028Y-85973738D01*
X87342889Y-85871414D01*
X87172729Y-85800932D01*
X86992089Y-85765000D01*
X86807911Y-85765000D01*
X86627271Y-85800932D01*
X86457111Y-85871414D01*
X86303972Y-85973738D01*
X86173738Y-86103972D01*
X86071414Y-86257111D01*
X86000932Y-86427271D01*
X85965000Y-86607911D01*
X85965000Y-86792089D01*
X86000932Y-86972729D01*
X86071414Y-87142889D01*
X86173738Y-87296028D01*
X86303972Y-87426262D01*
X86366023Y-87467723D01*
X86357111Y-87471414D01*
X86203972Y-87573738D01*
X86073738Y-87703972D01*
X85971414Y-87857111D01*
X85900932Y-88027271D01*
X85865000Y-88207911D01*
X85865000Y-88392089D01*
X85900932Y-88572729D01*
X85971414Y-88742889D01*
X86015001Y-88808122D01*
X86015000Y-96354842D01*
X82916918Y-99452925D01*
X82726260Y-99415000D01*
X82433740Y-99415000D01*
X82146842Y-99472068D01*
X81876589Y-99584010D01*
X81633368Y-99746525D01*
X81426525Y-99953368D01*
X81310000Y-100127760D01*
X81193475Y-99953368D01*
X80986632Y-99746525D01*
X80743411Y-99584010D01*
X80473158Y-99472068D01*
X80186260Y-99415000D01*
X79893740Y-99415000D01*
X79703082Y-99452924D01*
X74785000Y-94534843D01*
X74785000Y-90325157D01*
X75595784Y-89514373D01*
X75672729Y-89499068D01*
X75715001Y-89481559D01*
X75715001Y-92523348D01*
X75694137Y-92548771D01*
X75621245Y-92685144D01*
X75576358Y-92833117D01*
X75564999Y-92948443D01*
X75564999Y-92948450D01*
X75561202Y-92987003D01*
X75564999Y-93025556D01*
X75565000Y-94773439D01*
X75561202Y-94812001D01*
X75576358Y-94965887D01*
X75621245Y-95113860D01*
X75621246Y-95113861D01*
X75694138Y-95250234D01*
X75725789Y-95288800D01*
X75767654Y-95339813D01*
X75767658Y-95339817D01*
X75792236Y-95369765D01*
X75822185Y-95394344D01*
X76255647Y-95827805D01*
X76280234Y-95857764D01*
X76399765Y-95955862D01*
X76527504Y-96024139D01*
X76536138Y-96028754D01*
X76684111Y-96073642D01*
X76759024Y-96081020D01*
X76799437Y-96085000D01*
X76799442Y-96085000D01*
X76837998Y-96088797D01*
X76876554Y-96085000D01*
X77891880Y-96085000D01*
X77957111Y-96128586D01*
X78127271Y-96199068D01*
X78307911Y-96235000D01*
X78492089Y-96235000D01*
X78672729Y-96199068D01*
X78842889Y-96128586D01*
X78996028Y-96026262D01*
X79126262Y-95896028D01*
X79228586Y-95742889D01*
X79299068Y-95572729D01*
X79335000Y-95392089D01*
X79335000Y-95207911D01*
X79299068Y-95027271D01*
X79228586Y-94857111D01*
X79126262Y-94703972D01*
X78996028Y-94573738D01*
X78848171Y-94474943D01*
X78921028Y-94426262D01*
X79051262Y-94296028D01*
X79153586Y-94142889D01*
X79224068Y-93972729D01*
X79260000Y-93792089D01*
X79260000Y-93607911D01*
X79224068Y-93427271D01*
X79153586Y-93257111D01*
X79051262Y-93103972D01*
X78921028Y-92973738D01*
X78767889Y-92871414D01*
X78597729Y-92800932D01*
X78417089Y-92765000D01*
X78232911Y-92765000D01*
X78052271Y-92800932D01*
X77882111Y-92871414D01*
X77728972Y-92973738D01*
X77598738Y-93103972D01*
X77496414Y-93257111D01*
X77425932Y-93427271D01*
X77390000Y-93607911D01*
X77390000Y-93649507D01*
X77272729Y-93600932D01*
X77134999Y-93573535D01*
X77134999Y-93300656D01*
X77155862Y-93275235D01*
X77228754Y-93138862D01*
X77273641Y-92990889D01*
X77285000Y-92875563D01*
X77285000Y-92875556D01*
X77288797Y-92837003D01*
X77285000Y-92798450D01*
X77285000Y-85900000D01*
X78061928Y-85900000D01*
X78065000Y-88114250D01*
X78097856Y-88147106D01*
X78064887Y-88313998D01*
X78065116Y-88488328D01*
X78098039Y-88652711D01*
X78065000Y-88685750D01*
X78061928Y-90900000D01*
X78074188Y-91024482D01*
X78110498Y-91144180D01*
X78169463Y-91254494D01*
X78248815Y-91351185D01*
X78345506Y-91430537D01*
X78455820Y-91489502D01*
X78575518Y-91525812D01*
X78700000Y-91538072D01*
X80914250Y-91535000D01*
X80947106Y-91502144D01*
X81113998Y-91535113D01*
X81288328Y-91534884D01*
X81452711Y-91501961D01*
X81485750Y-91535000D01*
X83700000Y-91538072D01*
X83824482Y-91525812D01*
X83944180Y-91489502D01*
X84054494Y-91430537D01*
X84151185Y-91351185D01*
X84230537Y-91254494D01*
X84289502Y-91144180D01*
X84325812Y-91024482D01*
X84338072Y-90900000D01*
X84335000Y-88685750D01*
X84302144Y-88652894D01*
X84335113Y-88486002D01*
X84334884Y-88311672D01*
X84301961Y-88147289D01*
X84335000Y-88114250D01*
X84338072Y-85900000D01*
X84325812Y-85775518D01*
X84289502Y-85655820D01*
X84230537Y-85545506D01*
X84151185Y-85448815D01*
X84054494Y-85369463D01*
X83944180Y-85310498D01*
X83824482Y-85274188D01*
X83700000Y-85261928D01*
X81485750Y-85265000D01*
X81452894Y-85297856D01*
X81286002Y-85264887D01*
X81111672Y-85265116D01*
X80947289Y-85298039D01*
X80914250Y-85265000D01*
X78700000Y-85261928D01*
X78575518Y-85274188D01*
X78455820Y-85310498D01*
X78345506Y-85369463D01*
X78248815Y-85448815D01*
X78169463Y-85545506D01*
X78110498Y-85655820D01*
X78074188Y-85775518D01*
X78061928Y-85900000D01*
X77285000Y-85900000D01*
X77285000Y-85308120D01*
X77328586Y-85242889D01*
X77399068Y-85072729D01*
X77435000Y-84892089D01*
X77435000Y-84707911D01*
X77399068Y-84527271D01*
X77328586Y-84357111D01*
X77226262Y-84203972D01*
X77130201Y-84107911D01*
X83965000Y-84107911D01*
X83965000Y-84292089D01*
X84000932Y-84472729D01*
X84071414Y-84642889D01*
X84173738Y-84796028D01*
X84303972Y-84926262D01*
X84457111Y-85028586D01*
X84627271Y-85099068D01*
X84807911Y-85135000D01*
X84992089Y-85135000D01*
X85172729Y-85099068D01*
X85342889Y-85028586D01*
X85496028Y-84926262D01*
X85626262Y-84796028D01*
X85728586Y-84642889D01*
X85799068Y-84472729D01*
X85835000Y-84292089D01*
X85835000Y-84107911D01*
X85799068Y-83927271D01*
X85728586Y-83757111D01*
X85626262Y-83603972D01*
X85496028Y-83473738D01*
X85342889Y-83371414D01*
X85172729Y-83300932D01*
X84992089Y-83265000D01*
X84807911Y-83265000D01*
X84627271Y-83300932D01*
X84457111Y-83371414D01*
X84303972Y-83473738D01*
X84173738Y-83603972D01*
X84071414Y-83757111D01*
X84000932Y-83927271D01*
X83965000Y-84107911D01*
X77130201Y-84107911D01*
X77096028Y-84073738D01*
X76942889Y-83971414D01*
X76772729Y-83900932D01*
X76592089Y-83865000D01*
X76407911Y-83865000D01*
X76227271Y-83900932D01*
X76057111Y-83971414D01*
X75903972Y-84073738D01*
X75773738Y-84203972D01*
X75671414Y-84357111D01*
X75600932Y-84527271D01*
X75565000Y-84707911D01*
X75565000Y-84892089D01*
X75600932Y-85072729D01*
X75671414Y-85242889D01*
X75715000Y-85308120D01*
X75715000Y-85689449D01*
X75592089Y-85665000D01*
X75407911Y-85665000D01*
X75227271Y-85700932D01*
X75057111Y-85771414D01*
X74903972Y-85873738D01*
X74773738Y-86003972D01*
X74671414Y-86157111D01*
X74600932Y-86327271D01*
X74585627Y-86404216D01*
X72674471Y-88315372D01*
X72648283Y-88266378D01*
X72506448Y-88093552D01*
X72333622Y-87951717D01*
X72136446Y-87846325D01*
X71922498Y-87781423D01*
X71699999Y-87759509D01*
X71477500Y-87781423D01*
X71263553Y-87846325D01*
X71066377Y-87951717D01*
X70936856Y-88058012D01*
X67829869Y-91165000D01*
X67244248Y-91165000D01*
X67077501Y-91181423D01*
X66863553Y-91246324D01*
X66666377Y-91351716D01*
X66493551Y-91493551D01*
X66351716Y-91666377D01*
X66246324Y-91863553D01*
X66181423Y-92077501D01*
X66159509Y-92300000D01*
X66181423Y-92522499D01*
X66246324Y-92736447D01*
X66351716Y-92933623D01*
X66493551Y-93106449D01*
X66666377Y-93248284D01*
X66863553Y-93353676D01*
X67077501Y-93418577D01*
X67244248Y-93435000D01*
X67665001Y-93435000D01*
X67665000Y-98555751D01*
X67665001Y-98555761D01*
X67665000Y-101529868D01*
X66629869Y-102565000D01*
X55210131Y-102565000D01*
X55033203Y-102388072D01*
X55750000Y-102388072D01*
X55874482Y-102375812D01*
X55994180Y-102339502D01*
X56104494Y-102280537D01*
X56201185Y-102201185D01*
X56280537Y-102104494D01*
X56339502Y-101994180D01*
X56361513Y-101921620D01*
X56493368Y-102053475D01*
X56736589Y-102215990D01*
X57006842Y-102327932D01*
X57293740Y-102385000D01*
X57586260Y-102385000D01*
X57873158Y-102327932D01*
X58143411Y-102215990D01*
X58386632Y-102053475D01*
X58593475Y-101846632D01*
X58710000Y-101672240D01*
X58826525Y-101846632D01*
X59033368Y-102053475D01*
X59276589Y-102215990D01*
X59546842Y-102327932D01*
X59833740Y-102385000D01*
X60126260Y-102385000D01*
X60413158Y-102327932D01*
X60683411Y-102215990D01*
X60926632Y-102053475D01*
X61133475Y-101846632D01*
X61250000Y-101672240D01*
X61366525Y-101846632D01*
X61573368Y-102053475D01*
X61816589Y-102215990D01*
X62086842Y-102327932D01*
X62373740Y-102385000D01*
X62666260Y-102385000D01*
X62953158Y-102327932D01*
X63223411Y-102215990D01*
X63466632Y-102053475D01*
X63673475Y-101846632D01*
X63835990Y-101603411D01*
X63947932Y-101333158D01*
X64005000Y-101046260D01*
X64005000Y-100753740D01*
X63947932Y-100466842D01*
X63835990Y-100196589D01*
X63673475Y-99953368D01*
X63466632Y-99746525D01*
X63223411Y-99584010D01*
X62953158Y-99472068D01*
X62666260Y-99415000D01*
X62373740Y-99415000D01*
X62086842Y-99472068D01*
X61816589Y-99584010D01*
X61573368Y-99746525D01*
X61366525Y-99953368D01*
X61250000Y-100127760D01*
X61133475Y-99953368D01*
X60926632Y-99746525D01*
X60683411Y-99584010D01*
X60413158Y-99472068D01*
X60126260Y-99415000D01*
X59833740Y-99415000D01*
X59546842Y-99472068D01*
X59276589Y-99584010D01*
X59033368Y-99746525D01*
X58826525Y-99953368D01*
X58710000Y-100127760D01*
X58593475Y-99953368D01*
X58386632Y-99746525D01*
X58143411Y-99584010D01*
X57873158Y-99472068D01*
X57586260Y-99415000D01*
X57293740Y-99415000D01*
X57006842Y-99472068D01*
X56736589Y-99584010D01*
X56493368Y-99746525D01*
X56361513Y-99878380D01*
X56339502Y-99805820D01*
X56280537Y-99695506D01*
X56201185Y-99598815D01*
X56104494Y-99519463D01*
X55994180Y-99460498D01*
X55874482Y-99424188D01*
X55750000Y-99411928D01*
X54050000Y-99411928D01*
X53925518Y-99424188D01*
X53805820Y-99460498D01*
X53695506Y-99519463D01*
X53598815Y-99598815D01*
X53519463Y-99695506D01*
X53460498Y-99805820D01*
X53424188Y-99925518D01*
X53411928Y-100050000D01*
X53411928Y-100766798D01*
X51083857Y-98438728D01*
X51083857Y-94807911D01*
X54465000Y-94807911D01*
X54465000Y-94992089D01*
X54500932Y-95172729D01*
X54571414Y-95342889D01*
X54673738Y-95496028D01*
X54803972Y-95626262D01*
X54957111Y-95728586D01*
X55127271Y-95799068D01*
X55307911Y-95835000D01*
X55492089Y-95835000D01*
X55672729Y-95799068D01*
X55842889Y-95728586D01*
X55996028Y-95626262D01*
X56126262Y-95496028D01*
X56228586Y-95342889D01*
X56299068Y-95172729D01*
X56335000Y-94992089D01*
X56335000Y-94807911D01*
X56299068Y-94627271D01*
X56228586Y-94457111D01*
X56126262Y-94303972D01*
X55996028Y-94173738D01*
X55842889Y-94071414D01*
X55672729Y-94000932D01*
X55492089Y-93965000D01*
X55307911Y-93965000D01*
X55127271Y-94000932D01*
X54957111Y-94071414D01*
X54803972Y-94173738D01*
X54673738Y-94303972D01*
X54571414Y-94457111D01*
X54500932Y-94627271D01*
X54465000Y-94807911D01*
X51083857Y-94807911D01*
X51083857Y-90875604D01*
X51086446Y-90874819D01*
X51283622Y-90769426D01*
X51456448Y-90627591D01*
X51598283Y-90454765D01*
X51703676Y-90257589D01*
X51768577Y-90043641D01*
X51790491Y-89821143D01*
X51768577Y-89598644D01*
X51703676Y-89384696D01*
X51598283Y-89187520D01*
X51491988Y-89058000D01*
X50790853Y-88356865D01*
X50755306Y-88313551D01*
X50582480Y-88171716D01*
X50385304Y-88066324D01*
X50171356Y-88001423D01*
X50004609Y-87985000D01*
X50004608Y-87985000D01*
X49948857Y-87979509D01*
X49893105Y-87985000D01*
X45809360Y-87985000D01*
X45658363Y-87759017D01*
X45360983Y-87461637D01*
X45011302Y-87227988D01*
X44622756Y-87067047D01*
X44210279Y-86985000D01*
X43789721Y-86985000D01*
X43377244Y-87067047D01*
X42988698Y-87227988D01*
X42639017Y-87461637D01*
X42341637Y-87759017D01*
X42107988Y-88108698D01*
X41947047Y-88497244D01*
X41865000Y-88909721D01*
X40660000Y-88909721D01*
X40660000Y-71400000D01*
X42259509Y-71400000D01*
X42265000Y-71455752D01*
X42265001Y-78744239D01*
X42259509Y-78800000D01*
X42281423Y-79022498D01*
X42346324Y-79236446D01*
X42366257Y-79273738D01*
X42451717Y-79433623D01*
X42593552Y-79606449D01*
X42636860Y-79641991D01*
X45536961Y-82542093D01*
X45561487Y-82791111D01*
X45646401Y-83071034D01*
X45784294Y-83329014D01*
X45969866Y-83555134D01*
X46195986Y-83740706D01*
X46453966Y-83878599D01*
X46733889Y-83963513D01*
X46952050Y-83985000D01*
X47247950Y-83985000D01*
X47466111Y-83963513D01*
X47746034Y-83878599D01*
X48004014Y-83740706D01*
X48230134Y-83555134D01*
X48415706Y-83329014D01*
X48553599Y-83071034D01*
X48638513Y-82791111D01*
X48655115Y-82622545D01*
X48700724Y-82659975D01*
X48832754Y-82730547D01*
X48976015Y-82774004D01*
X49087668Y-82785001D01*
X49087678Y-82785001D01*
X49125001Y-82788677D01*
X49162324Y-82785001D01*
X52837677Y-82785001D01*
X52874999Y-82788677D01*
X52912321Y-82785001D01*
X56506920Y-82785001D01*
X56506920Y-82919004D01*
X56542852Y-83099644D01*
X56613334Y-83269804D01*
X56715658Y-83422943D01*
X56845892Y-83553177D01*
X56999031Y-83655501D01*
X57169191Y-83725983D01*
X57349831Y-83761915D01*
X57534009Y-83761915D01*
X57714649Y-83725983D01*
X57884809Y-83655501D01*
X58037948Y-83553177D01*
X58168182Y-83422943D01*
X58270506Y-83269804D01*
X58340988Y-83099644D01*
X58376920Y-82919004D01*
X58376920Y-82785001D01*
X70111777Y-82785001D01*
X69978972Y-82873738D01*
X69848738Y-83003972D01*
X69746414Y-83157111D01*
X69675932Y-83327271D01*
X69640000Y-83507911D01*
X69640000Y-83692089D01*
X69675932Y-83872729D01*
X69746414Y-84042889D01*
X69790000Y-84108121D01*
X69790001Y-85031049D01*
X69738150Y-84996404D01*
X69567990Y-84925922D01*
X69387350Y-84889990D01*
X69203172Y-84889990D01*
X69022532Y-84925922D01*
X68852372Y-84996404D01*
X68699233Y-85098728D01*
X68568999Y-85228962D01*
X68466675Y-85382101D01*
X68396193Y-85552261D01*
X68372108Y-85673341D01*
X63360000Y-90685450D01*
X63360000Y-86914801D01*
X63814802Y-86460000D01*
X65054465Y-86460000D01*
X65157111Y-86528586D01*
X65327271Y-86599068D01*
X65507911Y-86635000D01*
X65692089Y-86635000D01*
X65872729Y-86599068D01*
X66042889Y-86528586D01*
X66196028Y-86426262D01*
X66326262Y-86296028D01*
X66428586Y-86142889D01*
X66499068Y-85972729D01*
X66535000Y-85792089D01*
X66535000Y-85607911D01*
X66499068Y-85427271D01*
X66428586Y-85257111D01*
X66326262Y-85103972D01*
X66196028Y-84973738D01*
X66042889Y-84871414D01*
X65872729Y-84800932D01*
X65692089Y-84765000D01*
X65507911Y-84765000D01*
X65327271Y-84800932D01*
X65157111Y-84871414D01*
X65054465Y-84940000D01*
X64182290Y-84940000D01*
X64226262Y-84896028D01*
X64328586Y-84742889D01*
X64399068Y-84572729D01*
X64435000Y-84392089D01*
X64435000Y-84207911D01*
X64399068Y-84027271D01*
X64328586Y-83857111D01*
X64226262Y-83703972D01*
X64096028Y-83573738D01*
X63942889Y-83471414D01*
X63772729Y-83400932D01*
X63592089Y-83365000D01*
X63407911Y-83365000D01*
X63227271Y-83400932D01*
X63057111Y-83471414D01*
X62903972Y-83573738D01*
X62773738Y-83703972D01*
X62671414Y-83857111D01*
X62600932Y-84027271D01*
X62565000Y-84207911D01*
X62565000Y-84392089D01*
X62600932Y-84572729D01*
X62671414Y-84742889D01*
X62773738Y-84896028D01*
X62903972Y-85026262D01*
X63024680Y-85106917D01*
X62959999Y-85159999D01*
X62936201Y-85188997D01*
X62562543Y-85562655D01*
X62551185Y-85548815D01*
X62454494Y-85469463D01*
X62344180Y-85410498D01*
X62224482Y-85374188D01*
X62100000Y-85361928D01*
X59885750Y-85365000D01*
X59852894Y-85397856D01*
X59686002Y-85364887D01*
X59511672Y-85365116D01*
X59347289Y-85398039D01*
X59314250Y-85365000D01*
X57100000Y-85361928D01*
X56975518Y-85374188D01*
X56855820Y-85410498D01*
X56745506Y-85469463D01*
X56648815Y-85548815D01*
X56569463Y-85645506D01*
X56510498Y-85755820D01*
X56474188Y-85875518D01*
X56461928Y-86000000D01*
X56465000Y-88214250D01*
X56497856Y-88247106D01*
X56464887Y-88413998D01*
X56465116Y-88588328D01*
X56498039Y-88752711D01*
X56465000Y-88785750D01*
X56461928Y-91000000D01*
X56474188Y-91124482D01*
X56510498Y-91244180D01*
X56569463Y-91354494D01*
X56648815Y-91451185D01*
X56745506Y-91530537D01*
X56855820Y-91589502D01*
X56975518Y-91625812D01*
X57100000Y-91638072D01*
X59314250Y-91635000D01*
X59347106Y-91602144D01*
X59513998Y-91635113D01*
X59688328Y-91634884D01*
X59852711Y-91601961D01*
X59885750Y-91635000D01*
X60788945Y-91636253D01*
X59248352Y-93176847D01*
X59127271Y-93200932D01*
X58999998Y-93253650D01*
X58872726Y-93200932D01*
X58692086Y-93165000D01*
X58507908Y-93165000D01*
X58327268Y-93200932D01*
X58157108Y-93271414D01*
X58003969Y-93373738D01*
X57873735Y-93503972D01*
X57771411Y-93657111D01*
X57700929Y-93827271D01*
X57664997Y-94007911D01*
X57664997Y-94068148D01*
X57657111Y-94071414D01*
X57503972Y-94173738D01*
X57373738Y-94303972D01*
X57271414Y-94457111D01*
X57200932Y-94627271D01*
X57165000Y-94807911D01*
X57165000Y-94992089D01*
X57200932Y-95172729D01*
X57271414Y-95342889D01*
X57373738Y-95496028D01*
X57503972Y-95626262D01*
X57657111Y-95728586D01*
X57827271Y-95799068D01*
X57991384Y-95831712D01*
X58082764Y-95880557D01*
X58226025Y-95924014D01*
X58337678Y-95935011D01*
X58337687Y-95935011D01*
X58375010Y-95938687D01*
X58412333Y-95935011D01*
X60544328Y-95935011D01*
X60581650Y-95938687D01*
X60618972Y-95935011D01*
X60618983Y-95935011D01*
X60730636Y-95924014D01*
X60873897Y-95880557D01*
X61005926Y-95809985D01*
X61121651Y-95715012D01*
X61145454Y-95686008D01*
X68146463Y-88685001D01*
X69462679Y-88685001D01*
X69500001Y-88688677D01*
X69537323Y-88685001D01*
X69537334Y-88685001D01*
X69648987Y-88674004D01*
X69792248Y-88630547D01*
X69924277Y-88559975D01*
X70040002Y-88465002D01*
X70063805Y-88435998D01*
X73111023Y-85388781D01*
X73140021Y-85364983D01*
X73184736Y-85310498D01*
X73234994Y-85249259D01*
X73305566Y-85117229D01*
X73318076Y-85075988D01*
X73349023Y-84973968D01*
X73360020Y-84862315D01*
X73360020Y-84862305D01*
X73363696Y-84824982D01*
X73360020Y-84787659D01*
X73360020Y-82860294D01*
X73395021Y-82807911D01*
X78065000Y-82807911D01*
X78065000Y-82992089D01*
X78100932Y-83172729D01*
X78171414Y-83342889D01*
X78273738Y-83496028D01*
X78403972Y-83626262D01*
X78557111Y-83728586D01*
X78727271Y-83799068D01*
X78907911Y-83835000D01*
X79092089Y-83835000D01*
X79272729Y-83799068D01*
X79442889Y-83728586D01*
X79596028Y-83626262D01*
X79726262Y-83496028D01*
X79828586Y-83342889D01*
X79899068Y-83172729D01*
X79935000Y-82992089D01*
X79935000Y-82807911D01*
X79899068Y-82627271D01*
X79828586Y-82457111D01*
X79726262Y-82303972D01*
X79596028Y-82173738D01*
X79572246Y-82157847D01*
X79642889Y-82128586D01*
X79745535Y-82060000D01*
X82254465Y-82060000D01*
X82357111Y-82128586D01*
X82527271Y-82199068D01*
X82707911Y-82235000D01*
X82892089Y-82235000D01*
X83072729Y-82199068D01*
X83242889Y-82128586D01*
X83396028Y-82026262D01*
X83526262Y-81896028D01*
X83628586Y-81742889D01*
X83699068Y-81572729D01*
X83735000Y-81392089D01*
X83735000Y-81207911D01*
X83699068Y-81027271D01*
X83628586Y-80857111D01*
X83526262Y-80703972D01*
X83396028Y-80573738D01*
X83242889Y-80471414D01*
X83072729Y-80400932D01*
X82892089Y-80365000D01*
X82707911Y-80365000D01*
X82527271Y-80400932D01*
X82357111Y-80471414D01*
X82254465Y-80540000D01*
X79745535Y-80540000D01*
X79642889Y-80471414D01*
X79472729Y-80400932D01*
X79292089Y-80365000D01*
X79107911Y-80365000D01*
X78927271Y-80400932D01*
X78757111Y-80471414D01*
X78603972Y-80573738D01*
X78473738Y-80703972D01*
X78371414Y-80857111D01*
X78300932Y-81027271D01*
X78265000Y-81207911D01*
X78265000Y-81392089D01*
X78300932Y-81572729D01*
X78371414Y-81742889D01*
X78473738Y-81896028D01*
X78603972Y-82026262D01*
X78627754Y-82042153D01*
X78557111Y-82071414D01*
X78403972Y-82173738D01*
X78273738Y-82303972D01*
X78171414Y-82457111D01*
X78100932Y-82627271D01*
X78065000Y-82807911D01*
X73395021Y-82807911D01*
X73428606Y-82757648D01*
X73499088Y-82587488D01*
X73535020Y-82406848D01*
X73535020Y-82222670D01*
X73499088Y-82042030D01*
X73428606Y-81871870D01*
X73334119Y-81730460D01*
X74304579Y-80760000D01*
X74354465Y-80760000D01*
X74457111Y-80828586D01*
X74627271Y-80899068D01*
X74807911Y-80935000D01*
X74992089Y-80935000D01*
X75172729Y-80899068D01*
X75342889Y-80828586D01*
X75496028Y-80726262D01*
X75626262Y-80596028D01*
X75728586Y-80442889D01*
X75799068Y-80272729D01*
X75835000Y-80092089D01*
X75835000Y-79907911D01*
X75799068Y-79727271D01*
X75728586Y-79557111D01*
X75626262Y-79403972D01*
X75496028Y-79273738D01*
X75342889Y-79171414D01*
X75201143Y-79112701D01*
X75199068Y-79102271D01*
X75128586Y-78932111D01*
X75026262Y-78778972D01*
X74896028Y-78648738D01*
X74742889Y-78546414D01*
X74572729Y-78475932D01*
X74392089Y-78440000D01*
X74207911Y-78440000D01*
X74027271Y-78475932D01*
X73857111Y-78546414D01*
X73739952Y-78624697D01*
X73726750Y-78625997D01*
X73583489Y-78669454D01*
X73451460Y-78740026D01*
X73335735Y-78834999D01*
X73311932Y-78864003D01*
X73060936Y-79114999D01*
X68487325Y-79114999D01*
X68450002Y-79111323D01*
X68412680Y-79114999D01*
X68412670Y-79114999D01*
X68301017Y-79125996D01*
X68157756Y-79169453D01*
X68025726Y-79240025D01*
X67942086Y-79308667D01*
X67910002Y-79334998D01*
X67886204Y-79363997D01*
X67385200Y-79865001D01*
X61774867Y-79865001D01*
X61890256Y-79817205D01*
X62059774Y-79703937D01*
X62203937Y-79559774D01*
X62317205Y-79390256D01*
X62395226Y-79201898D01*
X62435000Y-79001939D01*
X62435000Y-78798061D01*
X62395226Y-78598102D01*
X62317205Y-78409744D01*
X62203937Y-78240226D01*
X62059774Y-78096063D01*
X61890256Y-77982795D01*
X61701898Y-77904774D01*
X61501939Y-77865000D01*
X61298061Y-77865000D01*
X61098102Y-77904774D01*
X60909744Y-77982795D01*
X60740226Y-78096063D01*
X60596063Y-78240226D01*
X60482795Y-78409744D01*
X60404774Y-78598102D01*
X60365000Y-78798061D01*
X60365000Y-79001939D01*
X60404774Y-79201898D01*
X60482795Y-79390256D01*
X60596063Y-79559774D01*
X60740226Y-79703937D01*
X60909744Y-79817205D01*
X61025133Y-79865001D01*
X57273275Y-79865001D01*
X57228586Y-79757111D01*
X57126262Y-79603972D01*
X56996028Y-79473738D01*
X56842889Y-79371414D01*
X56672729Y-79300932D01*
X56492089Y-79265000D01*
X56307911Y-79265000D01*
X56127271Y-79300932D01*
X55957111Y-79371414D01*
X55803972Y-79473738D01*
X55673738Y-79603972D01*
X55571414Y-79757111D01*
X55526725Y-79865001D01*
X50539803Y-79865001D01*
X48598341Y-77923540D01*
X48638513Y-77791111D01*
X48667185Y-77500000D01*
X48638513Y-77208889D01*
X48553599Y-76928966D01*
X48415706Y-76670986D01*
X48281874Y-76507911D01*
X53265000Y-76507911D01*
X53265000Y-76692089D01*
X53300932Y-76872729D01*
X53371414Y-77042889D01*
X53473738Y-77196028D01*
X53603972Y-77326262D01*
X53757111Y-77428586D01*
X53927271Y-77499068D01*
X54107911Y-77535000D01*
X54292089Y-77535000D01*
X54472729Y-77499068D01*
X54642889Y-77428586D01*
X54650000Y-77423835D01*
X54657111Y-77428586D01*
X54827271Y-77499068D01*
X55007911Y-77535000D01*
X55192089Y-77535000D01*
X55372729Y-77499068D01*
X55542889Y-77428586D01*
X55696028Y-77326262D01*
X55826262Y-77196028D01*
X55928586Y-77042889D01*
X55999068Y-76872729D01*
X56035000Y-76692089D01*
X56035000Y-76507911D01*
X56011938Y-76391972D01*
X75149223Y-76391972D01*
X75149223Y-76576150D01*
X75185155Y-76756790D01*
X75255637Y-76926950D01*
X75357961Y-77080089D01*
X75488195Y-77210323D01*
X75641334Y-77312647D01*
X75811494Y-77383129D01*
X75992134Y-77419061D01*
X76176312Y-77419061D01*
X76356952Y-77383129D01*
X76527112Y-77312647D01*
X76680251Y-77210323D01*
X76747834Y-77142740D01*
X76671414Y-77257111D01*
X76600932Y-77427271D01*
X76565000Y-77607911D01*
X76565000Y-77792089D01*
X76600932Y-77972729D01*
X76671414Y-78142889D01*
X76773738Y-78296028D01*
X76903972Y-78426262D01*
X77057111Y-78528586D01*
X77227271Y-78599068D01*
X77407911Y-78635000D01*
X77592089Y-78635000D01*
X77772729Y-78599068D01*
X77942889Y-78528586D01*
X78096028Y-78426262D01*
X78226262Y-78296028D01*
X78328586Y-78142889D01*
X78399068Y-77972729D01*
X78435000Y-77792089D01*
X78435000Y-77607911D01*
X78399068Y-77427271D01*
X78328586Y-77257111D01*
X78226262Y-77103972D01*
X78096028Y-76973738D01*
X77942889Y-76871414D01*
X77772729Y-76800932D01*
X77592089Y-76765000D01*
X77407911Y-76765000D01*
X77227271Y-76800932D01*
X77057111Y-76871414D01*
X76903972Y-76973738D01*
X76836389Y-77041321D01*
X76912809Y-76926950D01*
X76983291Y-76756790D01*
X77019223Y-76576150D01*
X77019223Y-76391972D01*
X76983291Y-76211332D01*
X76912809Y-76041172D01*
X76810485Y-75888033D01*
X76680251Y-75757799D01*
X76527112Y-75655475D01*
X76356952Y-75584993D01*
X76176312Y-75549061D01*
X75992134Y-75549061D01*
X75811494Y-75584993D01*
X75641334Y-75655475D01*
X75488195Y-75757799D01*
X75357961Y-75888033D01*
X75255637Y-76041172D01*
X75185155Y-76211332D01*
X75149223Y-76391972D01*
X56011938Y-76391972D01*
X55999068Y-76327271D01*
X55928586Y-76157111D01*
X55826262Y-76003972D01*
X55696028Y-75873738D01*
X55542889Y-75771414D01*
X55372729Y-75700932D01*
X55192089Y-75665000D01*
X55007911Y-75665000D01*
X54827271Y-75700932D01*
X54657111Y-75771414D01*
X54650000Y-75776165D01*
X54642889Y-75771414D01*
X54472729Y-75700932D01*
X54292089Y-75665000D01*
X54107911Y-75665000D01*
X53927271Y-75700932D01*
X53757111Y-75771414D01*
X53603972Y-75873738D01*
X53473738Y-76003972D01*
X53371414Y-76157111D01*
X53300932Y-76327271D01*
X53265000Y-76507911D01*
X48281874Y-76507911D01*
X48234392Y-76450055D01*
X48269180Y-76439502D01*
X48379494Y-76380537D01*
X48476185Y-76301185D01*
X48555537Y-76204494D01*
X48614502Y-76094180D01*
X48650812Y-75974482D01*
X48663072Y-75850000D01*
X48660000Y-75285750D01*
X48501250Y-75127000D01*
X47227000Y-75127000D01*
X47227000Y-75147000D01*
X46973000Y-75147000D01*
X46973000Y-75127000D01*
X45698750Y-75127000D01*
X45540000Y-75285750D01*
X45536928Y-75850000D01*
X45549188Y-75974482D01*
X45585498Y-76094180D01*
X45644463Y-76204494D01*
X45723815Y-76301185D01*
X45820506Y-76380537D01*
X45930820Y-76439502D01*
X45965608Y-76450055D01*
X45784294Y-76670986D01*
X45646401Y-76928966D01*
X45561487Y-77208889D01*
X45532815Y-77500000D01*
X45561487Y-77791111D01*
X45646401Y-78071034D01*
X45784294Y-78329014D01*
X45969866Y-78555134D01*
X46195986Y-78740706D01*
X46213374Y-78750000D01*
X46195986Y-78759294D01*
X45969866Y-78944866D01*
X45784294Y-79170986D01*
X45646401Y-79428966D01*
X45643537Y-79438406D01*
X44535000Y-78329869D01*
X44535000Y-74150000D01*
X45536928Y-74150000D01*
X45540000Y-74714250D01*
X45698750Y-74873000D01*
X46973000Y-74873000D01*
X46973000Y-73673750D01*
X47227000Y-73673750D01*
X47227000Y-74873000D01*
X48501250Y-74873000D01*
X48660000Y-74714250D01*
X48663072Y-74150000D01*
X48650812Y-74025518D01*
X48614502Y-73905820D01*
X48555537Y-73795506D01*
X48476185Y-73698815D01*
X48379494Y-73619463D01*
X48269180Y-73560498D01*
X48149482Y-73524188D01*
X48025000Y-73511928D01*
X47385750Y-73515000D01*
X47227000Y-73673750D01*
X46973000Y-73673750D01*
X46814250Y-73515000D01*
X46175000Y-73511928D01*
X46050518Y-73524188D01*
X45930820Y-73560498D01*
X45820506Y-73619463D01*
X45723815Y-73698815D01*
X45644463Y-73795506D01*
X45585498Y-73905820D01*
X45549188Y-74025518D01*
X45536928Y-74150000D01*
X44535000Y-74150000D01*
X44535000Y-71870131D01*
X46509643Y-69895489D01*
X46733889Y-69963513D01*
X46952050Y-69985000D01*
X47247950Y-69985000D01*
X47466111Y-69963513D01*
X47746034Y-69878599D01*
X48004014Y-69740706D01*
X48230134Y-69555134D01*
X48328726Y-69434999D01*
X57657870Y-69434999D01*
X58314011Y-70091141D01*
X58349554Y-70134450D01*
X58522380Y-70276285D01*
X58719556Y-70381677D01*
X58933504Y-70446578D01*
X59100251Y-70463001D01*
X59100260Y-70463001D01*
X59156002Y-70468491D01*
X59211744Y-70463001D01*
X61829868Y-70463001D01*
X62030003Y-70663136D01*
X62065550Y-70706450D01*
X62238376Y-70848285D01*
X62435552Y-70953677D01*
X62599704Y-71003472D01*
X62649499Y-71018578D01*
X62871998Y-71040492D01*
X62927750Y-71035001D01*
X84544250Y-71035001D01*
X84600001Y-71040492D01*
X84655752Y-71035001D01*
X84655753Y-71035001D01*
X84655773Y-71034999D01*
X90931615Y-71034999D01*
X90840226Y-71096063D01*
X90696063Y-71240226D01*
X90582795Y-71409744D01*
X90504774Y-71598102D01*
X90465000Y-71798061D01*
X90465000Y-72001939D01*
X90504774Y-72201898D01*
X90582795Y-72390256D01*
X90696063Y-72559774D01*
X90840226Y-72703937D01*
X91009744Y-72817205D01*
X91198102Y-72895226D01*
X91398061Y-72935000D01*
X91601939Y-72935000D01*
X91801898Y-72895226D01*
X91990256Y-72817205D01*
X92159774Y-72703937D01*
X92303937Y-72559774D01*
X92417205Y-72390256D01*
X92495226Y-72201898D01*
X92529515Y-72029515D01*
X92701898Y-71995226D01*
X92890256Y-71917205D01*
X93059774Y-71803937D01*
X93203937Y-71659774D01*
X93317205Y-71490256D01*
X93395226Y-71301898D01*
X93432281Y-71115610D01*
X93636446Y-71053676D01*
X93833622Y-70948284D01*
X94006449Y-70806449D01*
X94148284Y-70633622D01*
X94253676Y-70436446D01*
X94318577Y-70222499D01*
X94340491Y-70000000D01*
X94318577Y-69777502D01*
X94253676Y-69563554D01*
X94148284Y-69366378D01*
X94041988Y-69236857D01*
X93941995Y-69136864D01*
X93906448Y-69093550D01*
X93733622Y-68951715D01*
X93536446Y-68846323D01*
X93322498Y-68781422D01*
X93155751Y-68764999D01*
X93155750Y-68764999D01*
X93099999Y-68759508D01*
X93044248Y-68764999D01*
X84655755Y-68764999D01*
X84600003Y-68759508D01*
X84544252Y-68764999D01*
X84544251Y-68764999D01*
X84544231Y-68765001D01*
X76646994Y-68765001D01*
X76728586Y-68642889D01*
X76799068Y-68472729D01*
X76814374Y-68395784D01*
X77827817Y-67382341D01*
X77857764Y-67357764D01*
X77891051Y-67317205D01*
X77906728Y-67298102D01*
X77955862Y-67238233D01*
X78028754Y-67101860D01*
X78029906Y-67098061D01*
X78365000Y-67098061D01*
X78365000Y-67301939D01*
X78404774Y-67501898D01*
X78482795Y-67690256D01*
X78596063Y-67859774D01*
X78740226Y-68003937D01*
X78909744Y-68117205D01*
X79098102Y-68195226D01*
X79298061Y-68235000D01*
X79501939Y-68235000D01*
X79701898Y-68195226D01*
X79890256Y-68117205D01*
X80059774Y-68003937D01*
X80203937Y-67859774D01*
X80317205Y-67690256D01*
X80395226Y-67501898D01*
X80435000Y-67301939D01*
X80435000Y-67098061D01*
X80395226Y-66898102D01*
X80317205Y-66709744D01*
X80203937Y-66540226D01*
X80059774Y-66396063D01*
X79890256Y-66282795D01*
X79701898Y-66204774D01*
X79501939Y-66165000D01*
X79298061Y-66165000D01*
X79098102Y-66204774D01*
X78909744Y-66282795D01*
X78740226Y-66396063D01*
X78596063Y-66540226D01*
X78482795Y-66709744D01*
X78404774Y-66898102D01*
X78365000Y-67098061D01*
X78029906Y-67098061D01*
X78058205Y-67004774D01*
X78073642Y-66953887D01*
X78081020Y-66878974D01*
X78085000Y-66838561D01*
X78085000Y-66838556D01*
X78088797Y-66800000D01*
X78085000Y-66761445D01*
X78085000Y-65054671D01*
X78088797Y-65016115D01*
X78085000Y-64977559D01*
X78085000Y-64977554D01*
X78081020Y-64937141D01*
X78073642Y-64862228D01*
X78028754Y-64714255D01*
X78023537Y-64704494D01*
X77955862Y-64577882D01*
X77910142Y-64522172D01*
X77893328Y-64437646D01*
X77871521Y-64385000D01*
X85674843Y-64385000D01*
X85685626Y-64395784D01*
X85700932Y-64472729D01*
X85771414Y-64642889D01*
X85873738Y-64796028D01*
X86003972Y-64926262D01*
X86157111Y-65028586D01*
X86327271Y-65099068D01*
X86507911Y-65135000D01*
X86692089Y-65135000D01*
X86872729Y-65099068D01*
X87042889Y-65028586D01*
X87196028Y-64926262D01*
X87326262Y-64796028D01*
X87428586Y-64642889D01*
X87499068Y-64472729D01*
X87535000Y-64292089D01*
X87535000Y-64107911D01*
X87499068Y-63927271D01*
X87428586Y-63757111D01*
X87326262Y-63603972D01*
X87196028Y-63473738D01*
X87042889Y-63371414D01*
X86872729Y-63300932D01*
X86795784Y-63285626D01*
X86582346Y-63072189D01*
X86557764Y-63042236D01*
X86438233Y-62944138D01*
X86301860Y-62871246D01*
X86153887Y-62826359D01*
X86038561Y-62815000D01*
X86038553Y-62815000D01*
X86000000Y-62811203D01*
X85961447Y-62815000D01*
X66108120Y-62815000D01*
X66042889Y-62771414D01*
X65872729Y-62700932D01*
X65692089Y-62665000D01*
X65507911Y-62665000D01*
X65327271Y-62700932D01*
X65157111Y-62771414D01*
X65003972Y-62873738D01*
X64873738Y-63003972D01*
X64771414Y-63157111D01*
X64700932Y-63327271D01*
X64665000Y-63507911D01*
X64665000Y-63692089D01*
X64700932Y-63872729D01*
X64771414Y-64042889D01*
X64873738Y-64196028D01*
X65003972Y-64326262D01*
X65157111Y-64428586D01*
X65327271Y-64499068D01*
X65507911Y-64535000D01*
X65692089Y-64535000D01*
X65872729Y-64499068D01*
X66042889Y-64428586D01*
X66108120Y-64385000D01*
X76116999Y-64385000D01*
X76095192Y-64437646D01*
X76059260Y-64618286D01*
X76059260Y-64802464D01*
X76095192Y-64983104D01*
X76165674Y-65153264D01*
X76267998Y-65306403D01*
X76398232Y-65436637D01*
X76515001Y-65514659D01*
X76515000Y-66474842D01*
X75704216Y-67285626D01*
X75627271Y-67300932D01*
X75457111Y-67371414D01*
X75303972Y-67473738D01*
X75173738Y-67603972D01*
X75071414Y-67757111D01*
X75000932Y-67927271D01*
X74965000Y-68107911D01*
X74965000Y-68292089D01*
X75000932Y-68472729D01*
X75071414Y-68642889D01*
X75153006Y-68765001D01*
X65898710Y-68765001D01*
X66003937Y-68659774D01*
X66117205Y-68490256D01*
X66195226Y-68301898D01*
X66235000Y-68101939D01*
X66235000Y-67898061D01*
X66195226Y-67698102D01*
X66117205Y-67509744D01*
X66003937Y-67340226D01*
X65859774Y-67196063D01*
X65690256Y-67082795D01*
X65501898Y-67004774D01*
X65301939Y-66965000D01*
X65098061Y-66965000D01*
X64898102Y-67004774D01*
X64709744Y-67082795D01*
X64540226Y-67196063D01*
X64396063Y-67340226D01*
X64282795Y-67509744D01*
X64204774Y-67698102D01*
X64165000Y-67898061D01*
X64165000Y-68101939D01*
X64204774Y-68301898D01*
X64282795Y-68490256D01*
X64396063Y-68659774D01*
X64501290Y-68765001D01*
X63342130Y-68765001D01*
X63141995Y-68564866D01*
X63106448Y-68521552D01*
X62933622Y-68379717D01*
X62736446Y-68274325D01*
X62522498Y-68209424D01*
X62355751Y-68193001D01*
X62355750Y-68193001D01*
X62299999Y-68187510D01*
X62244248Y-68193001D01*
X60048553Y-68193001D01*
X60117205Y-68090256D01*
X60195226Y-67901898D01*
X60235000Y-67701939D01*
X60235000Y-67498061D01*
X60195226Y-67298102D01*
X60117205Y-67109744D01*
X60003937Y-66940226D01*
X59859774Y-66796063D01*
X59690256Y-66682795D01*
X59501898Y-66604774D01*
X59301939Y-66565000D01*
X59098061Y-66565000D01*
X58898102Y-66604774D01*
X58709744Y-66682795D01*
X58540226Y-66796063D01*
X58396063Y-66940226D01*
X58282795Y-67109744D01*
X58256922Y-67172205D01*
X58183753Y-67164999D01*
X58183752Y-67164999D01*
X58128001Y-67159508D01*
X58072250Y-67164999D01*
X52675108Y-67164999D01*
X52853475Y-66986632D01*
X53015990Y-66743411D01*
X53127932Y-66473158D01*
X53162761Y-66298061D01*
X66365000Y-66298061D01*
X66365000Y-66501939D01*
X66404774Y-66701898D01*
X66482795Y-66890256D01*
X66596063Y-67059774D01*
X66740226Y-67203937D01*
X66909744Y-67317205D01*
X67098102Y-67395226D01*
X67298061Y-67435000D01*
X67501939Y-67435000D01*
X67701898Y-67395226D01*
X67890256Y-67317205D01*
X68059774Y-67203937D01*
X68203937Y-67059774D01*
X68317205Y-66890256D01*
X68395226Y-66701898D01*
X68435000Y-66501939D01*
X68435000Y-66298061D01*
X68395226Y-66098102D01*
X68317205Y-65909744D01*
X68203937Y-65740226D01*
X68059774Y-65596063D01*
X67890256Y-65482795D01*
X67701898Y-65404774D01*
X67501939Y-65365000D01*
X67298061Y-65365000D01*
X67098102Y-65404774D01*
X66909744Y-65482795D01*
X66740226Y-65596063D01*
X66596063Y-65740226D01*
X66482795Y-65909744D01*
X66404774Y-66098102D01*
X66365000Y-66298061D01*
X53162761Y-66298061D01*
X53185000Y-66186260D01*
X53185000Y-65893740D01*
X53127932Y-65606842D01*
X53015990Y-65336589D01*
X52853475Y-65093368D01*
X52721620Y-64961513D01*
X52794180Y-64939502D01*
X52904494Y-64880537D01*
X53001185Y-64801185D01*
X53080537Y-64704494D01*
X53139502Y-64594180D01*
X53175812Y-64474482D01*
X53188072Y-64350000D01*
X53188072Y-62650000D01*
X53175812Y-62525518D01*
X53139502Y-62405820D01*
X53080537Y-62295506D01*
X53001185Y-62198815D01*
X52904494Y-62119463D01*
X52794180Y-62060498D01*
X52674482Y-62024188D01*
X52550000Y-62011928D01*
X50850000Y-62011928D01*
X50725518Y-62024188D01*
X50605820Y-62060498D01*
X50495506Y-62119463D01*
X50398815Y-62198815D01*
X50319463Y-62295506D01*
X50260498Y-62405820D01*
X50224188Y-62525518D01*
X50211928Y-62650000D01*
X50211928Y-64350000D01*
X50224188Y-64474482D01*
X50260498Y-64594180D01*
X50319463Y-64704494D01*
X50398815Y-64801185D01*
X50495506Y-64880537D01*
X50605820Y-64939502D01*
X50678380Y-64961513D01*
X50546525Y-65093368D01*
X50384010Y-65336589D01*
X50272068Y-65606842D01*
X50215000Y-65893740D01*
X50215000Y-66186260D01*
X50272068Y-66473158D01*
X50384010Y-66743411D01*
X50546525Y-66986632D01*
X50724892Y-67164999D01*
X48096263Y-67164999D01*
X48230134Y-67055134D01*
X48415706Y-66829014D01*
X48553599Y-66571034D01*
X48638513Y-66291111D01*
X48667185Y-66000000D01*
X48638513Y-65708889D01*
X48553599Y-65428966D01*
X48415706Y-65170986D01*
X48230134Y-64944866D01*
X48004014Y-64759294D01*
X47986626Y-64750000D01*
X48004014Y-64740706D01*
X48230134Y-64555134D01*
X48415706Y-64329014D01*
X48553599Y-64071034D01*
X48638513Y-63791111D01*
X48667185Y-63500000D01*
X48638513Y-63208889D01*
X48553599Y-62928966D01*
X48415706Y-62670986D01*
X48234392Y-62450055D01*
X48269180Y-62439502D01*
X48379494Y-62380537D01*
X48476185Y-62301185D01*
X48555537Y-62204494D01*
X48614502Y-62094180D01*
X48650812Y-61974482D01*
X48663072Y-61850000D01*
X48660000Y-61285750D01*
X48501250Y-61127000D01*
X47227000Y-61127000D01*
X47227000Y-61147000D01*
X46973000Y-61147000D01*
X46973000Y-61127000D01*
X45698750Y-61127000D01*
X45540000Y-61285750D01*
X45536928Y-61850000D01*
X45549188Y-61974482D01*
X45585498Y-62094180D01*
X45644463Y-62204494D01*
X45723815Y-62301185D01*
X45820506Y-62380537D01*
X45930820Y-62439502D01*
X45965608Y-62450055D01*
X45784294Y-62670986D01*
X45646401Y-62928966D01*
X45561487Y-63208889D01*
X45532815Y-63500000D01*
X45561487Y-63791111D01*
X45646401Y-64071034D01*
X45784294Y-64329014D01*
X45969866Y-64555134D01*
X46195986Y-64740706D01*
X46213374Y-64750000D01*
X46195986Y-64759294D01*
X45972861Y-64942408D01*
X45872729Y-64900932D01*
X45692089Y-64865000D01*
X45507911Y-64865000D01*
X45327271Y-64900932D01*
X45157111Y-64971414D01*
X45003972Y-65073738D01*
X44873738Y-65203972D01*
X44771414Y-65357111D01*
X44700932Y-65527271D01*
X44665000Y-65707911D01*
X44665000Y-65892089D01*
X44700932Y-66072729D01*
X44771414Y-66242889D01*
X44873738Y-66396028D01*
X45003972Y-66526262D01*
X45157111Y-66628586D01*
X45327271Y-66699068D01*
X45507911Y-66735000D01*
X45692089Y-66735000D01*
X45730011Y-66727457D01*
X45784294Y-66829014D01*
X45969866Y-67055134D01*
X46195986Y-67240706D01*
X46213374Y-67250000D01*
X46195986Y-67259294D01*
X46029387Y-67396018D01*
X45863553Y-67446324D01*
X45666377Y-67551716D01*
X45493551Y-67693551D01*
X45458011Y-67736857D01*
X42636865Y-70558004D01*
X42593551Y-70593551D01*
X42451716Y-70766377D01*
X42371098Y-70917205D01*
X42346324Y-70963554D01*
X42281423Y-71177502D01*
X42259509Y-71400000D01*
X40660000Y-71400000D01*
X40660000Y-61098061D01*
X59165000Y-61098061D01*
X59165000Y-61301939D01*
X59204774Y-61501898D01*
X59282795Y-61690256D01*
X59396063Y-61859774D01*
X59540226Y-62003937D01*
X59709744Y-62117205D01*
X59898102Y-62195226D01*
X60098061Y-62235000D01*
X60301939Y-62235000D01*
X60501898Y-62195226D01*
X60690256Y-62117205D01*
X60859774Y-62003937D01*
X61003937Y-61859774D01*
X61117205Y-61690256D01*
X61195226Y-61501898D01*
X61235000Y-61301939D01*
X61235000Y-61098061D01*
X61195226Y-60898102D01*
X61117205Y-60709744D01*
X61003937Y-60540226D01*
X60859774Y-60396063D01*
X60690256Y-60282795D01*
X60501898Y-60204774D01*
X60301939Y-60165000D01*
X60098061Y-60165000D01*
X59898102Y-60204774D01*
X59709744Y-60282795D01*
X59540226Y-60396063D01*
X59396063Y-60540226D01*
X59282795Y-60709744D01*
X59204774Y-60898102D01*
X59165000Y-61098061D01*
X40660000Y-61098061D01*
X40660000Y-60150000D01*
X45536928Y-60150000D01*
X45540000Y-60714250D01*
X45698750Y-60873000D01*
X46973000Y-60873000D01*
X46973000Y-59673750D01*
X47227000Y-59673750D01*
X47227000Y-60873000D01*
X48501250Y-60873000D01*
X48660000Y-60714250D01*
X48663072Y-60150000D01*
X48650812Y-60025518D01*
X48614502Y-59905820D01*
X48555537Y-59795506D01*
X48476185Y-59698815D01*
X48379494Y-59619463D01*
X48269180Y-59560498D01*
X48149482Y-59524188D01*
X48025000Y-59511928D01*
X47385750Y-59515000D01*
X47227000Y-59673750D01*
X46973000Y-59673750D01*
X46814250Y-59515000D01*
X46175000Y-59511928D01*
X46050518Y-59524188D01*
X45930820Y-59560498D01*
X45820506Y-59619463D01*
X45723815Y-59698815D01*
X45644463Y-59795506D01*
X45585498Y-59905820D01*
X45549188Y-60025518D01*
X45536928Y-60150000D01*
X40660000Y-60150000D01*
X40660000Y-56200881D01*
X40978724Y-56200881D01*
X41338912Y-56690548D01*
X42002882Y-57050849D01*
X42724385Y-57274694D01*
X43475695Y-57353480D01*
X44227938Y-57284178D01*
X44952208Y-57069452D01*
X45620670Y-56717555D01*
X45661088Y-56690548D01*
X46021276Y-56200881D01*
X45918456Y-56098061D01*
X56765000Y-56098061D01*
X56765000Y-56301939D01*
X56804774Y-56501898D01*
X56882795Y-56690256D01*
X56996063Y-56859774D01*
X57140226Y-57003937D01*
X57309744Y-57117205D01*
X57498102Y-57195226D01*
X57698061Y-57235000D01*
X57768146Y-57235000D01*
X57771414Y-57242889D01*
X57873738Y-57396028D01*
X58003972Y-57526262D01*
X58157111Y-57628586D01*
X58327271Y-57699068D01*
X58507911Y-57735000D01*
X58692089Y-57735000D01*
X58872729Y-57699068D01*
X59042889Y-57628586D01*
X59196028Y-57526262D01*
X59326262Y-57396028D01*
X59428586Y-57242889D01*
X59499068Y-57072729D01*
X59535000Y-56892089D01*
X59535000Y-56707911D01*
X59499068Y-56527271D01*
X59445548Y-56398061D01*
X61565000Y-56398061D01*
X61565000Y-56601939D01*
X61604774Y-56801898D01*
X61682795Y-56990256D01*
X61796063Y-57159774D01*
X61940226Y-57303937D01*
X62109744Y-57417205D01*
X62298102Y-57495226D01*
X62498061Y-57535000D01*
X62701939Y-57535000D01*
X62901898Y-57495226D01*
X63090256Y-57417205D01*
X63190835Y-57350000D01*
X70611928Y-57350000D01*
X70611928Y-59050000D01*
X70624188Y-59174482D01*
X70660498Y-59294180D01*
X70719463Y-59404494D01*
X70798815Y-59501185D01*
X70895506Y-59580537D01*
X71005820Y-59639502D01*
X71125518Y-59675812D01*
X71250000Y-59688072D01*
X72950000Y-59688072D01*
X73074482Y-59675812D01*
X73194180Y-59639502D01*
X73304494Y-59580537D01*
X73401185Y-59501185D01*
X73480537Y-59404494D01*
X73539502Y-59294180D01*
X73563966Y-59213534D01*
X73639731Y-59297588D01*
X73873080Y-59471641D01*
X74135901Y-59596825D01*
X74283110Y-59641476D01*
X74513000Y-59520155D01*
X74513000Y-58327000D01*
X74767000Y-58327000D01*
X74767000Y-59520155D01*
X74996890Y-59641476D01*
X75144099Y-59596825D01*
X75406920Y-59471641D01*
X75640269Y-59297588D01*
X75835178Y-59081355D01*
X75984157Y-58831252D01*
X76081481Y-58556891D01*
X75960814Y-58327000D01*
X74767000Y-58327000D01*
X74513000Y-58327000D01*
X74493000Y-58327000D01*
X74493000Y-58073000D01*
X74513000Y-58073000D01*
X74513000Y-56879845D01*
X74767000Y-56879845D01*
X74767000Y-58073000D01*
X75960814Y-58073000D01*
X76081481Y-57843109D01*
X75984157Y-57568748D01*
X75835178Y-57318645D01*
X75640269Y-57102412D01*
X75406920Y-56928359D01*
X75144099Y-56803175D01*
X74996890Y-56758524D01*
X74767000Y-56879845D01*
X74513000Y-56879845D01*
X74283110Y-56758524D01*
X74135901Y-56803175D01*
X73873080Y-56928359D01*
X73639731Y-57102412D01*
X73563966Y-57186466D01*
X73539502Y-57105820D01*
X73480537Y-56995506D01*
X73401185Y-56898815D01*
X73304494Y-56819463D01*
X73194180Y-56760498D01*
X73074482Y-56724188D01*
X72950000Y-56711928D01*
X71250000Y-56711928D01*
X71125518Y-56724188D01*
X71005820Y-56760498D01*
X70895506Y-56819463D01*
X70798815Y-56898815D01*
X70719463Y-56995506D01*
X70660498Y-57105820D01*
X70624188Y-57225518D01*
X70611928Y-57350000D01*
X63190835Y-57350000D01*
X63259774Y-57303937D01*
X63403937Y-57159774D01*
X63517205Y-56990256D01*
X63595226Y-56801898D01*
X63635000Y-56601939D01*
X63635000Y-56398061D01*
X63595226Y-56198102D01*
X63517205Y-56009744D01*
X63403937Y-55840226D01*
X63259774Y-55696063D01*
X63090256Y-55582795D01*
X62901898Y-55504774D01*
X62701939Y-55465000D01*
X62498061Y-55465000D01*
X62298102Y-55504774D01*
X62109744Y-55582795D01*
X61940226Y-55696063D01*
X61796063Y-55840226D01*
X61682795Y-56009744D01*
X61604774Y-56198102D01*
X61565000Y-56398061D01*
X59445548Y-56398061D01*
X59428586Y-56357111D01*
X59326262Y-56203972D01*
X59196028Y-56073738D01*
X59042889Y-55971414D01*
X58872729Y-55900932D01*
X58789544Y-55884385D01*
X58717205Y-55709744D01*
X58603937Y-55540226D01*
X58459774Y-55396063D01*
X58290256Y-55282795D01*
X58203840Y-55247000D01*
X78965000Y-55247000D01*
X78965000Y-55997000D01*
X79010624Y-56206233D01*
X79096191Y-56402545D01*
X79218413Y-56578391D01*
X79372592Y-56727014D01*
X79552803Y-56842702D01*
X79755999Y-56914408D01*
X79923000Y-56787502D01*
X79923000Y-55247000D01*
X78965000Y-55247000D01*
X58203840Y-55247000D01*
X58101898Y-55204774D01*
X57901939Y-55165000D01*
X57698061Y-55165000D01*
X57498102Y-55204774D01*
X57309744Y-55282795D01*
X57140226Y-55396063D01*
X56996063Y-55540226D01*
X56882795Y-55709744D01*
X56804774Y-55898102D01*
X56765000Y-56098061D01*
X45918456Y-56098061D01*
X43500000Y-53679605D01*
X40978724Y-56200881D01*
X40660000Y-56200881D01*
X40660000Y-55918943D01*
X40799119Y-56021276D01*
X43320395Y-53500000D01*
X43679605Y-53500000D01*
X46200881Y-56021276D01*
X46690548Y-55661088D01*
X47050849Y-54997118D01*
X47274694Y-54275615D01*
X47278114Y-54243000D01*
X78965000Y-54243000D01*
X78965000Y-54993000D01*
X79923000Y-54993000D01*
X79923000Y-53452498D01*
X80177000Y-53452498D01*
X80177000Y-54993000D01*
X80443537Y-54993000D01*
X80450368Y-55028989D01*
X80523043Y-55208893D01*
X80531233Y-55224216D01*
X80729480Y-55240912D01*
X80723392Y-55247000D01*
X80177000Y-55247000D01*
X80177000Y-56787502D01*
X80344001Y-56914408D01*
X80547197Y-56842702D01*
X80727408Y-56727014D01*
X80881587Y-56578391D01*
X81003809Y-56402545D01*
X81070225Y-56250170D01*
X81220395Y-56100000D01*
X81206253Y-56085858D01*
X81265000Y-56027110D01*
X81265000Y-56197014D01*
X81301101Y-56378504D01*
X80909088Y-56770517D01*
X80925784Y-56968767D01*
X81104384Y-57044589D01*
X81294344Y-57084110D01*
X81488364Y-57085813D01*
X81678989Y-57049632D01*
X81825651Y-56990385D01*
X81962686Y-57047147D01*
X82152986Y-57085000D01*
X82347014Y-57085000D01*
X82537314Y-57047147D01*
X82675000Y-56990116D01*
X82812686Y-57047147D01*
X83002986Y-57085000D01*
X83197014Y-57085000D01*
X83387314Y-57047147D01*
X83525000Y-56990116D01*
X83662686Y-57047147D01*
X83852986Y-57085000D01*
X84047014Y-57085000D01*
X84237314Y-57047147D01*
X84375000Y-56990116D01*
X84512686Y-57047147D01*
X84702986Y-57085000D01*
X84897014Y-57085000D01*
X85087314Y-57047147D01*
X85225000Y-56990116D01*
X85362686Y-57047147D01*
X85552986Y-57085000D01*
X85747014Y-57085000D01*
X85937314Y-57047147D01*
X86075000Y-56990116D01*
X86212686Y-57047147D01*
X86402986Y-57085000D01*
X86597014Y-57085000D01*
X86787314Y-57047147D01*
X86925542Y-56989891D01*
X87054384Y-57044589D01*
X87244344Y-57084110D01*
X87438364Y-57085813D01*
X87628989Y-57049632D01*
X87808893Y-56976957D01*
X87824216Y-56968767D01*
X87840912Y-56770517D01*
X87448899Y-56378504D01*
X87485000Y-56197014D01*
X87485000Y-56027110D01*
X87543748Y-56085858D01*
X87529605Y-56100000D01*
X87679775Y-56250170D01*
X87746191Y-56402545D01*
X87868413Y-56578391D01*
X88022592Y-56727014D01*
X88202803Y-56842702D01*
X88405999Y-56914408D01*
X88573000Y-56787502D01*
X88573000Y-55247000D01*
X88827000Y-55247000D01*
X88827000Y-56787502D01*
X88994001Y-56914408D01*
X89197197Y-56842702D01*
X89377408Y-56727014D01*
X89531587Y-56578391D01*
X89653809Y-56402545D01*
X89739376Y-56206233D01*
X89740543Y-56200881D01*
X98978724Y-56200881D01*
X99338912Y-56690548D01*
X100002882Y-57050849D01*
X100724385Y-57274694D01*
X101475695Y-57353480D01*
X102227938Y-57284178D01*
X102952208Y-57069452D01*
X103620670Y-56717555D01*
X103661088Y-56690548D01*
X104021276Y-56200881D01*
X101500000Y-53679605D01*
X98978724Y-56200881D01*
X89740543Y-56200881D01*
X89785000Y-55997000D01*
X89785000Y-55247000D01*
X88827000Y-55247000D01*
X88573000Y-55247000D01*
X88026608Y-55247000D01*
X88020520Y-55240912D01*
X88218767Y-55224216D01*
X88294589Y-55045616D01*
X88305536Y-54993000D01*
X88573000Y-54993000D01*
X88573000Y-53452498D01*
X88827000Y-53452498D01*
X88827000Y-54993000D01*
X89785000Y-54993000D01*
X89785000Y-54243000D01*
X89739376Y-54033767D01*
X89653809Y-53837455D01*
X89531587Y-53661609D01*
X89377408Y-53512986D01*
X89319319Y-53475695D01*
X97646520Y-53475695D01*
X97715822Y-54227938D01*
X97930548Y-54952208D01*
X98282445Y-55620670D01*
X98309452Y-55661088D01*
X98799119Y-56021276D01*
X101320395Y-53500000D01*
X98799119Y-50978724D01*
X98309452Y-51338912D01*
X97949151Y-52002882D01*
X97725306Y-52724385D01*
X97646520Y-53475695D01*
X89319319Y-53475695D01*
X89197197Y-53397298D01*
X88994001Y-53325592D01*
X88827000Y-53452498D01*
X88573000Y-53452498D01*
X88405999Y-53325592D01*
X88202803Y-53397298D01*
X88022592Y-53512986D01*
X87868413Y-53661609D01*
X87746191Y-53837455D01*
X87742272Y-53846445D01*
X87645616Y-53805411D01*
X87455656Y-53765890D01*
X87261636Y-53764187D01*
X87071011Y-53800368D01*
X86924349Y-53859615D01*
X86787314Y-53802853D01*
X86659021Y-53777334D01*
X86717205Y-53690256D01*
X86795226Y-53501898D01*
X86835000Y-53301939D01*
X86835000Y-53098061D01*
X86795226Y-52898102D01*
X86717205Y-52709744D01*
X86603937Y-52540226D01*
X86459774Y-52396063D01*
X86290256Y-52282795D01*
X86101898Y-52204774D01*
X85901939Y-52165000D01*
X85698061Y-52165000D01*
X85498102Y-52204774D01*
X85309744Y-52282795D01*
X85140226Y-52396063D01*
X84996063Y-52540226D01*
X84882795Y-52709744D01*
X84804774Y-52898102D01*
X84765000Y-53098061D01*
X84765000Y-53301939D01*
X84804774Y-53501898D01*
X84882795Y-53690256D01*
X84938213Y-53773195D01*
X84897014Y-53765000D01*
X84702986Y-53765000D01*
X84512686Y-53802853D01*
X84375000Y-53859884D01*
X84237314Y-53802853D01*
X84047014Y-53765000D01*
X83852986Y-53765000D01*
X83662686Y-53802853D01*
X83525000Y-53859884D01*
X83387314Y-53802853D01*
X83197014Y-53765000D01*
X83002986Y-53765000D01*
X82812686Y-53802853D01*
X82675000Y-53859884D01*
X82537314Y-53802853D01*
X82347014Y-53765000D01*
X82152986Y-53765000D01*
X81962686Y-53802853D01*
X81824458Y-53860109D01*
X81695616Y-53805411D01*
X81505656Y-53765890D01*
X81311636Y-53764187D01*
X81121011Y-53800368D01*
X81007611Y-53846178D01*
X81003809Y-53837455D01*
X80881587Y-53661609D01*
X80727408Y-53512986D01*
X80547197Y-53397298D01*
X80344001Y-53325592D01*
X80177000Y-53452498D01*
X79923000Y-53452498D01*
X79755999Y-53325592D01*
X79552803Y-53397298D01*
X79372592Y-53512986D01*
X79218413Y-53661609D01*
X79096191Y-53837455D01*
X79010624Y-54033767D01*
X78965000Y-54243000D01*
X47278114Y-54243000D01*
X47353480Y-53524305D01*
X47301782Y-52963137D01*
X53015000Y-52963137D01*
X53015000Y-53176863D01*
X53056696Y-53386483D01*
X53138485Y-53583940D01*
X53257225Y-53761647D01*
X53408353Y-53912775D01*
X53586060Y-54031515D01*
X53783517Y-54113304D01*
X53993137Y-54155000D01*
X54206863Y-54155000D01*
X54416483Y-54113304D01*
X54613940Y-54031515D01*
X54791647Y-53912775D01*
X54942775Y-53761647D01*
X55061515Y-53583940D01*
X55143304Y-53386483D01*
X55185000Y-53176863D01*
X55185000Y-52963137D01*
X56015000Y-52963137D01*
X56015000Y-53176863D01*
X56056696Y-53386483D01*
X56138485Y-53583940D01*
X56257225Y-53761647D01*
X56408353Y-53912775D01*
X56586060Y-54031515D01*
X56783517Y-54113304D01*
X56993137Y-54155000D01*
X57206863Y-54155000D01*
X57416483Y-54113304D01*
X57613940Y-54031515D01*
X57791647Y-53912775D01*
X57942775Y-53761647D01*
X58061515Y-53583940D01*
X58143304Y-53386483D01*
X58185000Y-53176863D01*
X58185000Y-52963137D01*
X58143304Y-52753517D01*
X58061515Y-52556060D01*
X57942775Y-52378353D01*
X57791647Y-52227225D01*
X57679140Y-52152050D01*
X62015000Y-52152050D01*
X62015000Y-52447949D01*
X62036487Y-52666110D01*
X62121401Y-52946033D01*
X62259294Y-53204013D01*
X62444866Y-53430134D01*
X62670986Y-53615706D01*
X62928966Y-53753599D01*
X63208889Y-53838513D01*
X63500000Y-53867185D01*
X63791110Y-53838513D01*
X64071033Y-53753599D01*
X64329013Y-53615706D01*
X64555134Y-53430134D01*
X64740706Y-53204014D01*
X64750000Y-53186626D01*
X64759294Y-53204013D01*
X64944866Y-53430134D01*
X65170986Y-53615706D01*
X65428966Y-53753599D01*
X65708889Y-53838513D01*
X66000000Y-53867185D01*
X66291110Y-53838513D01*
X66571033Y-53753599D01*
X66829013Y-53615706D01*
X67055134Y-53430134D01*
X67240706Y-53204014D01*
X67254496Y-53178214D01*
X67262894Y-53194086D01*
X67446460Y-53419695D01*
X67670513Y-53605157D01*
X67926443Y-53743345D01*
X68143110Y-53816476D01*
X68373000Y-53695155D01*
X68373000Y-52427000D01*
X68353000Y-52427000D01*
X68353000Y-52173000D01*
X68373000Y-52173000D01*
X68373000Y-50904845D01*
X68627000Y-50904845D01*
X68627000Y-52173000D01*
X68647000Y-52173000D01*
X68647000Y-52427000D01*
X68627000Y-52427000D01*
X68627000Y-53695155D01*
X68856890Y-53816476D01*
X69073557Y-53743345D01*
X69329487Y-53605157D01*
X69553540Y-53419695D01*
X69737106Y-53194086D01*
X69745504Y-53178214D01*
X69759294Y-53204013D01*
X69944866Y-53430134D01*
X70170986Y-53615706D01*
X70428966Y-53753599D01*
X70708889Y-53838513D01*
X71000000Y-53867185D01*
X71291110Y-53838513D01*
X71571033Y-53753599D01*
X71829013Y-53615706D01*
X72055134Y-53430134D01*
X72107223Y-53366663D01*
X72161595Y-53468386D01*
X72272038Y-53602962D01*
X72406614Y-53713405D01*
X72560150Y-53795472D01*
X72726746Y-53846008D01*
X72900000Y-53863072D01*
X74100000Y-53863072D01*
X74273254Y-53846008D01*
X74439850Y-53795472D01*
X74593386Y-53713405D01*
X74727962Y-53602962D01*
X74838405Y-53468386D01*
X74920472Y-53314850D01*
X74971008Y-53148254D01*
X74988072Y-52975000D01*
X74988072Y-51867000D01*
X78965000Y-51867000D01*
X78965000Y-52267000D01*
X79010624Y-52476233D01*
X79096191Y-52672545D01*
X79218413Y-52848391D01*
X79372592Y-52997014D01*
X79552803Y-53112702D01*
X79755999Y-53184408D01*
X79923000Y-53057502D01*
X79923000Y-51867000D01*
X80177000Y-51867000D01*
X80177000Y-53057502D01*
X80344001Y-53184408D01*
X80547197Y-53112702D01*
X80727408Y-52997014D01*
X80881587Y-52848391D01*
X81003809Y-52672545D01*
X81089376Y-52476233D01*
X81135000Y-52267000D01*
X81135000Y-51867000D01*
X87615000Y-51867000D01*
X87615000Y-52267000D01*
X87660624Y-52476233D01*
X87746191Y-52672545D01*
X87868413Y-52848391D01*
X88022592Y-52997014D01*
X88202803Y-53112702D01*
X88405999Y-53184408D01*
X88573000Y-53057502D01*
X88573000Y-51867000D01*
X88827000Y-51867000D01*
X88827000Y-53057502D01*
X88994001Y-53184408D01*
X89197197Y-53112702D01*
X89377408Y-52997014D01*
X89531587Y-52848391D01*
X89653809Y-52672545D01*
X89739376Y-52476233D01*
X89785000Y-52267000D01*
X89785000Y-51867000D01*
X88827000Y-51867000D01*
X88573000Y-51867000D01*
X87615000Y-51867000D01*
X81135000Y-51867000D01*
X80177000Y-51867000D01*
X79923000Y-51867000D01*
X78965000Y-51867000D01*
X74988072Y-51867000D01*
X74988072Y-51625000D01*
X74971008Y-51451746D01*
X74920472Y-51285150D01*
X74838405Y-51131614D01*
X74727962Y-50997038D01*
X74593386Y-50886595D01*
X74439850Y-50804528D01*
X74273254Y-50753992D01*
X74100000Y-50736928D01*
X72900000Y-50736928D01*
X72726746Y-50753992D01*
X72560150Y-50804528D01*
X72406614Y-50886595D01*
X72272038Y-50997038D01*
X72161595Y-51131614D01*
X72107223Y-51233337D01*
X72055134Y-51169866D01*
X71829014Y-50984294D01*
X71571034Y-50846401D01*
X71291111Y-50761487D01*
X71000000Y-50732815D01*
X70708890Y-50761487D01*
X70428967Y-50846401D01*
X70170987Y-50984294D01*
X69944866Y-51169866D01*
X69759294Y-51395986D01*
X69745504Y-51421786D01*
X69737106Y-51405914D01*
X69553540Y-51180305D01*
X69329487Y-50994843D01*
X69073557Y-50856655D01*
X68856890Y-50783524D01*
X68627000Y-50904845D01*
X68373000Y-50904845D01*
X68143110Y-50783524D01*
X67926443Y-50856655D01*
X67670513Y-50994843D01*
X67446460Y-51180305D01*
X67262894Y-51405914D01*
X67254496Y-51421786D01*
X67240706Y-51395987D01*
X67055134Y-51169866D01*
X66829014Y-50984294D01*
X66571034Y-50846401D01*
X66291111Y-50761487D01*
X66000000Y-50732815D01*
X65708890Y-50761487D01*
X65428967Y-50846401D01*
X65170987Y-50984294D01*
X64944866Y-51169866D01*
X64759294Y-51395986D01*
X64750000Y-51413374D01*
X64740706Y-51395987D01*
X64555134Y-51169866D01*
X64329014Y-50984294D01*
X64071034Y-50846401D01*
X63791111Y-50761487D01*
X63500000Y-50732815D01*
X63208890Y-50761487D01*
X62928967Y-50846401D01*
X62670987Y-50984294D01*
X62444866Y-51169866D01*
X62259294Y-51395986D01*
X62121401Y-51653966D01*
X62036487Y-51933889D01*
X62015000Y-52152050D01*
X57679140Y-52152050D01*
X57613940Y-52108485D01*
X57416483Y-52026696D01*
X57206863Y-51985000D01*
X56993137Y-51985000D01*
X56783517Y-52026696D01*
X56586060Y-52108485D01*
X56408353Y-52227225D01*
X56257225Y-52378353D01*
X56138485Y-52556060D01*
X56056696Y-52753517D01*
X56015000Y-52963137D01*
X55185000Y-52963137D01*
X55143304Y-52753517D01*
X55061515Y-52556060D01*
X54942775Y-52378353D01*
X54791647Y-52227225D01*
X54613940Y-52108485D01*
X54416483Y-52026696D01*
X54206863Y-51985000D01*
X53993137Y-51985000D01*
X53783517Y-52026696D01*
X53586060Y-52108485D01*
X53408353Y-52227225D01*
X53257225Y-52378353D01*
X53138485Y-52556060D01*
X53056696Y-52753517D01*
X53015000Y-52963137D01*
X47301782Y-52963137D01*
X47284178Y-52772062D01*
X47069452Y-52047792D01*
X46717555Y-51379330D01*
X46690548Y-51338912D01*
X46200881Y-50978724D01*
X43679605Y-53500000D01*
X43320395Y-53500000D01*
X43306253Y-53485858D01*
X43485858Y-53306253D01*
X43500000Y-53320395D01*
X46021276Y-50799119D01*
X45918943Y-50660000D01*
X79198680Y-50660000D01*
X79096191Y-50807455D01*
G37*
%TD.AperFunction*%
D27*
X71565000Y-95711436D02*
X71561202Y-95749999D01*
X71576358Y-95903885D01*
X71621245Y-96051858D01*
X71645724Y-96097655D01*
X71694138Y-96188232D01*
X71728857Y-96230537D01*
X71767654Y-96277811D01*
X71767658Y-96277815D01*
X71792236Y-96307763D01*
X71822184Y-96332341D01*
X76011928Y-100522086D01*
X76011928Y-101607014D01*
X75883624Y-101501717D01*
X75686448Y-101396325D01*
X75472500Y-101331424D01*
X75305753Y-101315001D01*
X75305752Y-101315001D01*
X75250001Y-101309510D01*
X75194250Y-101315001D01*
X69935000Y-101315001D01*
X69935000Y-92855752D01*
X69940491Y-92800000D01*
X69918577Y-92577501D01*
X69853676Y-92363553D01*
X69849462Y-92355669D01*
X71564999Y-90640133D01*
X71565000Y-95711436D01*
%TA.AperFunction,Conductor*%
D28*
G36*
X71565000Y-95711436D02*
G01*
X71561202Y-95749999D01*
X71576358Y-95903885D01*
X71621245Y-96051858D01*
X71645724Y-96097655D01*
X71694138Y-96188232D01*
X71728857Y-96230537D01*
X71767654Y-96277811D01*
X71767658Y-96277815D01*
X71792236Y-96307763D01*
X71822184Y-96332341D01*
X76011928Y-100522086D01*
X76011928Y-101607014D01*
X75883624Y-101501717D01*
X75686448Y-101396325D01*
X75472500Y-101331424D01*
X75305753Y-101315001D01*
X75305752Y-101315001D01*
X75250001Y-101309510D01*
X75194250Y-101315001D01*
X69935000Y-101315001D01*
X69935000Y-92855752D01*
X69940491Y-92800000D01*
X69918577Y-92577501D01*
X69853676Y-92363553D01*
X69849462Y-92355669D01*
X71564999Y-90640133D01*
X71565000Y-95711436D01*
G37*
%TD.AperFunction*%
D27*
X73211203Y-90000000D02*
X73215000Y-90038553D01*
X73215001Y-94821437D01*
X73211203Y-94860000D01*
X73226359Y-95013886D01*
X73271246Y-95161859D01*
X73287488Y-95192246D01*
X73344139Y-95298233D01*
X73378263Y-95339813D01*
X73417655Y-95387812D01*
X73417659Y-95387816D01*
X73442237Y-95417764D01*
X73472185Y-95442342D01*
X77441770Y-99411928D01*
X77122086Y-99411928D01*
X73134999Y-95424842D01*
X73134999Y-90075158D01*
X73211317Y-89998840D01*
X73211203Y-90000000D01*
%TA.AperFunction,Conductor*%
D28*
G36*
X73211203Y-90000000D02*
G01*
X73215000Y-90038553D01*
X73215001Y-94821437D01*
X73211203Y-94860000D01*
X73226359Y-95013886D01*
X73271246Y-95161859D01*
X73287488Y-95192246D01*
X73344139Y-95298233D01*
X73378263Y-95339813D01*
X73417655Y-95387812D01*
X73417659Y-95387816D01*
X73442237Y-95417764D01*
X73472185Y-95442342D01*
X77441770Y-99411928D01*
X77122086Y-99411928D01*
X73134999Y-95424842D01*
X73134999Y-90075158D01*
X73211317Y-89998840D01*
X73211203Y-90000000D01*
G37*
%TD.AperFunction*%
D27*
X59727000Y-90669110D02*
X59727000Y-90830890D01*
X59616971Y-90940919D01*
X59600000Y-90923948D01*
X59583029Y-90940919D01*
X59473000Y-90830890D01*
X59473000Y-90669110D01*
X59583029Y-90559081D01*
X59600000Y-90576052D01*
X59616971Y-90559081D01*
X59727000Y-90669110D01*
%TA.AperFunction,Conductor*%
D28*
G36*
X59727000Y-90669110D02*
G01*
X59727000Y-90830890D01*
X59616971Y-90940919D01*
X59600000Y-90923948D01*
X59583029Y-90940919D01*
X59473000Y-90830890D01*
X59473000Y-90669110D01*
X59583029Y-90559081D01*
X59600000Y-90576052D01*
X59616971Y-90559081D01*
X59727000Y-90669110D01*
G37*
%TD.AperFunction*%
D27*
X59727000Y-89544110D02*
X59727000Y-89705890D01*
X59616971Y-89815919D01*
X59600000Y-89798948D01*
X59583029Y-89815919D01*
X59473000Y-89705890D01*
X59473000Y-89544110D01*
X59583029Y-89434081D01*
X59600000Y-89451052D01*
X59616971Y-89434081D01*
X59727000Y-89544110D01*
%TA.AperFunction,Conductor*%
D28*
G36*
X59727000Y-89544110D02*
G01*
X59727000Y-89705890D01*
X59616971Y-89815919D01*
X59600000Y-89798948D01*
X59583029Y-89815919D01*
X59473000Y-89705890D01*
X59473000Y-89544110D01*
X59583029Y-89434081D01*
X59600000Y-89451052D01*
X59616971Y-89434081D01*
X59727000Y-89544110D01*
G37*
%TD.AperFunction*%
D27*
X59747000Y-88439110D02*
X59747000Y-88560890D01*
X59616971Y-88690919D01*
X59600000Y-88673948D01*
X59583029Y-88690919D01*
X59409081Y-88516971D01*
X59426052Y-88500000D01*
X59409081Y-88483029D01*
X59583029Y-88309081D01*
X59600000Y-88326052D01*
X59616971Y-88309081D01*
X59747000Y-88439110D01*
%TA.AperFunction,Conductor*%
D28*
G36*
X59747000Y-88439110D02*
G01*
X59747000Y-88560890D01*
X59616971Y-88690919D01*
X59600000Y-88673948D01*
X59583029Y-88690919D01*
X59409081Y-88516971D01*
X59426052Y-88500000D01*
X59409081Y-88483029D01*
X59583029Y-88309081D01*
X59600000Y-88326052D01*
X59616971Y-88309081D01*
X59747000Y-88439110D01*
G37*
%TD.AperFunction*%
D27*
X58665919Y-88483029D02*
X58648948Y-88500000D01*
X58665919Y-88516971D01*
X58555890Y-88627000D01*
X58394110Y-88627000D01*
X58284081Y-88516971D01*
X58301052Y-88500000D01*
X58284081Y-88483029D01*
X58394110Y-88373000D01*
X58555890Y-88373000D01*
X58665919Y-88483029D01*
%TA.AperFunction,Conductor*%
D28*
G36*
X58665919Y-88483029D02*
G01*
X58648948Y-88500000D01*
X58665919Y-88516971D01*
X58555890Y-88627000D01*
X58394110Y-88627000D01*
X58284081Y-88516971D01*
X58301052Y-88500000D01*
X58284081Y-88483029D01*
X58394110Y-88373000D01*
X58555890Y-88373000D01*
X58665919Y-88483029D01*
G37*
%TD.AperFunction*%
D27*
X57540919Y-88483029D02*
X57523948Y-88500000D01*
X57540919Y-88516971D01*
X57430890Y-88627000D01*
X57269110Y-88627000D01*
X57159081Y-88516971D01*
X57176052Y-88500000D01*
X57159081Y-88483029D01*
X57269110Y-88373000D01*
X57430890Y-88373000D01*
X57540919Y-88483029D01*
%TA.AperFunction,Conductor*%
D28*
G36*
X57540919Y-88483029D02*
G01*
X57523948Y-88500000D01*
X57540919Y-88516971D01*
X57430890Y-88627000D01*
X57269110Y-88627000D01*
X57159081Y-88516971D01*
X57176052Y-88500000D01*
X57159081Y-88483029D01*
X57269110Y-88373000D01*
X57430890Y-88373000D01*
X57540919Y-88483029D01*
G37*
%TD.AperFunction*%
D27*
X59727000Y-87294110D02*
X59727000Y-87455890D01*
X59616971Y-87565919D01*
X59600000Y-87548948D01*
X59583029Y-87565919D01*
X59473000Y-87455890D01*
X59473000Y-87294110D01*
X59583029Y-87184081D01*
X59600000Y-87201052D01*
X59616971Y-87184081D01*
X59727000Y-87294110D01*
%TA.AperFunction,Conductor*%
D28*
G36*
X59727000Y-87294110D02*
G01*
X59727000Y-87455890D01*
X59616971Y-87565919D01*
X59600000Y-87548948D01*
X59583029Y-87565919D01*
X59473000Y-87455890D01*
X59473000Y-87294110D01*
X59583029Y-87184081D01*
X59600000Y-87201052D01*
X59616971Y-87184081D01*
X59727000Y-87294110D01*
G37*
%TD.AperFunction*%
D27*
X59727000Y-86169110D02*
X59727000Y-86330890D01*
X59616971Y-86440919D01*
X59600000Y-86423948D01*
X59583029Y-86440919D01*
X59473000Y-86330890D01*
X59473000Y-86169110D01*
X59583029Y-86059081D01*
X59600000Y-86076052D01*
X59616971Y-86059081D01*
X59727000Y-86169110D01*
%TA.AperFunction,Conductor*%
D28*
G36*
X59727000Y-86169110D02*
G01*
X59727000Y-86330890D01*
X59616971Y-86440919D01*
X59600000Y-86423948D01*
X59583029Y-86440919D01*
X59473000Y-86330890D01*
X59473000Y-86169110D01*
X59583029Y-86059081D01*
X59600000Y-86076052D01*
X59616971Y-86059081D01*
X59727000Y-86169110D01*
G37*
%TD.AperFunction*%
D27*
X81327000Y-90569110D02*
X81327000Y-90730890D01*
X81216971Y-90840919D01*
X81200000Y-90823948D01*
X81183029Y-90840919D01*
X81073000Y-90730890D01*
X81073000Y-90569110D01*
X81183029Y-90459081D01*
X81200000Y-90476052D01*
X81216971Y-90459081D01*
X81327000Y-90569110D01*
%TA.AperFunction,Conductor*%
D28*
G36*
X81327000Y-90569110D02*
G01*
X81327000Y-90730890D01*
X81216971Y-90840919D01*
X81200000Y-90823948D01*
X81183029Y-90840919D01*
X81073000Y-90730890D01*
X81073000Y-90569110D01*
X81183029Y-90459081D01*
X81200000Y-90476052D01*
X81216971Y-90459081D01*
X81327000Y-90569110D01*
G37*
%TD.AperFunction*%
D27*
X81327000Y-89444110D02*
X81327000Y-89605890D01*
X81216971Y-89715919D01*
X81200000Y-89698948D01*
X81183029Y-89715919D01*
X81073000Y-89605890D01*
X81073000Y-89444110D01*
X81183029Y-89334081D01*
X81200000Y-89351052D01*
X81216971Y-89334081D01*
X81327000Y-89444110D01*
%TA.AperFunction,Conductor*%
D28*
G36*
X81327000Y-89444110D02*
G01*
X81327000Y-89605890D01*
X81216971Y-89715919D01*
X81200000Y-89698948D01*
X81183029Y-89715919D01*
X81073000Y-89605890D01*
X81073000Y-89444110D01*
X81183029Y-89334081D01*
X81200000Y-89351052D01*
X81216971Y-89334081D01*
X81327000Y-89444110D01*
G37*
%TD.AperFunction*%
D27*
X81390919Y-88383029D02*
X81373948Y-88400000D01*
X81390919Y-88416971D01*
X81216971Y-88590919D01*
X81200000Y-88573948D01*
X81183029Y-88590919D01*
X81009081Y-88416971D01*
X81026052Y-88400000D01*
X81009081Y-88383029D01*
X81183029Y-88209081D01*
X81200000Y-88226052D01*
X81216971Y-88209081D01*
X81390919Y-88383029D01*
%TA.AperFunction,Conductor*%
D28*
G36*
X81390919Y-88383029D02*
G01*
X81373948Y-88400000D01*
X81390919Y-88416971D01*
X81216971Y-88590919D01*
X81200000Y-88573948D01*
X81183029Y-88590919D01*
X81009081Y-88416971D01*
X81026052Y-88400000D01*
X81009081Y-88383029D01*
X81183029Y-88209081D01*
X81200000Y-88226052D01*
X81216971Y-88209081D01*
X81390919Y-88383029D01*
G37*
%TD.AperFunction*%
D27*
X80265919Y-88383029D02*
X80248948Y-88400000D01*
X80265919Y-88416971D01*
X80155890Y-88527000D01*
X79994110Y-88527000D01*
X79884081Y-88416971D01*
X79901052Y-88400000D01*
X79884081Y-88383029D01*
X79994110Y-88273000D01*
X80155890Y-88273000D01*
X80265919Y-88383029D01*
%TA.AperFunction,Conductor*%
D28*
G36*
X80265919Y-88383029D02*
G01*
X80248948Y-88400000D01*
X80265919Y-88416971D01*
X80155890Y-88527000D01*
X79994110Y-88527000D01*
X79884081Y-88416971D01*
X79901052Y-88400000D01*
X79884081Y-88383029D01*
X79994110Y-88273000D01*
X80155890Y-88273000D01*
X80265919Y-88383029D01*
G37*
%TD.AperFunction*%
D27*
X82515919Y-88383029D02*
X82498948Y-88400000D01*
X82515919Y-88416971D01*
X82405890Y-88527000D01*
X82244110Y-88527000D01*
X82134081Y-88416971D01*
X82151052Y-88400000D01*
X82134081Y-88383029D01*
X82244110Y-88273000D01*
X82405890Y-88273000D01*
X82515919Y-88383029D01*
%TA.AperFunction,Conductor*%
D28*
G36*
X82515919Y-88383029D02*
G01*
X82498948Y-88400000D01*
X82515919Y-88416971D01*
X82405890Y-88527000D01*
X82244110Y-88527000D01*
X82134081Y-88416971D01*
X82151052Y-88400000D01*
X82134081Y-88383029D01*
X82244110Y-88273000D01*
X82405890Y-88273000D01*
X82515919Y-88383029D01*
G37*
%TD.AperFunction*%
D27*
X79140919Y-88383029D02*
X79123948Y-88400000D01*
X79140919Y-88416971D01*
X79030890Y-88527000D01*
X78869110Y-88527000D01*
X78759081Y-88416971D01*
X78776052Y-88400000D01*
X78759081Y-88383029D01*
X78869110Y-88273000D01*
X79030890Y-88273000D01*
X79140919Y-88383029D01*
%TA.AperFunction,Conductor*%
D28*
G36*
X79140919Y-88383029D02*
G01*
X79123948Y-88400000D01*
X79140919Y-88416971D01*
X79030890Y-88527000D01*
X78869110Y-88527000D01*
X78759081Y-88416971D01*
X78776052Y-88400000D01*
X78759081Y-88383029D01*
X78869110Y-88273000D01*
X79030890Y-88273000D01*
X79140919Y-88383029D01*
G37*
%TD.AperFunction*%
D27*
X83640919Y-88383029D02*
X83623948Y-88400000D01*
X83640919Y-88416971D01*
X83530890Y-88527000D01*
X83369110Y-88527000D01*
X83259081Y-88416971D01*
X83276052Y-88400000D01*
X83259081Y-88383029D01*
X83369110Y-88273000D01*
X83530890Y-88273000D01*
X83640919Y-88383029D01*
%TA.AperFunction,Conductor*%
D28*
G36*
X83640919Y-88383029D02*
G01*
X83623948Y-88400000D01*
X83640919Y-88416971D01*
X83530890Y-88527000D01*
X83369110Y-88527000D01*
X83259081Y-88416971D01*
X83276052Y-88400000D01*
X83259081Y-88383029D01*
X83369110Y-88273000D01*
X83530890Y-88273000D01*
X83640919Y-88383029D01*
G37*
%TD.AperFunction*%
D27*
X81327000Y-87194110D02*
X81327000Y-87355890D01*
X81216971Y-87465919D01*
X81200000Y-87448948D01*
X81183029Y-87465919D01*
X81073000Y-87355890D01*
X81073000Y-87194110D01*
X81183029Y-87084081D01*
X81200000Y-87101052D01*
X81216971Y-87084081D01*
X81327000Y-87194110D01*
%TA.AperFunction,Conductor*%
D28*
G36*
X81327000Y-87194110D02*
G01*
X81327000Y-87355890D01*
X81216971Y-87465919D01*
X81200000Y-87448948D01*
X81183029Y-87465919D01*
X81073000Y-87355890D01*
X81073000Y-87194110D01*
X81183029Y-87084081D01*
X81200000Y-87101052D01*
X81216971Y-87084081D01*
X81327000Y-87194110D01*
G37*
%TD.AperFunction*%
D27*
X81327000Y-86069110D02*
X81327000Y-86230890D01*
X81216971Y-86340919D01*
X81200000Y-86323948D01*
X81183029Y-86340919D01*
X81073000Y-86230890D01*
X81073000Y-86069110D01*
X81183029Y-85959081D01*
X81200000Y-85976052D01*
X81216971Y-85959081D01*
X81327000Y-86069110D01*
%TA.AperFunction,Conductor*%
D28*
G36*
X81327000Y-86069110D02*
G01*
X81327000Y-86230890D01*
X81216971Y-86340919D01*
X81200000Y-86323948D01*
X81183029Y-86340919D01*
X81073000Y-86230890D01*
X81073000Y-86069110D01*
X81183029Y-85959081D01*
X81200000Y-85976052D01*
X81216971Y-85959081D01*
X81327000Y-86069110D01*
G37*
%TD.AperFunction*%
%TD*%
M02*
