M48
; DRILL file {KiCad 5.1.8} date Sun Jan 17 13:40:52 2021
; FORMAT={-:-/ absolute / inch / decimal}
; #@! TF.CreationDate,2021-01-17T13:40:52+01:00
; #@! TF.GenerationSoftware,Kicad,Pcbnew,5.1.8
FMAT,2
INCH
T1C0.0079
T2C0.0157
T3C0.0236
T4C0.0335
T5C0.0394
T6C0.0598
T7C0.1260
T8C0.0354
%
G90
G05
T1
X3.1083Y-3.3917
X3.1083Y-3.436
X3.1083Y-3.4803
X3.1083Y-3.5246
X3.1083Y-3.5689
X3.1526Y-3.3917
X3.1526Y-3.436
X3.1526Y-3.4803
X3.1526Y-3.5246
X3.1526Y-3.5689
X3.1969Y-3.3917
X3.1969Y-3.436
X3.1969Y-3.4803
X3.1969Y-3.5246
X3.1969Y-3.5689
X3.2411Y-3.3917
X3.2411Y-3.436
X3.2411Y-3.4803
X3.2411Y-3.5246
X3.2411Y-3.5689
X3.2854Y-3.3917
X3.2854Y-3.436
X3.2854Y-3.4803
X3.2854Y-3.5246
X3.2854Y-3.5689
X2.2579Y-3.3957
X2.2579Y-3.44
X2.2579Y-3.4843
X2.2579Y-3.5285
X2.2579Y-3.5728
X2.3022Y-3.3957
X2.3022Y-3.44
X2.3022Y-3.4843
X2.3022Y-3.5285
X2.3022Y-3.5728
X2.3465Y-3.3957
X2.3465Y-3.44
X2.3465Y-3.4843
X2.3465Y-3.5285
X2.3465Y-3.5728
X2.3907Y-3.3957
X2.3907Y-3.44
X2.3907Y-3.4843
X2.3907Y-3.5285
X2.3907Y-3.5728
X2.435Y-3.3957
X2.435Y-3.44
X2.435Y-3.4843
X2.435Y-3.5285
X2.435Y-3.5728
T2
X1.6299Y-3.2795
X1.6339Y-2.9685
X1.6378Y-3.5039
X1.6417Y-2.7283
X1.6417Y-2.9331
X1.6417Y-3.0512
X1.6457Y-2.4882
X1.6457Y-3.8622
X1.6496Y-3.2126
X1.6535Y-2.2717
X1.6575Y-2.3898
X1.6575Y-2.874
X1.6575Y-3.1457
X1.6614Y-3.437
X1.6614Y-3.5945
X1.6693Y-2.6575
X1.6969Y-3.2087
X1.7008Y-3.3819
X1.7126Y-2.3622
X1.7126Y-2.4685
X1.7126Y-2.5472
X1.7205Y-2.7244
X1.7283Y-3.2677
X1.7402Y-2.3937
X1.7402Y-3.8583
X1.7441Y-2.6457
X1.7717Y-2.9646
X1.7835Y-3.0591
X1.7874Y-2.2559
X1.7953Y-2.5906
X1.811Y-2.8504
X1.8268Y-3.3661
X1.8386Y-3.8898
X1.8465Y-3.8346
X1.8543Y-3.7008
X1.8661Y-2.2283
X1.874Y-2.7953
X1.8976Y-2.1614
X1.8976Y-3.8898
X1.9016Y-3.937
X1.9094Y-3.6024
X1.9094Y-3.9882
X1.9252Y-2.0472
X1.9409Y-2.7638
X1.9528Y-2.252
X1.9606Y-3.3583
X1.9646Y-2.9213
X1.9646Y-4.0354
X1.9724Y-3.2677
X1.9764Y-2.122
X1.9764Y-2.2953
X1.9882Y-3.4567
X1.9882Y-4.0709
X1.9921Y-2.9764
X1.9941Y-3.5363
X1.9961Y-2.3661
X2.0039Y-2.8228
X2.0197Y-3.6378
X2.0197Y-3.7835
X2.0236Y-3.3386
X2.0276Y-2.2835
X2.0354Y-3.8976
X2.0433Y-2.8976
X2.0591Y-2.3622
X2.0591Y-3.3071
X2.063Y-2.7559
X2.0827Y-3.2047
X2.0906Y-3.6378
X2.0945Y-3.8622
X2.0984Y-3.7126
X2.1024Y-2.2126
X2.1142Y-2.811
X2.1181Y-2.3071
X2.126Y-3.7717
X2.1339Y-3.0157
X2.1457Y-3.689
X2.1654Y-2.9567
X2.1693Y-3.0157
X2.1693Y-3.2717
X2.1811Y-3.7362
X2.1929Y-3.7874
X2.2008Y-2.3189
X2.2205Y-3.1575
X2.2323Y-2.815
X2.252Y-3.8268
X2.2615Y-3.2609
X2.2677Y-2.7323
X2.2756Y-2.2126
X2.2874Y-3.7362
X2.3071Y-3.7047
X2.3071Y-2.2362
X2.3071Y-2.9921
X2.311Y-3.1063
X2.3189Y-3.0433
X2.3307Y-2.6614
X2.3346Y-3.8661
X2.3386Y-3.7047
X2.3484Y-2.9055
X2.3543Y-2.248
X2.3622Y-2.2756
X2.3622Y-2.9961
X2.3661Y-2.4843
X2.3661Y-3.122
X2.3701Y-2.3543
X2.3701Y-2.4094
X2.374Y-3.0669
X2.3858Y-2.6102
X2.4173Y-3.1063
X2.4213Y-3.8583
X2.4252Y-2.9803
X2.4331Y-2.5669
X2.4488Y-3.0118
X2.4646Y-2.2244
X2.4803Y-2.8465
X2.4961Y-2.7087
X2.4961Y-2.9449
X2.5Y-3.3189
X2.5276Y-2.2047
X2.5354Y-3.8307
X2.5669Y-2.6772
X2.5709Y-3.9803
X2.5827Y-2.5039
X2.5827Y-3.374
X2.5827Y-4.0118
X2.5984Y-3.6614
X2.6063Y-2.2047
X2.6102Y-3.815
X2.626Y-3.7677
X2.626Y-4.0039
X2.6417Y-3.9567
X2.6496Y-3.6339
X2.6535Y-2.6142
X2.6535Y-3.1496
X2.6575Y-3.7874
X2.6845Y-2.2052
X2.692Y-3.5197
X2.6969Y-3.2047
X2.6969Y-3.3386
X2.7087Y-3.1102
X2.7087Y-3.878
X2.7165Y-2.8976
X2.7205Y-3.1693
X2.7244Y-3.437
X2.7282Y-3.3789
X2.7402Y-2.6693
X2.7677Y-2.8583
X2.7677Y-3.6417
X2.7717Y-3.3819
X2.7785Y-3.2913
X2.7835Y-3.6969
X2.8228Y-3.4449
X2.8228Y-3.5
X2.8307Y-2.9409
X2.8583Y-3.2407
X2.8622Y-2.6732
X2.874Y-3.6299
X2.9173Y-3.9843
X2.9173Y-4.0827
X2.9213Y-3.8858
X2.9252Y-3.125
X2.9252Y-3.7992
X2.9331Y-3.937
X2.9488Y-3.1496
X2.9488Y-3.6299
X2.9567Y-2.9528
X2.9567Y-3.6693
X2.9646Y-3.7126
X2.9685Y-3.4882
X2.9724Y-3.4094
X2.9764Y-2.811
X2.9882Y-2.685
X2.9954Y-3.0112
X2.9961Y-3.2441
X2.9961Y-3.8701
X3.0079Y-2.4055
X3.0118Y-3.3386
X3.0313Y-2.5477
X3.0315Y-3.7205
X3.0394Y-2.4449
X3.0472Y-3.6732
X3.0512Y-3.0591
X3.0512Y-3.1693
X3.0591Y-2.2638
X3.0827Y-3.8386
X3.0837Y-3.689
X3.0866Y-3.752
X3.0984Y-2.5787
X3.1024Y-2.3858
X3.1102Y-2.3268
X3.1102Y-3.2638
X3.1142Y-3.874
X3.1181Y-3.2008
X3.126Y-2.6457
X3.1614Y-2.4646
X3.1614Y-2.5472
X3.1772Y-3.8583
X3.189Y-2.3661
X3.2047Y-2.5748
X3.2047Y-2.7992
X3.2205Y-2.6457
X3.2441Y-2.8268
X3.2559Y-2.5827
X3.2559Y-2.9055
X3.2598Y-3.2008
X3.2677Y-2.689
X3.2677Y-2.9803
X3.2677Y-3.8504
X3.2953Y-2.8701
X3.3031Y-3.063
X3.3071Y-2.8189
X3.3189Y-2.3758
X3.3189Y-2.8976
X3.3228Y-3.748
X3.3425Y-3.315
X3.3425Y-3.7913
X3.3465Y-2.8425
X3.3622Y-2.6063
X3.3622Y-3.1181
X3.374Y-2.6732
X3.374Y-2.8465
X3.378Y-2.0945
X3.378Y-3.7717
X3.3819Y-3.0039
X3.3898Y-2.5906
X3.3937Y-2.7953
X3.3976Y-2.6457
X3.4094Y-2.5276
X3.4173Y-3.4764
X3.4213Y-3.4134
X3.4567Y-2.9685
X3.4606Y-3.9173
X3.4724Y-3.1024
X3.4843Y-3.248
X3.4843Y-3.3701
X3.4882Y-3.6732
X3.4882Y-3.9724
X3.4921Y-3.0079
X3.5079Y-3.8701
X3.5118Y-3.7717
X3.5197Y-2.689
X3.5197Y-2.9055
X3.5197Y-3.1102
X3.5276Y-3.0591
X3.5276Y-3.7087
X3.5433Y-3.311
X3.5433Y-3.3268
X3.5551Y-3.2756
X3.5591Y-2.8701
X3.563Y-3.8071
X3.5709Y-3.4409
X3.5709Y-3.8622
X3.5748Y-2.1614
X3.5748Y-3.5079
X3.5748Y-4.0866
X3.5827Y-3.6772
X3.5866Y-2.2598
X3.5906Y-3.3346
X3.6024Y-2.6929
X3.6024Y-2.8307
X3.6063Y-2.1299
X3.6142Y-3.0039
X3.6142Y-3.2913
X3.6142Y-3.7717
X3.622Y-3.2638
X3.6339Y-3.0787
X3.6378Y-2.189
X3.6378Y-2.7953
X3.6417Y-2.9016
X3.6417Y-3.9921
X3.6654Y-2.0394
X3.6654Y-2.0984
X3.6654Y-3.1102
X3.6654Y-4.0551
X3.6693Y-2.7559
X3.6693Y-2.9409
X3.6732Y-3.8504
X3.6811Y-2.6811
X3.689Y-3.1102
X3.6969Y-3.937
X3.7008Y-2.2677
X3.7047Y-3.0591
X3.7087Y-2.9606
X3.7165Y-2.3307
X3.7283Y-3.2756
X3.748Y-2.2244
X3.748Y-4.0709
X3.7559Y-2.0394
X3.7598Y-2.1693
X3.7717Y-3.9685
X3.7795Y-2.2913
X3.7835Y-3.0315
X3.7835Y-3.2756
X3.8031Y-3.9055
X3.8071Y-2.3425
X3.811Y-2.0906
X3.8386Y-3.3819
X3.8386Y-3.4843
X3.8386Y-3.5827
X3.8386Y-3.685
X3.8386Y-3.7874
X3.8425Y-3.1378
X3.8465Y-3.2362
X3.8543Y-2.2087
X3.8701Y-2.8504
X3.8701Y-3.0669
X3.874Y-2.6732
X3.878Y-3.7835
X3.8858Y-3.374
X3.8937Y-3.8504
X3.9094Y-2.3228
X3.9134Y-3.6496
X3.9173Y-3.311
X3.9173Y-3.4685
X3.9173Y-3.5433
X3.9173Y-3.9016
X3.9331Y-3.248
X3.937Y-3.3858
X3.937Y-3.7087
X3.937Y-3.7992
X3.9449Y-3.4606
X3.9488Y-3.2087
X3.9567Y-3.6339
X3.9764Y-2.3307
X3.9803Y-2.4449
X3.9882Y-3.1142
X3.9882Y-3.5433
X4.0039Y-3.8346
X4.0079Y-3.0472
X4.0079Y-3.4606
X4.0157Y-3.2874
X4.0157Y-3.6417
X4.0157Y-3.7323
X4.0236Y-3.5709
X4.0315Y-2.374
X4.0315Y-3.2165
X4.0394Y-3.3583
X4.0394Y-3.374
X4.0433Y-2.3386
X4.0472Y-3.7992
X4.0512Y-2.5157
X4.0551Y-3.0787
X4.0591Y-2.9882
X3.2047Y-2.1555
X3.2047Y-2.2087
X3.2382Y-2.1555
X3.2382Y-2.2087
X3.2717Y-2.1555
X3.2717Y-2.2087
X3.3051Y-2.1555
X3.3051Y-2.2087
X3.3386Y-2.1555
X3.3386Y-2.2087
X3.372Y-2.1555
X3.372Y-2.2087
X3.4055Y-2.1555
X3.4055Y-2.2087
X3.439Y-2.1555
X3.439Y-2.2087
T4
X2.5Y-2.0591
X2.5984Y-2.0591
X2.6969Y-2.0591
X2.7953Y-2.0591
X2.8937Y-2.0591
X1.8543Y-2.9528
X1.8543Y-3.0512
X1.8543Y-3.1496
X1.8543Y-3.248
X1.8543Y-2.4016
X1.8543Y-2.5
X1.8543Y-2.5984
X1.8543Y-2.6969
T5
X2.0354Y-2.5
X2.0354Y-2.6
X2.1614Y-3.9724
X2.2614Y-3.9724
X2.3614Y-3.9724
X2.4614Y-3.9724
X3.0512Y-3.9724
X3.1512Y-3.9724
X3.2512Y-3.9724
X3.3512Y-3.9724
X2.8386Y-2.2913
X2.9386Y-2.2913
T6
X1.7323Y-3.5087
X1.7323Y-3.7087
T7
X1.7126Y-2.1063
X1.7126Y-4.0354
X3.9961Y-4.0354
X3.9961Y-2.1063
T8
X2.1299Y-2.0894
X2.248Y-2.0894
T3
G00X3.1516Y-2.0213
M15
G01X3.1516Y-2.0528
M16
G05
G00X3.1516Y-2.1406
M15
G01X3.1516Y-2.1996
M16
G05
G00X3.4921Y-2.0213
M15
G01X3.4921Y-2.0528
M16
G05
G00X3.4921Y-2.1406
M15
G01X3.4921Y-2.1996
M16
G05
T0
M30
